<?xml version="1.0" encoding="UTF-8"?>
<!DOCTYPE svg PUBLIC "-//W3C//DTD SVG 1.0//EN" "http://www.w3.org/TR/2001/REC-SVG-20010904/DTD/svg10.dtd">
<!-- Creator: CorelDRAW 2021 (64-Bit) -->
<svg xmlns="http://www.w3.org/2000/svg" xml:space="preserve" width="1027px" height="648px" version="1.0" style="shape-rendering:geometricPrecision; text-rendering:geometricPrecision; image-rendering:optimizeQuality; fill-rule:evenodd; clip-rule:evenodd"
viewBox="0 0 988.71 623.28"
 xmlns:xlink="http://www.w3.org/1999/xlink"
 xmlns:xodm="http://www.corel.com/coreldraw/odm/2003">
 <defs>
  <style type="text/css">
   <![CDATA[
    .fil24 {fill:#00223A;fill-rule:nonzero}
    .fil13 {fill:#002D56;fill-rule:nonzero}
    .fil0 {fill:#00658B;fill-rule:nonzero}
    .fil32 {fill:#006677;fill-rule:nonzero}
    .fil43 {fill:#010E11;fill-rule:nonzero}
    .fil22 {fill:#08343E;fill-rule:nonzero}
    .fil29 {fill:#0B3400;fill-rule:nonzero}
    .fil20 {fill:#0B455C;fill-rule:nonzero}
    .fil6 {fill:#0E5B88;fill-rule:nonzero}
    .fil51 {fill:#0E74BA;fill-rule:nonzero}
    .fil37 {fill:#0F1818;fill-rule:nonzero}
    .fil15 {fill:#0F4500;fill-rule:nonzero}
    .fil31 {fill:#142023;fill-rule:nonzero}
    .fil34 {fill:#153552;fill-rule:nonzero}
    .fil42 {fill:#191919;fill-rule:nonzero}
    .fil9 {fill:#1B4779;fill-rule:nonzero}
    .fil30 {fill:#236596;fill-rule:nonzero}
    .fil16 {fill:#2E0000;fill-rule:nonzero}
    .fil17 {fill:#2E86DF;fill-rule:nonzero}
    .fil48 {fill:#303A3D;fill-rule:nonzero}
    .fil49 {fill:#33A0C0;fill-rule:nonzero}
    .fil33 {fill:#380000;fill-rule:nonzero}
    .fil19 {fill:#4A0000;fill-rule:nonzero}
    .fil40 {fill:#4F2718;fill-rule:nonzero}
    .fil45 {fill:#541F1D;fill-rule:nonzero}
    .fil21 {fill:#5B0000;fill-rule:nonzero}
    .fil36 {fill:#716D4E;fill-rule:nonzero}
    .fil1 {fill:#74ACDF;fill-rule:nonzero}
    .fil18 {fill:#770000;fill-rule:nonzero}
    .fil4 {fill:#85340A;fill-rule:nonzero}
    .fil35 {fill:#880000;fill-rule:nonzero}
    .fil5 {fill:#8D3B26;fill-rule:nonzero}
    .fil28 {fill:#909177;fill-rule:nonzero}
    .fil23 {fill:#949174;fill-rule:nonzero}
    .fil26 {fill:#A4540E;fill-rule:nonzero}
    .fil46 {fill:#A6BCC5;fill-rule:nonzero}
    .fil27 {fill:#B1842D;fill-rule:nonzero}
    .fil25 {fill:#B25A0E;fill-rule:nonzero}
    .fil11 {fill:#B30000;fill-rule:nonzero}
    .fil50 {fill:#B8C9D1;fill-rule:nonzero}
    .fil14 {fill:#BDC0B0;fill-rule:nonzero}
    .fil8 {fill:#C2C0AC;fill-rule:nonzero}
    .fil47 {fill:#C9D8E5;fill-rule:nonzero}
    .fil41 {fill:#D60000;fill-rule:nonzero}
    .fil10 {fill:#D86F15;fill-rule:nonzero}
    .fil44 {fill:#E0E0D6;fill-rule:nonzero}
    .fil12 {fill:#E8AF42;fill-rule:nonzero}
    .fil7 {fill:#EA7715;fill-rule:nonzero}
    .fil2 {fill:#F2F2EE;fill-rule:nonzero}
    .fil3 {fill:#F6B40E;fill-rule:nonzero}
    .fil38 {fill:#FFA47C;fill-rule:nonzero}
    .fil39 {fill:#FFBD95;fill-rule:nonzero}
   ]]>
  </style>
 </defs>
 <g id="Capa_x0020_1">
  <metadata id="CorelCorpID_0Corel-Layer"/>
  <path class="fil0" d="M139.92 559.18c-48.3,0 -87.47,9.92 -87.47,22.16 0,12.24 39.17,22.16 87.47,22.16 48.32,0 87.48,-9.92 87.48,-22.16 0,-12.24 -39.16,-22.16 -87.48,-22.16z"/>
  <path class="fil0" d="M511.18 455.72c-263.73,0 -477.52,37.51 -477.52,83.78 0,46.27 213.79,83.78 477.52,83.78 263.74,0 477.53,-37.51 477.53,-83.78 0,-46.27 -213.79,-83.78 -477.53,-83.78z"/>
  <path class="fil1" d="M5.13 202.92c24.34,87.61 48.62,175.25 72.81,262.91 53.78,-49.89 125.22,-27.84 199.29,-5.79 74.01,22.03 150.64,44.06 214.89,-5.66 27.03,-87.27 58.24,-174.39 93.8,-261.36 -95.81,49.26 -199.72,27.05 -300.26,4.84 -100.71,-22.25 -198.05,-44.5 -280.53,5.06z"/>
  <path class="fil2" d="M29.47 290.53c8.1,29.22 16.19,58.43 24.28,87.64 62.58,-49.8 141.98,-27.7 224.24,-5.61 82.17,22.07 167.2,44.14 241.16,-5.45 9.93,-29.05 20.33,-58.09 31.21,-87.12 -84.48,49.43 -178.59,27.3 -269.6,5.18 -91.13,-22.17 -179.15,-44.33 -251.29,5.36z"/>
  <path class="fil3" d="M182.91 271.33l-0.7 0.55c-0.29,5.97 -0.81,22.25 -0.81,22.25 0.44,-0.1 0.89,-0.21 1.33,-0.31 0.44,0.36 0.89,0.72 1.33,1.08 0,0 -0.31,-16.53 -0.47,-22.63l-0.68 -0.94z"/>
  <path class="fil4" d="M182.8 293.52l-1.12 0.26c0.08,-2.42 0.54,-16.47 0.79,-21.84l0.38 -0.28 0.46 0.62c0.15,5.37 0.41,19.04 0.47,22.04l-0.98 -0.8zm1.06 -21.26l-0.76 -1.12 -0.13 -0.14 -0.17 0.08 -0.86 0.79c-0.28,5.9 -0.81,22.09 -0.82,22.25l-0.01 0.35 1.55 -0.36 1.69 1.37 -0.01 -0.58c-0.01,-0.17 -0.32,-16.61 -0.48,-22.64z"/>
  <path class="fil3" d="M181.41 318.35c0,0 0.52,16.54 0.78,22.64l0.64 0.95 0.62 -0.56c0.17,-5.97 0.55,-22.26 0.55,-22.26 -0.44,0.11 -0.87,0.21 -1.3,0.32 -0.43,-0.37 -0.86,-0.73 -1.29,-1.09z"/>
  <path class="fil4" d="M183.18 341.34l-0.29 0.25 -0.42 -0.61c-0.23,-5.37 -0.67,-18.99 -0.77,-22.03l0.83 0.69 0.1 0.1 1.08 -0.27c-0.05,2.42 -0.38,16.49 -0.53,21.87zm-1.6 -23.19l-0.46 -0.4 0.02 0.61c0,0.17 0.52,16.61 0.78,22.65l0.7 1.11 0.14 0.16 0.19 -0.1 0.77 -0.79c0.17,-5.9 0.54,-22.1 0.55,-22.26l0.01 -0.36 -1.51 0.37 -1.19 -0.99z"/>
  <path class="fil3" d="M196.64 278.35c-2.84,4.73 -10.21,17.68 -10.21,17.68 0.5,0.09 1.01,0.18 1.51,0.27 0.31,0.47 0.62,0.93 0.93,1.4 0,0 6.58,-13.51 9.01,-18.52l-0.29 -1.02 -0.95 0.19z"/>
  <path class="fil4" d="M188.84 297.15l-0.74 -1.1 -0.11 -0.02 -1.13 -0.2c1.17,-2.06 7.46,-13.09 9.98,-17.31l0.58 -0.08 0.22 0.62c-2.18,4.48 -7.67,15.76 -8.8,18.09zm8.93 -19.27l-0.18 0c-0.65,0 -1.04,0.11 -1.17,0.32 -2.82,4.69 -10.15,17.57 -10.23,17.7l-0.19 0.33 0.38 0.07c0.47,0.08 0.93,0.17 1.4,0.25l1.13 1.7 0.21 -0.44c0,0 6.57,-13.5 9.01,-18.52 0.1,-0.21 0.01,-0.63 -0.29,-1.25l-0.07 -0.16z"/>
  <path class="fil3" d="M176.7 315.56c0,0 -5.84,13.51 -7.85,18.54l0.31 1.02 0.87 -0.19c2.43,-4.74 9.08,-17.71 9.08,-17.71 -0.5,-0.09 -0.99,-0.18 -1.48,-0.26 -0.31,-0.47 -0.62,-0.94 -0.93,-1.4z"/>
  <path class="fil4" d="M169.83 334.75l-0.49 0.09 -0.25 -0.64c1.79,-4.44 6.62,-15.66 7.66,-18.07l0.72 1.07 1.23 0.23 -8.87 17.32zm6.82 -19.76l-0.2 0.46c-0.06,0.13 -5.86,13.58 -7.86,18.55 -0.08,0.21 0.03,0.62 0.33,1.23l0.08 0.16 0.17 0c0.61,0 0.99,-0.11 1.1,-0.34l9.25 -18.03 -1.73 -0.31 -1.14 -1.72z"/>
  <path class="fil3" d="M208.57 289.03c-4.85,2.83 -17.72,10.52 -17.72,10.51 0.48,0.27 0.97,0.54 1.45,0.81 0.13,0.5 0.26,1 0.38,1.49 0,0.01 12.25,-8.44 16.79,-11.67l0.14 -0.94 -1.04 -0.2z"/>
  <path class="fil4" d="M209.31 289.95c-4.06,2.9 -14.5,10.11 -16.46,11.46l-0.29 -1.13 -0.06 -0.13 -1.11 -0.62c0.35,-0.2 0.93,-0.55 1.92,-1.14 3.84,-2.29 11.84,-7.04 15.39,-9.11l0.65 0.14 -0.04 0.53zm0.39 -0.98l-1 -0.24 -0.26 0.06c-3.57,2.09 -11.57,6.85 -15.41,9.13 -1.37,0.82 -2.26,1.35 -2.31,1.38l0.08 0.16 -0.08 0.31 1.34 0.76c0.12,0.46 0.24,0.92 0.36,1.38l0.06 0.22 0.21 -0.01 16.94 -11.73c0.21,-0.13 0.29,-0.54 0.25,-1.18l-0.01 -0.18 -0.17 -0.06z"/>
  <path class="fil3" d="M172.85 311.41c0,-0.01 -11.51,8.45 -15.62,11.69l-0.06 0.94 1 0.2c4.43,-2.84 16.55,-10.53 16.55,-10.53 -0.48,-0.27 -0.96,-0.54 -1.44,-0.81 -0.15,-0.5 -0.29,-1 -0.43,-1.49z"/>
  <path class="fil4" d="M158.07 323.99l-0.02 0.27 0 -0.27 -0.63 -0.15 -0.03 -0.53c3.77,-2.96 13.45,-10.09 15.31,-11.45l0.31 1.12 0.08 0.13 1.12 0.63c-2.79,1.7 -16.03,10.17 -16.14,10.25zm14.99 -12.86l-0.21 0 -15.79 11.75c-0.08,0.06 -0.29,0.23 -0.15,1.2l0.02 0.16 0.15 0.06 0.97 0.24 0.27 -0.07c4.33,-2.78 15.57,-9.91 16.48,-10.48l0.92 -0.02 -2.21 -1.25 -0.45 -1.59z"/>
  <path class="fil3" d="M193.98 304.12l1.16 1.23c-0.07,0.46 -0.14,0.92 -0.2,1.37 0,0.02 15.83,-2.11 21.67,-3.11l0.51 -0.73 -0.95 -0.56c-6,0.55 -22.19,1.82 -22.19,1.8z"/>
  <path class="fil4" d="M216.56 303.34c-5.35,0.92 -18.96,2.77 -21.3,3.07l0.17 -1.15 -0.86 -0.91c2.97,-0.22 16.25,-1.27 21.6,-1.75l0.62 0.36 -0.23 0.38zm-0.42 -1.29c-5.86,0.54 -21.77,1.79 -22.16,1.8l0 0.2 -0.2 0.26 1.07 1.14 -0.23 1.55 0.32 0c0.24,0 16.07,-2.16 21.71,-3.12l0.73 -0.9 0.07 -0.19 -0.16 -0.12 -1.15 -0.62z"/>
  <path class="fil3" d="M170.46 306.53c0,-0.02 -15.66,2.12 -21.36,3.12l-0.43 0.73 0.99 0.56c5.88,-0.56 21.84,-1.83 21.84,-1.81l-1.2 -1.23c0.05,-0.46 0.1,-0.91 0.16,-1.37z"/>
  <path class="fil4" d="M170.89 308.9l0 0c-2.95,0.22 -16,1.27 -21.24,1.76l-0.66 -0.38 0.16 -0.36c5.09,-0.89 18.74,-2.79 21,-3.08l-0.14 1.16 0.88 0.9zm-0.13 -2.64l-0.3 0c-0.25,0 -15.87,2.15 -21.4,3.12l-0.65 0.92 -0.06 0.19 0.15 0.11 1.15 0.61 0.04 0c5.76,-0.55 21.42,-1.8 21.81,-1.81l0 -0.18 0.2 -0.28 -1.11 -1.14 0.17 -1.54z"/>
  <path class="fil3" d="M218.48 316.3c-6.18,-1.84 -23.12,-7.19 -23.12,-7.21 0.24,0.48 0.47,0.97 0.7,1.46l-0.75 1.04c0,0.02 16.93,4.54 23.11,5.96l0.79 -0.42 -0.73 -0.83z"/>
  <path class="fil4" d="M218.47 317.28c-5.71,-1.3 -20.23,-5.17 -22.71,-5.85l0.62 -0.85 -0.51 -1.05c3.91,1.32 22.32,6.97 22.52,7.03l0.45 0.51 -0.37 0.21zm0.09 -1.24c-6.11,-1.82 -22.69,-7.05 -23.1,-7.2l-0.08 0.2 -0.27 0.16 0.64 1.32 -0.66 0.91 -0.05 0.07 0 0.09c0,0.25 0,0.25 9.44,2.72 4.52,1.19 10.61,2.76 13.87,3.5l0.11 0.02 0.93 -0.49 0.17 -0.16 -0.12 -0.19 -0.88 -0.95z"/>
  <path class="fil3" d="M169.91 301.66c0,-0.02 -17.51,-4.54 -23.99,-5.96l-0.78 0.42 0.84 0.83c6.49,1.84 23.97,7.19 23.97,7.21 -0.25,-0.48 -0.51,-0.97 -0.76,-1.46l0.72 -1.04z"/>
  <path class="fil4" d="M169.11 303.13l0.31 0.59c-3.85,-1.25 -21.37,-6.46 -23.35,-7.03l-0.55 -0.53 0.35 -0.19c5.87,1.28 21.06,5.18 23.6,5.86l-0.35 0.5 -0.25 0.35 0.24 0.45zm0.4 -0.41l0.05 -0.08 0.57 -0.82 0.05 -0.07 0 -0.09c0,-0.25 0,-0.25 -9.77,-2.72 -4.69,-1.19 -11,-2.76 -14.43,-3.51l-0.1 -0.01 -0.92 0.5 -0.18 0.16 0.15 0.2 0.98 0.93c6.46,1.84 23.61,7.09 23.94,7.21l0.08 -0.21 0.26 -0.17 -0.6 -1.16 -0.08 -0.16z"/>
  <path class="fil3" d="M194.82 313.68c0.05,0.49 0.1,0.99 0.15,1.47l-1.18 0.55c0,0.02 15.51,10.54 21.13,14.21l0.95 -0.02 -0.42 -0.99c-5.45,-4.02 -20.63,-15.2 -20.63,-15.22z"/>
  <path class="fil4" d="M215.07 329.69c-5.11,-3.34 -18.31,-12.29 -20.74,-13.94l0.93 -0.43 -0.12 -1.09c1.28,0.98 5.21,3.88 17.43,12.89l2.71 1.99 0.24 0.57 -0.45 0.01zm0.54 -1.01l-2.72 -2c-6.17,-4.55 -17.66,-13.02 -17.9,-13.21l-0.16 0.2 -0.29 0.01 0.01 0.03 0.13 1.28 -1.17 0.54 0 0.17c0,0.17 0,0.17 8.58,5.96 3.39,2.29 9.53,6.43 12.68,8.48l0.45 0.11 0.71 -0.1 0.27 -0.06 -0.07 -0.27 -0.52 -1.14z"/>
  <path class="fil3" d="M148.46 283.33l-1.01 0.03 0.53 0.99c6.08,4.02 22.37,15.2 22.37,15.22 -0.07,-0.49 -0.13,-0.98 -0.2,-1.47l1.19 -0.55c0,-0.02 -16.64,-10.55 -22.88,-14.22z"/>
  <path class="fil4" d="M169.85 297.93l0.03 0.2 0.12 0.87c-0.9,-0.64 -3.08,-2.14 -8.4,-5.77 -3.57,-2.43 -10.07,-6.87 -13.47,-9.11l-0.3 -0.55 0.3 -0.03 0.19 0.02c5.7,3.36 19.86,12.31 22.45,13.95l-0.92 0.42zm1.75 -0.45c-0.01,-0.06 -15.51,-9.98 -23,-14.39l-0.47 -0.1 -0.74 0.1 -0.3 0.07 0.11 0.29 0.63 1.12c5.94,3.93 22.03,14.97 22.35,15.21l0.16 -0.19 0.28 -0.02 0 -0.04 -0.01 -0.07 -0.16 -1.2 1.21 -0.55 -0.06 -0.23z"/>
  <path class="fil3" d="M192.47 317.2c-0.14,0.42 -0.28,0.84 -0.42,1.26 -0.48,-0.01 -0.95,-0.02 -1.42,-0.03 0,0.01 11.91,14.95 16.22,20.34l0.97 0.37 -0.06 -1c-4,-5.6 -15.29,-20.93 -15.29,-20.94z"/>
  <path class="fil4" d="M207.07 338.6c-3.79,-4.73 -13.85,-17.34 -15.87,-19.88l0.85 0.02 0.2 0 0.31 -0.95c0.18,0.24 0.43,0.59 0.82,1.11 2.99,4.07 10.93,14.88 14.16,19.4l0.03 0.51 -0.5 -0.21zm-13.26 -20.02c-0.68,-0.92 -1.09,-1.49 -1.12,-1.54l-0.17 0.13 -0.32 -0.05 -0.35 1.07 -1.22 -0.03 -0.28 -0.01 0 0.28c0,0.12 0,0.14 16.29,20.51l1.13 0.47 0.28 0.05 0.04 -0.28 -0.11 -1.19c-3.22,-4.52 -11.17,-15.34 -14.17,-19.41z"/>
  <path class="fil3" d="M155.47 274.1l0.13 1c4.63,5.6 17.06,20.94 17.06,20.95 0.14,-0.42 0.27,-0.84 0.41,-1.26 0.49,0.01 0.98,0.02 1.47,0.03 0,-0.01 -13.04,-14.95 -17.99,-20.34l-1.08 -0.38z"/>
  <path class="fil4" d="M172.87 294.51l-0.06 0.19 -0.26 0.81c-2.53,-3.29 -16.59,-20.4 -16.74,-20.59l-0.08 -0.49 0.62 0.23c4.49,4.89 15.36,17.32 17.58,19.87l-1.06 -0.02zm-17.35 -20.68l-0.29 -0.05 -0.03 0.3 0.19 1.19c4.46,5.39 16.8,20.6 17.06,20.94l0.17 -0.13 0.3 0.05 0.05 -0.16 0.29 -0.91 1.55 0.04 0 -0.28 -18.06 -20.53 -1.23 -0.46z"/>
  <path class="fil3" d="M187.75 319.97c-0.49,-0.21 -0.97,-0.41 -1.46,-0.61 0,0 6.69,17.05 9.15,23.3l0.85 0.72 0.3 -0.84c-2.04,-6.3 -7.92,-23.42 -7.92,-23.42l-0.92 0.85z"/>
  <path class="fil4" d="M196.2 343l-0.51 -0.43 -8.91 -22.71 0.87 0.36 0.18 0.05 0.72 -0.67c0.89,2.61 5.93,17.33 7.78,23.01l-0.13 0.39zm-7.41 -24.36l-1.1 1.01 -1.89 -0.78 9.38 23.9 0.97 0.85 0.23 0.13 0.14 -0.22 0.33 -1.08c-2.02,-6.22 -7.86,-23.25 -7.92,-23.42l-0.14 -0.39z"/>
  <path class="fil3" d="M168 269.87l-0.31 0.85c2.38,6.29 8.86,23.41 8.86,23.41l0.94 -0.84c0.51,0.2 1.02,0.4 1.52,0.6 0,0 -7.25,-17.05 -10.05,-23.3l-0.96 -0.72z"/>
  <path class="fil4" d="M177.59 293.03l-0.19 -0.03 -0.74 0.67c-0.96,-2.54 -6.55,-17.31 -8.71,-23.04l0.14 -0.39 0.62 0.46c2.47,5.51 8.48,19.61 9.8,22.69l-0.92 -0.36zm-8.38 -22.55l-1.08 -0.85 -0.21 -0.12 -0.14 0.21 -0.35 1.1c2.38,6.28 8.87,23.41 8.87,23.41l0.14 0.38 1.11 -1.01 1.97 0.79 -0.25 -0.61c-0.08,-0.17 -7.29,-17.12 -10.06,-23.3z"/>
  <path class="fil5" d="M181.91 299.05l0.8 -0.19 0.8 0.66c-0.24,-4.76 -0.49,-9.52 -0.73,-14.28 -0.3,4.6 -0.59,9.21 -0.87,13.81z"/>
  <path class="fil5" d="M181.91 313.73c0.27,4.76 0.55,9.52 0.83,14.28 0.23,-4.6 0.49,-9.21 0.74,-13.81l-0.79 0.19 -0.78 -0.66z"/>
  <path class="fil5" d="M185.85 300.37l0.57 0.85c1.68,-3.95 3.4,-7.89 5.14,-11.84 -2.23,3.61 -4.44,7.22 -6.62,10.83l0.91 0.16z"/>
  <path class="fil5" d="M179.04 312.04c-1.59,3.94 -3.16,7.89 -4.7,11.84 2.03,-3.62 4.08,-7.23 6.16,-10.83l-0.89 -0.17 -0.57 -0.84z"/>
  <path class="fil5" d="M188.49 302.82l0.24 0.91c3.34,-2.52 6.71,-5.06 10.1,-7.6 -3.76,2.08 -7.5,4.14 -11.22,6.2l0.88 0.49z"/>
  <path class="fil5" d="M176.71 309.52c-3.24,2.53 -6.45,5.06 -9.64,7.61 3.57,-2.08 7.16,-4.15 10.77,-6.21l-0.87 -0.49 -0.26 -0.91z"/>
  <path class="fil5" d="M190.23 305.86l-0.12 0.83c4.45,-0.73 8.92,-1.47 13.39,-2.23 -4.66,0.24 -9.32,0.45 -13.98,0.65l0.71 0.75z"/>
  <path class="fil5" d="M175.28 306.56c-4.43,0.73 -8.85,1.47 -13.25,2.23 4.62,-0.23 9.25,-0.45 13.87,-0.65l-0.72 -0.75 0.1 -0.83z"/>
  <path class="fil5" d="M190.81 309.01l-0.45 0.63c4.88,1.18 9.73,2.35 14.58,3.49 -4.84,-1.64 -9.69,-3.32 -14.56,-5.01l0.43 0.89z"/>
  <path class="fil5" d="M174.97 303.61c-4.95,-1.18 -9.92,-2.35 -14.9,-3.49 4.99,1.65 9.97,3.32 14.91,5.01l-0.45 -0.89 0.44 -0.63z"/>
  <path class="fil5" d="M190.16 311.8l-0.71 0.32c4.56,2.92 9.09,5.83 13.58,8.71 -4.28,-3.29 -8.61,-6.6 -12.96,-9.92l0.09 0.89z"/>
  <path class="fil5" d="M161.59 292.42c4.59,3.29 9.14,6.6 13.66,9.92l-0.12 -0.89 0.72 -0.33c-4.72,-2.91 -9.47,-5.82 -14.26,-8.7z"/>
  <path class="fil5" d="M188.39 313.8l-0.86 -0.02c3.58,4.21 7.12,8.41 10.63,12.59 -3.14,-4.43 -6.31,-8.88 -9.52,-13.33l-0.25 0.76z"/>
  <path class="fil5" d="M176.65 300.21l0.25 -0.76 0.88 0.02c-3.73,-4.2 -7.51,-8.41 -11.32,-12.6 3.43,4.44 6.83,8.89 10.19,13.34z"/>
  <path class="fil5" d="M185.78 314.71l-0.9 -0.37c2.09,4.85 4.14,9.71 6.18,14.56 -1.56,-4.9 -3.13,-9.8 -4.72,-14.71l-0.56 0.52z"/>
  <path class="fil5" d="M178.99 299.06l0.57 -0.52 0.92 0.37c-2.16,-4.85 -4.34,-9.7 -6.55,-14.56 1.7,4.9 3.39,9.8 5.06,14.71z"/>
  <path class="fil3" d="M189.99 274.08c0,0 0.09,0.38 0.15,1.03 0.04,0.64 0.06,1.56 -0.21,2.52 -0.22,0.98 -1.08,1.67 -1.77,2.82 -0.33,0.58 -0.59,1.17 -0.8,1.87 -0.21,0.7 -0.28,1.5 -0.33,2.21 -0.04,1.42 -0.53,2.24 -1.14,3.4 -0.58,1.06 -1.14,2.3 -1.34,3.35 -0.49,2.05 -0.74,3.41 -0.74,3.41 1.05,0.44 2.11,0.88 3.16,1.31 0,0 0.15,-1.39 0.48,-3.4 0.16,-1 0.41,-1.98 0.85,-3.18 0.21,-0.6 0.46,-1.21 0.62,-1.99 0.15,-0.79 0.11,-1.65 0.03,-2.4 -0.08,-0.76 -0.14,-1.42 -0.09,-2.06 0.06,-0.63 0.21,-1.29 0.4,-1.84 0.37,-1.11 1.16,-2.11 1.21,-3.27 0.12,-1.1 -0.04,-2.07 -0.18,-2.73 -0.15,-0.67 -0.3,-1.05 -0.3,-1.05z"/>
  <path class="fil4" d="M190.2 277.84c-0.03,0.68 -0.34,1.31 -0.66,1.98 -0.19,0.39 -0.4,0.8 -0.54,1.22 -0.21,0.62 -0.35,1.3 -0.41,1.91 -0.06,0.67 0.01,1.35 0.09,2.11 0.11,0.92 0.1,1.68 -0.03,2.32 -0.11,0.56 -0.28,1.04 -0.44,1.49l-0.16 0.46c-0.42,1.12 -0.68,2.12 -0.86,3.23 -0.24,1.4 -0.38,2.51 -0.45,3.05l-2.62 -1.08c0.09,-0.46 0.32,-1.64 0.7,-3.2 0.17,-0.89 0.64,-2.05 1.31,-3.27l0.13 -0.25c0.56,-1.06 1,-1.89 1.04,-3.26 0.05,-0.73 0.12,-1.48 0.32,-2.15 0.2,-0.66 0.44,-1.22 0.78,-1.81l0.8 -1.13c0.43,-0.57 0.85,-1.11 0.99,-1.76l0.03 -0.11 -0.02 0.25zm0.05 -3.85l-0.52 0.15c0,0.01 0.09,0.38 0.13,0.99 0.05,0.59 0.07,1.5 -0.19,2.44 -0.13,0.55 -0.49,1.01 -0.91,1.56 -0.26,0.34 -0.56,0.73 -0.83,1.18 -0.36,0.63 -0.62,1.25 -0.83,1.94 -0.22,0.71 -0.29,1.51 -0.34,2.27 -0.05,1.25 -0.44,2 -0.98,3.03l-0.13 0.25c-0.4,0.73 -1.11,2.14 -1.37,3.41 -0.48,2.04 -0.73,3.42 -0.74,3.44l-0.03 0.21 3.69 1.53 0.04 -0.36c0,-0.01 0.16,-1.41 0.48,-3.38 0.18,-1.08 0.44,-2.04 0.84,-3.14l0.16 -0.45c0.17,-0.47 0.34,-0.97 0.47,-1.58 0.13,-0.69 0.14,-1.51 0.03,-2.48 -0.08,-0.73 -0.14,-1.38 -0.08,-2.01 0.05,-0.55 0.19,-1.2 0.38,-1.77l0.51 -1.16c0.33,-0.69 0.68,-1.4 0.71,-2.17 0.13,-1.16 -0.05,-2.17 -0.19,-2.82 -0.15,-0.68 -0.3,-1.07 -0.3,-1.08z"/>
  <path class="fil5" d="M187.78 286.51c-0.26,0.98 -0.98,2.07 -1.53,3.3 -0.58,1.27 -0.74,2.63 -1.05,3.61 -0.26,0.99 -0.43,1.64 -0.43,1.64l1.24 0.57c0,0 0.09,-0.69 0.22,-1.73 0.19,-1.01 0.23,-2.53 0.62,-3.74 0.38,-1.29 0.98,-2.49 1.12,-3.56 0.13,-1.07 0.02,-1.82 0.02,-1.82 0,0 0.03,0.75 -0.21,1.73z"/>
  <path class="fil3" d="M178.33 320.7c-0.13,1 -0.35,1.98 -0.74,3.18 -0.17,0.6 -0.41,1.21 -0.53,1.99 -0.13,0.79 -0.07,1.66 0.03,2.41 0.1,0.76 0.17,1.41 0.14,2.06 -0.04,0.62 -0.16,1.29 -0.32,1.84 -0.31,1.11 -1,2.11 -1.02,3.27 -0.06,1.1 0.12,2.07 0.27,2.74 0.16,0.66 0.31,1.04 0.31,1.04 0,0 -0.09,-0.38 -0.17,-1.02 -0.06,-0.64 -0.11,-1.57 0.1,-2.53 0.17,-0.98 0.95,-1.68 1.55,-2.82 0.29,-0.58 0.52,-1.17 0.71,-1.88 0.17,-0.69 0.22,-1.5 0.25,-2.2 0.01,-1.42 0.45,-2.24 1.01,-3.41 0.53,-1.06 1.03,-2.3 1.22,-3.35 0.45,-2.05 0.67,-3.42 0.67,-3.42 -1.02,-0.43 -2.04,-0.87 -3.07,-1.3 0,0 -0.13,1.4 -0.41,3.4z"/>
  <path class="fil4" d="M178.97 317.69l2.53 1.08c-0.07,0.46 -0.28,1.64 -0.62,3.21 -0.16,0.88 -0.59,2.04 -1.21,3.27l-0.11 0.24c-0.51,1.06 -0.91,1.9 -0.93,3.27 -0.03,0.69 -0.07,1.48 -0.24,2.16 -0.18,0.67 -0.39,1.24 -0.68,1.82l-0.7 1.11c-0.36,0.53 -0.71,1.03 -0.84,1.62l0 -0.01c0.01,-0.69 0.27,-1.32 0.55,-1.99 0.17,-0.4 0.34,-0.8 0.46,-1.22 0.17,-0.63 0.29,-1.31 0.32,-1.9 0.04,-0.67 -0.04,-1.35 -0.14,-2.1 -0.12,-0.94 -0.14,-1.7 -0.03,-2.33 0.09,-0.59 0.24,-1.07 0.39,-1.53l0.13 -0.42c0.37,-1.12 0.6,-2.12 0.75,-3.23 0.2,-1.39 0.32,-2.5 0.37,-3.05zm-0.51 -0.41c0,0.01 -0.12,1.41 -0.4,3.38 -0.15,1.08 -0.37,2.05 -0.73,3.14l-0.13 0.42c-0.15,0.49 -0.31,0.99 -0.41,1.61 -0.11,0.69 -0.1,1.5 0.03,2.49 0.09,0.72 0.17,1.38 0.13,2 -0.03,0.55 -0.14,1.19 -0.31,1.78l-0.42 1.16c-0.29,0.69 -0.59,1.4 -0.6,2.18 -0.07,1.11 0.12,2.08 0.28,2.81 0.16,0.67 0.31,1.07 0.32,1.08l0.51 -0.16c0,-0.01 -0.09,-0.38 -0.16,-0.99 -0.06,-0.6 -0.12,-1.51 0.1,-2.45 0.1,-0.55 0.42,-1.02 0.79,-1.57 0.23,-0.34 0.5,-0.73 0.73,-1.17 0.31,-0.61 0.54,-1.23 0.73,-1.94 0.19,-0.74 0.23,-1.55 0.26,-2.27 0.01,-1.26 0.37,-2.01 0.87,-3.06l0.11 -0.22c0.45,-0.91 1.04,-2.23 1.25,-3.42 0.45,-2.03 0.67,-3.42 0.67,-3.44l0.04 -0.21 -3.62 -1.53 -0.04 0.38z"/>
  <path class="fil5" d="M179.48 319.4c-0.16,1.01 -0.17,2.53 -0.53,3.74 -0.33,1.29 -0.86,2.5 -0.98,3.56 -0.1,1.07 0.03,1.82 0.03,1.82 0,0 -0.05,-0.74 0.16,-1.73 0.21,-0.98 0.88,-2.07 1.37,-3.3 0.54,-1.27 0.68,-2.63 0.96,-3.61 0.23,-0.98 0.39,-1.65 0.39,-1.65l-1.2 -0.57c0,0 -0.08,0.7 -0.2,1.74z"/>
  <path class="fil3" d="M202.08 285.9c-0.64,0.72 -1.82,0.95 -2.99,1.63 -0.58,0.35 -1.1,0.72 -1.61,1.22 -0.51,0.48 -0.91,1.11 -1.26,1.66 -0.64,1.14 -1.48,1.62 -2.59,2.33 -1.03,0.63 -2.11,1.42 -2.76,2.19 -1.35,1.46 -2.17,2.48 -2.17,2.48 0.91,0.76 1.82,1.52 2.72,2.29 0,0 0.73,-1.07 1.89,-2.57 0.58,-0.75 1.24,-1.45 2.18,-2.25 0.45,-0.41 0.97,-0.81 1.45,-1.38 0.49,-0.58 0.81,-1.31 1.04,-1.95 0.23,-0.64 0.44,-1.2 0.77,-1.7 0.31,-0.49 0.75,-0.97 1.17,-1.35 0.85,-0.76 2.06,-1.28 2.61,-2.21 0.58,-0.86 0.83,-1.71 0.96,-2.3 0.14,-0.6 0.15,-0.97 0.15,-0.97 0,0 -0.07,0.35 -0.29,0.9 -0.23,0.54 -0.6,1.3 -1.27,1.98z"/>
  <path class="fil4" d="M202.3 286.15c-0.32,0.54 -0.9,0.94 -1.51,1.36l-1.05 0.79c-0.48,0.43 -0.92,0.93 -1.22,1.4 -0.35,0.53 -0.56,1.11 -0.8,1.76 -0.28,0.8 -0.6,1.41 -0.98,1.86l-1.08 1.05 -0.35 0.3c-0.9,0.77 -1.59,1.48 -2.21,2.3 -0.83,1.06 -1.45,1.93 -1.73,2.33 -0.53,-0.44 -1.06,-0.89 -1.58,-1.34l-0.71 -0.59c0.31,-0.37 1.01,-1.2 2,-2.27 0.55,-0.65 1.51,-1.41 2.7,-2.14l0.22 -0.14c1.02,-0.64 1.83,-1.16 2.45,-2.27 0.33,-0.53 0.73,-1.13 1.21,-1.61 0.5,-0.46 0.98,-0.83 1.57,-1.18 0.43,-0.25 0.87,-0.43 1.28,-0.61 0.69,-0.3 1.34,-0.58 1.76,-1.06l0.19 -0.2 -0.16 0.26zm0.8 -2.34c-0.21,0.5 -0.57,1.24 -1.23,1.91 -0.35,0.4 -0.92,0.64 -1.57,0.92 -0.41,0.19 -0.89,0.39 -1.35,0.65 -0.62,0.37 -1.15,0.77 -1.66,1.26 -0.51,0.49 -0.92,1.12 -1.3,1.73 -0.57,1 -1.29,1.45 -2.28,2.08l-0.22 0.14c-0.72,0.44 -2.04,1.31 -2.82,2.24 -1.34,1.46 -2.17,2.48 -2.18,2.49l-0.17 0.21 1.11 0.94c0.61,0.51 1.22,1.02 1.81,1.53l0.24 0.19 0.16 -0.25c0.01,-0.01 0.74,-1.08 1.88,-2.55 0.62,-0.79 1.28,-1.47 2.15,-2.22l0.35 -0.3c0.36,-0.31 0.76,-0.66 1.14,-1.11 0.42,-0.5 0.77,-1.17 1.07,-2.03 0.22,-0.61 0.43,-1.16 0.74,-1.64 0.29,-0.43 0.69,-0.89 1.13,-1.3l0.99 -0.75c0.64,-0.43 1.3,-0.88 1.66,-1.51 0.62,-0.9 0.87,-1.79 1.01,-2.39 0.13,-0.62 0.15,-1 0.15,-1.01l-0.54 -0.07c0,0 -0.07,0.33 -0.27,0.84z"/>
  <path class="fil5" d="M193.23 294.4c-1.13,0.8 -1.86,1.84 -2.57,2.51 -0.67,0.7 -1.12,1.17 -1.12,1.17l1.04 0.94c0,0 0.38,-0.52 0.95,-1.31 0.6,-0.74 1.26,-1.96 2.18,-2.79 0.91,-0.9 2.02,-1.65 2.61,-2.46 0.58,-0.82 0.78,-1.47 0.78,-1.47 0,0 -0.28,0.62 -0.94,1.32 -0.67,0.7 -1.86,1.31 -2.93,2.09z"/>
  <path class="fil3" d="M172.55 316.17c-0.54,0.75 -1.15,1.45 -2.03,2.26 -0.43,0.41 -0.91,0.8 -1.35,1.38 -0.44,0.58 -0.71,1.3 -0.9,1.95 -0.18,0.64 -0.36,1.2 -0.65,1.7 -0.27,0.49 -0.66,0.97 -1.04,1.35 -0.76,0.76 -1.88,1.28 -2.34,2.22 -0.49,0.85 -0.66,1.7 -0.75,2.29 -0.09,0.61 -0.07,0.97 -0.07,0.97 0,0 0.04,-0.34 0.21,-0.89 0.17,-0.54 0.47,-1.31 1.07,-1.99 0.55,-0.72 1.65,-0.95 2.72,-1.63 0.54,-0.35 1,-0.72 1.47,-1.22 0.45,-0.49 0.81,-1.11 1.12,-1.67 0.56,-1.13 1.34,-1.61 2.38,-2.32 0.98,-0.64 1.99,-1.43 2.59,-2.2 1.28,-1.47 2.05,-2.48 2.05,-2.48 -0.91,-0.76 -1.81,-1.53 -2.72,-2.29 0,0 -0.68,1.07 -1.76,2.57z"/>
  <path class="fil4" d="M174.77 318.21c-0.5,0.64 -1.4,1.4 -2.53,2.13l-0.21 0.15c-0.95,0.65 -1.71,1.16 -2.26,2.28 -0.31,0.56 -0.66,1.15 -1.08,1.61 -0.44,0.46 -0.88,0.83 -1.41,1.17l-1.17 0.61c-0.64,0.31 -1.25,0.59 -1.62,1.08l-0.14 0.17 0.14 -0.26c0.26,-0.54 0.78,-0.94 1.33,-1.36l0.95 -0.79c0.43,-0.43 0.82,-0.93 1.09,-1.41 0.31,-0.53 0.5,-1.14 0.67,-1.76 0.24,-0.79 0.51,-1.4 0.87,-1.86 0.31,-0.43 0.66,-0.75 1,-1.07l0.3 -0.27c0.85,-0.78 1.49,-1.49 2.06,-2.3 0.77,-1.06 1.34,-1.91 1.61,-2.32l0.49 0.41c0.6,0.51 1.19,1.01 1.79,1.51 -0.29,0.37 -0.95,1.2 -1.88,2.28zm0.44 -4.21l-0.96 -0.81 -0.17 0.26c0,0.01 -0.69,1.09 -1.75,2.56 -0.56,0.78 -1.17,1.46 -2,2.22l-0.3 0.27c-0.33,0.32 -0.72,0.68 -1.07,1.14 -0.39,0.52 -0.7,1.18 -0.94,2.04 -0.18,0.59 -0.35,1.16 -0.63,1.65 -0.25,0.43 -0.61,0.9 -1.01,1.29l-0.89 0.74c-0.58,0.44 -1.17,0.9 -1.48,1.53 -0.51,0.88 -0.69,1.74 -0.79,2.4 -0.09,0.61 -0.08,0.99 -0.08,1l0.54 0.03c0,0 0.04,-0.33 0.21,-0.84 0.16,-0.5 0.44,-1.23 1.02,-1.9 0.3,-0.39 0.83,-0.64 1.43,-0.92 0.38,-0.18 0.8,-0.38 1.23,-0.65 0.58,-0.37 1.04,-0.76 1.52,-1.26 0.46,-0.5 0.83,-1.12 1.16,-1.73 0.49,-1 1.16,-1.46 2.09,-2.09l0.2 -0.14c0.83,-0.53 1.96,-1.37 2.65,-2.24 1.26,-1.45 2.04,-2.48 2.05,-2.49l0.15 -0.21 -0.19 -0.16c-0.66,-0.57 -1.33,-1.13 -1.99,-1.69z"/>
  <path class="fil5" d="M174.26 315.59c-0.56,0.75 -1.16,1.96 -2.02,2.8 -0.85,0.89 -1.88,1.64 -2.42,2.46 -0.52,0.81 -0.67,1.47 -0.67,1.47 0,0 0.23,-0.62 0.83,-1.33 0.62,-0.69 1.74,-1.3 2.74,-2.09 1.06,-0.8 1.73,-1.84 2.41,-2.51 0.64,-0.7 1.06,-1.17 1.06,-1.17l-1.04 -0.94c0,0 -0.35,0.52 -0.89,1.31z"/>
  <path class="fil3" d="M213.02 296.1c-0.45,0.36 -1.13,0.85 -2.08,1.16 -0.94,0.35 -2.23,0.1 -3.69,0.21 -0.73,0.06 -1.4,0.18 -2.13,0.39 -0.71,0.2 -1.38,0.56 -1.95,0.88 -1.12,0.68 -2.16,0.75 -3.58,0.9 -1.32,0.12 -2.75,0.34 -3.72,0.71 -1.98,0.66 -3.23,1.17 -3.23,1.17 0.62,0.98 1.25,1.95 1.87,2.93 0,0 1.18,-0.58 2.97,-1.35 0.89,-0.38 1.84,-0.7 3.14,-0.99 0.62,-0.15 1.31,-0.28 2.03,-0.56 0.73,-0.29 1.34,-0.76 1.84,-1.2 0.49,-0.44 0.94,-0.82 1.47,-1.1 0.52,-0.28 1.16,-0.52 1.74,-0.67 1.16,-0.3 2.6,-0.27 3.53,-0.83 0.94,-0.49 1.52,-1.1 1.91,-1.54 0.37,-0.45 0.54,-0.74 0.54,-0.74 0,0 -0.21,0.26 -0.66,0.63z"/>
  <path class="fil4" d="M211.09 297.52c-0.54,0.33 -1.29,0.44 -2.09,0.55 -0.46,0.07 -0.93,0.14 -1.37,0.25 -0.65,0.17 -1.29,0.41 -1.8,0.68 -0.55,0.3 -1,0.68 -1.52,1.15 -0.6,0.54 -1.18,0.91 -1.76,1.15 -0.53,0.2 -1.04,0.32 -1.53,0.43l-0.46 0.11c-1.22,0.28 -2.21,0.59 -3.18,1.01 -1.34,0.57 -2.35,1.05 -2.77,1.25l-1.56 -2.45c0.48,-0.19 1.52,-0.58 2.91,-1.04 0.83,-0.32 2.13,-0.57 3.66,-0.7l0.27 -0.03c1.3,-0.13 2.33,-0.24 3.41,-0.9 0.59,-0.33 1.22,-0.67 1.9,-0.86 0.67,-0.2 1.31,-0.31 2.07,-0.38 0.55,-0.03 1.06,-0.02 1.55,-0.02 0.78,0.02 1.54,0.05 2.19,-0.2l0.21 -0.07 -0.13 0.07zm1.76 -1.64c-0.41,0.34 -1.07,0.82 -2.01,1.12 -0.59,0.22 -1.29,0.2 -2.01,0.18 -0.51,-0.01 -1.03,-0.02 -1.6,0.02 -0.79,0.06 -1.48,0.19 -2.19,0.4 -0.72,0.21 -1.39,0.56 -2.01,0.9 -0.99,0.62 -1.92,0.71 -3.2,0.84l-0.27 0.03c-1.11,0.1 -2.67,0.3 -3.78,0.73 -1.97,0.65 -3.24,1.16 -3.24,1.17l-0.31 0.12 2.18 3.41 0.22 -0.11c0.01,0 1.19,-0.58 2.96,-1.34 0.94,-0.4 1.9,-0.71 3.1,-0.97l0.45 -0.12c0.52,-0.11 1.05,-0.24 1.61,-0.46 0.64,-0.26 1.27,-0.66 1.92,-1.25 0.5,-0.44 0.91,-0.79 1.42,-1.07 0.47,-0.25 1.07,-0.48 1.67,-0.63 0.41,-0.11 0.87,-0.18 1.31,-0.24 0.82,-0.12 1.66,-0.24 2.29,-0.62 0.96,-0.5 1.56,-1.12 1.98,-1.6 0.39,-0.46 0.57,-0.77 0.58,-0.79l-0.45 -0.3 -0.62 0.58z"/>
  <path class="fil5" d="M198.5 300.85c-1.48,0.21 -2.64,0.77 -3.65,1.03 -0.97,0.32 -1.62,0.52 -1.62,0.52l0.69 1.17c0,0 0.6,-0.28 1.5,-0.7 0.92,-0.37 2.09,-1.1 3.36,-1.42 1.3,-0.38 2.72,-0.56 3.66,-0.99 0.92,-0.45 1.39,-0.91 1.39,-0.91 0,0 -0.54,0.4 -1.5,0.72 -0.96,0.32 -2.42,0.35 -3.83,0.58z"/>
  <path class="fil3" d="M168.23 310.2c-0.87,0.39 -1.8,0.7 -3.05,0.99 -0.62,0.15 -1.29,0.28 -1.98,0.57 -0.7,0.28 -1.27,0.76 -1.73,1.19 -0.46,0.45 -0.87,0.82 -1.37,1.11 -0.49,0.28 -1.1,0.51 -1.65,0.66 -1.11,0.31 -2.52,0.28 -3.38,0.84 -0.87,0.48 -1.39,1.1 -1.72,1.54 -0.33,0.44 -0.46,0.74 -0.46,0.74l0.58 -0.63c0.4,-0.36 1.02,-0.86 1.93,-1.16 0.88,-0.35 2.15,-0.11 3.56,-0.21 0.71,-0.07 1.36,-0.19 2.05,-0.39 0.68,-0.21 1.31,-0.56 1.85,-0.89 1.05,-0.68 2.07,-0.75 3.45,-0.9 1.29,-0.11 2.68,-0.34 3.62,-0.71 1.92,-0.67 3.13,-1.17 3.13,-1.17 -0.64,-0.98 -1.29,-1.96 -1.94,-2.94 0,0 -1.15,0.59 -2.89,1.36z"/>
  <path class="fil4" d="M169.83 312.69c-0.8,0.32 -2.05,0.57 -3.54,0.7l-0.28 0.03c-1.26,0.14 -2.26,0.24 -3.29,0.91 -0.55,0.33 -1.14,0.66 -1.79,0.86 -0.65,0.19 -1.28,0.32 -2,0.38 -0.52,0.03 -1.02,0.02 -1.5,0.01 -0.75,0 -1.5,-0.04 -2.12,0.21l-0.27 0.1 0.18 -0.1c0.5,-0.33 1.22,-0.44 1.99,-0.56 0.43,-0.06 0.9,-0.13 1.32,-0.25 0.61,-0.16 1.22,-0.41 1.71,-0.69 0.52,-0.29 0.93,-0.67 1.42,-1.14 0.56,-0.54 1.1,-0.91 1.65,-1.14 0.49,-0.21 0.98,-0.32 1.45,-0.44l0.47 -0.12c1.2,-0.27 2.15,-0.58 3.1,-1 1.3,-0.57 2.28,-1.04 2.69,-1.25l1.64 2.45c-0.48,0.19 -1.49,0.58 -2.83,1.04zm1.17 -4.08c-0.02,0 -1.16,0.59 -2.89,1.34 -0.91,0.41 -1.84,0.71 -3,0.98l-0.47 0.11c-0.47,0.11 -1.01,0.24 -1.55,0.46 -0.61,0.26 -1.21,0.67 -1.81,1.26 -0.46,0.44 -0.84,0.8 -1.32,1.06 -0.44,0.25 -1.02,0.48 -1.58,0.64 -0.39,0.1 -0.83,0.17 -1.25,0.23 -0.8,0.13 -1.61,0.25 -2.19,0.63 -0.92,0.51 -1.47,1.17 -1.81,1.62 -0.34,0.46 -0.48,0.77 -0.49,0.78l0.47 0.28 0.55 -0.59c0.36,-0.33 0.95,-0.8 1.84,-1.11 0.53,-0.22 1.21,-0.18 1.92,-0.17 0.49,0.01 1.02,0.02 1.56,-0.02 0.76,-0.07 1.43,-0.19 2.11,-0.4 0.7,-0.21 1.35,-0.58 1.92,-0.92 0.92,-0.6 1.82,-0.7 3.06,-0.82l0.26 -0.04c1.1,-0.09 2.62,-0.3 3.68,-0.73 1.91,-0.66 3.15,-1.16 3.16,-1.17l0.31 -0.13 -2.27 -3.4 -0.21 0.11z"/>
  <path class="fil5" d="M170.27 310.43c-0.89,0.37 -2.01,1.1 -3.25,1.42 -1.26,0.38 -2.66,0.56 -3.55,1 -0.87,0.45 -1.3,0.91 -1.3,0.91 0,0 0.5,-0.4 1.42,-0.73 0.92,-0.31 2.36,-0.35 3.73,-0.57 1.45,-0.22 2.57,-0.78 3.56,-1.04 0.94,-0.31 1.57,-0.52 1.57,-0.52l-0.72 -1.17c0,0 -0.58,0.28 -1.46,0.7z"/>
  <path class="fil3" d="M215.25 310.04c-1.07,-0.07 -2.26,-0.77 -3.76,-1.25 -0.77,-0.23 -1.49,-0.39 -2.3,-0.5 -0.8,-0.11 -1.62,-0.07 -2.33,-0.03 -1.4,0.13 -2.48,-0.22 -3.98,-0.66 -1.39,-0.42 -2.93,-0.79 -4.08,-0.87 -2.29,-0.24 -3.78,-0.32 -3.78,-0.32 0.26,1.04 0.51,2.09 0.76,3.13 0,0 1.44,-0.01 3.57,0.07 1.07,0.04 2.16,0.15 3.59,0.43 0.7,0.11 1.44,0.28 2.29,0.33 0.85,0.05 1.66,-0.1 2.33,-0.27 0.67,-0.17 1.27,-0.31 1.92,-0.34 0.63,-0.03 1.37,0.03 2.01,0.13 1.29,0.2 2.71,0.78 3.87,0.67 1.12,-0.05 1.95,-0.34 2.5,-0.56 0.56,-0.23 0.84,-0.41 0.84,-0.41 0,0 -0.32,0.14 -0.91,0.28 -0.59,0.13 -1.46,0.28 -2.54,0.17z"/>
  <path class="fil4" d="M212.98 309.94c-0.48,-0.12 -0.98,-0.25 -1.45,-0.32 -0.57,-0.09 -1.18,-0.14 -1.71,-0.14l-0.35 0.01c-0.68,0.03 -1.3,0.18 -1.98,0.34 -0.83,0.22 -1.55,0.28 -2.25,0.27 -0.62,-0.04 -1.19,-0.14 -1.74,-0.24l-0.51 -0.09c-1.34,-0.26 -2.46,-0.39 -3.63,-0.43 -1.65,-0.07 -2.89,-0.07 -3.37,-0.07 -0.2,-0.86 -0.4,-1.71 -0.61,-2.57 0.57,0.05 1.79,0.14 3.4,0.3 0.98,0.07 2.4,0.38 4.02,0.87l0.27 0.07c1.18,0.35 2.11,0.62 3.21,0.62l0.6 -0.03c0.73,-0.04 1.61,-0.05 2.27,0.03 0.76,0.1 1.46,0.26 2.25,0.49 0.56,0.18 1.07,0.38 1.55,0.58 0.81,0.33 1.51,0.61 2.18,0.67 -0.63,0 -1.41,-0.18 -2.15,-0.36zm4.76 -0.34c-0.52,0.12 -1.36,0.28 -2.47,0.16 -0.63,-0.04 -1.31,-0.31 -2.11,-0.63 -0.5,-0.21 -1.02,-0.42 -1.59,-0.6 -0.83,-0.24 -1.55,-0.4 -2.35,-0.51 -0.71,-0.09 -1.6,-0.08 -2.38,-0.03 -1.23,0.13 -2.27,-0.17 -3.61,-0.57l-0.27 -0.08c-0.96,-0.29 -2.78,-0.78 -4.13,-0.88 -2.27,-0.24 -3.77,-0.32 -3.79,-0.32l-0.36 -0.02 0.08 0.36c0.26,1.04 0.5,2.08 0.75,3.12l0.05 0.21 0.41 0c0.46,0 1.7,0.01 3.37,0.08 1.15,0.04 2.24,0.16 3.55,0.41l0.51 0.09c0.57,0.11 1.15,0.21 1.81,0.25 0.78,0.05 1.53,-0.05 2.41,-0.27 0.68,-0.18 1.25,-0.31 1.87,-0.33 0.59,-0.03 1.3,0.02 1.95,0.12 0.45,0.06 0.94,0.19 1.41,0.3 0.74,0.19 1.51,0.39 2.21,0.39l0.31 -0.02c1.14,-0.05 1.98,-0.33 2.6,-0.58 0.57,-0.23 0.86,-0.42 0.87,-0.43l-0.26 -0.48c0,0.01 -0.3,0.13 -0.84,0.26z"/>
  <path class="fil5" d="M205.41 309.2c-1.1,-0.12 -2.6,-0.67 -4.12,-1.04 -1.59,-0.4 -3,-0.4 -4.14,-0.58 -1.12,-0.13 -1.86,-0.22 -1.86,-0.22l0.23 1.23c0,0 0.73,0.01 1.82,0.02 1.09,0.07 2.57,-0.08 3.99,0.16 1.47,0.21 3,0.61 4.12,0.62 1.1,-0.01 1.75,-0.21 1.75,-0.21 0,0 -0.69,0.12 -1.79,0.02z"/>
  <path class="fil3" d="M166.07 303.69c-1.08,-0.04 -2.18,-0.16 -3.64,-0.43 -0.71,-0.11 -1.48,-0.28 -2.33,-0.33 -0.86,-0.05 -1.67,0.1 -2.33,0.27 -0.67,0.16 -1.26,0.3 -1.91,0.33 -0.64,0.03 -1.38,-0.03 -2.04,-0.12 -1.31,-0.2 -2.8,-0.78 -3.96,-0.67 -1.12,0.05 -1.93,0.33 -2.47,0.55 -0.53,0.23 -0.8,0.42 -0.8,0.42 0,0 0.3,-0.14 0.89,-0.28 0.57,-0.13 1.44,-0.28 2.54,-0.17 1.08,0.07 2.34,0.77 3.9,1.24 0.78,0.24 1.52,0.4 2.34,0.51 0.81,0.1 1.63,0.07 2.33,0.02 1.4,-0.13 2.51,0.23 4.04,0.66 1.41,0.42 2.97,0.8 4.12,0.87 2.3,0.24 3.78,0.33 3.78,0.33 -0.28,-1.05 -0.57,-2.09 -0.86,-3.13 0,0 -1.45,0.01 -3.6,-0.07z"/>
  <path class="fil4" d="M166.77 306.29c-0.98,-0.06 -2.42,-0.37 -4.07,-0.86l-0.3 -0.09c-1.19,-0.34 -2.14,-0.6 -3.22,-0.6l-0.6 0.02c-0.75,0.05 -1.61,0.07 -2.28,-0.02 -0.79,-0.11 -1.5,-0.26 -2.31,-0.49 -0.57,-0.18 -1.1,-0.38 -1.61,-0.59 -0.84,-0.32 -1.57,-0.6 -2.26,-0.66l0.05 0c0.63,0 1.39,0.18 2.13,0.36 0.49,0.12 1,0.24 1.48,0.32 0.74,0.11 1.46,0.16 2.09,0.12 0.7,-0.02 1.33,-0.17 1.96,-0.34 0.83,-0.21 1.52,-0.29 2.26,-0.26 0.63,0.03 1.21,0.14 1.78,0.24l0.51 0.09c1.37,0.25 2.5,0.39 3.68,0.42 1.68,0.07 2.93,0.08 3.4,0.08 0.24,0.86 0.48,1.71 0.72,2.56 -0.59,-0.04 -1.8,-0.13 -3.41,-0.3zm3.17 -2.61l-0.06 -0.2 -0.4 0.01c-0.46,0 -1.71,-0.01 -3.4,-0.08 -1.15,-0.04 -2.27,-0.17 -3.6,-0.42l-0.52 -0.09c-0.58,-0.1 -1.18,-0.21 -1.84,-0.24 -0.8,-0.04 -1.55,0.05 -2.42,0.27 -0.61,0.16 -1.21,0.3 -1.86,0.33 -0.59,0.03 -1.28,-0.02 -1.97,-0.12 -0.47,-0.07 -0.97,-0.19 -1.45,-0.31 -0.76,-0.18 -1.55,-0.38 -2.25,-0.38l-0.32 0.02c-1.15,0.04 -1.97,0.33 -2.57,0.57 -0.55,0.24 -0.83,0.44 -0.84,0.44l0.27 0.47c0,0 0.28,-0.12 0.82,-0.25 0.51,-0.12 1.34,-0.28 2.46,-0.17 0.64,0.04 1.36,0.32 2.19,0.64 0.52,0.2 1.06,0.41 1.66,0.59 0.83,0.25 1.57,0.41 2.38,0.52 0.71,0.09 1.6,0.08 2.4,0.03 1.24,-0.13 2.27,0.17 3.64,0.56l0.3 0.08c0.96,0.29 2.8,0.8 4.16,0.89 2.28,0.23 3.79,0.32 3.81,0.32l0.37 0.02 -0.1 -0.36c-0.29,-1.05 -0.58,-2.09 -0.86,-3.14z"/>
  <path class="fil5" d="M168.13 304.68c-1.09,-0.06 -2.57,0.08 -4.01,-0.15 -1.49,-0.21 -3.05,-0.61 -4.18,-0.62 -1.11,0.01 -1.76,0.21 -1.76,0.21 0,0 0.7,-0.13 1.81,-0.02 1.11,0.12 2.65,0.66 4.2,1.03 1.62,0.41 3.03,0.41 4.18,0.59 1.12,0.13 1.87,0.22 1.87,0.22l-0.27 -1.23c0,0 -0.74,-0.01 -1.84,-0.03z"/>
  <path class="fil3" d="M214.61 322.35c-1.05,-0.47 -1.97,-1.53 -3.3,-2.52 -0.68,-0.5 -1.34,-0.91 -2.12,-1.33 -0.76,-0.4 -1.59,-0.69 -2.32,-0.94 -1.47,-0.45 -2.44,-1.17 -3.79,-2.12 -1.25,-0.9 -2.67,-1.82 -3.81,-2.34 -2.25,-1.1 -3.74,-1.76 -3.74,-1.76 -0.15,0.95 -0.3,1.9 -0.45,2.85 0,0 1.48,0.56 3.63,1.49 1.07,0.45 2.14,0.99 3.49,1.78 0.67,0.37 1.36,0.81 2.2,1.18 0.84,0.38 1.71,0.59 2.46,0.71 0.74,0.13 1.4,0.26 2.06,0.49 0.66,0.23 1.37,0.57 1.97,0.9 1.22,0.68 2.43,1.73 3.62,2.09 1.14,0.41 2.07,0.5 2.71,0.53 0.64,0.02 0.98,-0.02 0.98,-0.02 0,0 -0.36,-0.01 -1,-0.12 -0.63,-0.13 -1.56,-0.34 -2.59,-0.87z"/>
  <path class="fil4" d="M212.37 321.35c-0.43,-0.29 -0.89,-0.6 -1.35,-0.84 -0.65,-0.37 -1.38,-0.71 -2,-0.93 -0.7,-0.24 -1.37,-0.37 -2.11,-0.49 -0.94,-0.16 -1.72,-0.39 -2.4,-0.69 -0.62,-0.28 -1.15,-0.59 -1.67,-0.89l-0.5 -0.28c-1.27,-0.75 -2.37,-1.31 -3.52,-1.8 -1.68,-0.72 -2.96,-1.23 -3.44,-1.42l0.37 -2.28c0.55,0.26 1.78,0.82 3.4,1.62 0.97,0.44 2.32,1.26 3.78,2.31l0.26 0.19c1.22,0.86 2.19,1.54 3.59,1.97 0.76,0.26 1.56,0.53 2.28,0.93 0.75,0.39 1.39,0.79 2.09,1.3 0.49,0.37 0.93,0.74 1.35,1.1 0.53,0.47 1.02,0.89 1.51,1.19 -0.53,-0.25 -1.07,-0.61 -1.64,-0.99zm4.88 1.6c-0.59,-0.11 -1.49,-0.32 -2.53,-0.84 -0.61,-0.29 -1.19,-0.78 -1.86,-1.37 -0.43,-0.37 -0.88,-0.75 -1.39,-1.13 -0.72,-0.52 -1.38,-0.94 -2.15,-1.35 -0.76,-0.4 -1.59,-0.69 -2.38,-0.96 -1.32,-0.4 -2.2,-1.03 -3.44,-1.9l-0.26 -0.18c-1.05,-0.76 -2.57,-1.78 -3.85,-2.36 -2.23,-1.09 -3.73,-1.76 -3.74,-1.77l-0.33 -0.14 -0.55 3.41 0.21 0.09c0.01,0 1.5,0.57 3.62,1.48 1.14,0.49 2.21,1.03 3.47,1.77l0.5 0.28c0.52,0.31 1.07,0.62 1.72,0.92 0.72,0.32 1.55,0.56 2.52,0.72 0.72,0.13 1.37,0.25 2.03,0.47 0.59,0.22 1.29,0.54 1.92,0.89 0.44,0.24 0.88,0.54 1.31,0.82 0.77,0.52 1.57,1.05 2.35,1.29 1.18,0.42 2.16,0.51 2.79,0.54l0.42 0.01 0.6 -0.03 -0.02 -0.54c0,0 -0.36,-0.01 -0.96,-0.12z"/>
  <path class="fil5" d="M201.25 315.27c-1.47,-0.97 -2.91,-1.53 -4,-2.13 -1.1,-0.55 -1.82,-0.92 -1.82,-0.92l-0.25 1.09c0,0 0.75,0.3 1.86,0.75 1.09,0.48 2.66,0.96 4.02,1.72 1.41,0.75 2.8,1.69 3.93,2.15 1.13,0.43 1.86,0.52 1.86,0.52 0,0 -0.75,-0.17 -1.82,-0.7 -1.06,-0.53 -2.37,-1.58 -3.78,-2.48z"/>
  <path class="fil3" d="M162.79 295.83c-0.71,-0.37 -1.44,-0.81 -2.33,-1.18 -0.89,-0.38 -1.81,-0.58 -2.59,-0.71 -0.78,-0.13 -1.47,-0.25 -2.17,-0.49 -0.7,-0.23 -1.46,-0.57 -2.11,-0.9 -1.32,-0.67 -2.67,-1.73 -3.94,-2.09 -1.22,-0.41 -2.21,-0.5 -2.87,-0.53 -0.68,-0.03 -1.03,0.02 -1.03,0.02 0,0 0.38,0 1.05,0.12 0.68,0.12 1.67,0.34 2.79,0.87 1.13,0.47 2.18,1.53 3.63,2.52 0.74,0.49 1.46,0.92 2.29,1.33 0.82,0.4 1.7,0.69 2.47,0.95 1.53,0.44 2.57,1.17 4.01,2.12 1.32,0.89 2.82,1.81 4,2.33 2.33,1.11 3.86,1.77 3.86,1.77 0.13,-0.95 0.25,-1.91 0.38,-2.85 0,0 -1.53,-0.57 -3.77,-1.5 -1.12,-0.45 -2.24,-0.98 -3.67,-1.78z"/>
  <path class="fil4" d="M169.63 301.56c-0.57,-0.25 -1.84,-0.82 -3.53,-1.61 -1,-0.45 -2.41,-1.27 -3.96,-2.32l-0.25 -0.17c-1.32,-0.87 -2.36,-1.56 -3.83,-1.99 -0.75,-0.24 -1.62,-0.53 -2.43,-0.93 -0.8,-0.39 -1.49,-0.8 -2.25,-1.31 -0.54,-0.36 -1.01,-0.73 -1.47,-1.09 -0.57,-0.43 -1.07,-0.83 -1.58,-1.14 0.55,0.26 1.12,0.61 1.68,0.95 0.48,0.3 0.97,0.59 1.46,0.84 0.72,0.38 1.48,0.7 2.15,0.92 0.73,0.25 1.43,0.37 2.21,0.5 0.96,0.15 1.79,0.38 2.52,0.69 0.68,0.28 1.27,0.61 1.84,0.92l0.46 0.26c1.35,0.74 2.49,1.29 3.7,1.79 1.75,0.72 3.09,1.23 3.58,1.42 -0.1,0.75 -0.2,1.51 -0.3,2.27zm-3.07 -4.2c-1.19,-0.49 -2.32,-1.03 -3.65,-1.77l-0.46 -0.25c-0.58,-0.32 -1.18,-0.65 -1.89,-0.94 -0.77,-0.33 -1.64,-0.57 -2.64,-0.73 -0.76,-0.12 -1.44,-0.24 -2.13,-0.48 -0.63,-0.21 -1.38,-0.52 -2.08,-0.88 -0.46,-0.24 -0.95,-0.53 -1.41,-0.82 -0.85,-0.52 -1.73,-1.05 -2.56,-1.29 -1.27,-0.42 -2.29,-0.52 -2.95,-0.54 -0.7,-0.03 -1.08,0.01 -1.08,0.01l0.03 0.55c0,0 0.37,0.01 1.01,0.12 0.64,0.11 1.62,0.32 2.74,0.85 0.67,0.28 1.33,0.79 2.08,1.38 0.47,0.37 0.95,0.74 1.51,1.12 0.76,0.51 1.5,0.94 2.31,1.34 0.84,0.42 1.73,0.71 2.51,0.96 1.4,0.41 2.36,1.05 3.69,1.92l0.25 0.18c1.12,0.75 2.71,1.77 4.04,2.35 2.3,1.09 3.85,1.76 3.87,1.77l0.33 0.14 0.05 -0.36c0.11,-0.95 0.24,-1.9 0.37,-2.85l0.03 -0.21 -0.21 -0.08c-0.01,0 -1.55,-0.57 -3.76,-1.49z"/>
  <path class="fil5" d="M164.05 297.52c-1.49,-0.76 -2.97,-1.7 -4.17,-2.15 -1.18,-0.44 -1.95,-0.53 -1.95,-0.53 0,0 0.79,0.18 1.92,0.7 1.14,0.54 2.54,1.58 4.02,2.49 1.55,0.97 3.04,1.52 4.18,2.13 1.13,0.55 1.89,0.92 1.89,0.92l0.21 -1.1c0,0 -0.77,-0.29 -1.92,-0.74 -1.13,-0.49 -2.76,-0.97 -4.18,-1.72z"/>
  <path class="fil3" d="M209.33 332.34c-0.87,-0.82 -1.41,-2.07 -2.38,-3.43 -0.5,-0.69 -1.01,-1.31 -1.64,-1.96 -0.62,-0.64 -1.35,-1.23 -2,-1.72 -1.32,-0.97 -2.02,-1.95 -3.05,-3.28 -0.92,-1.24 -2.03,-2.57 -2.99,-3.45 -1.88,-1.81 -3.15,-2.94 -3.15,-2.94 -0.53,0.71 -1.05,1.42 -1.58,2.14 0,0 1.31,1.06 3.16,2.68 0.93,0.81 1.82,1.67 2.9,2.87 0.53,0.58 1.07,1.22 1.78,1.87 0.72,0.65 1.53,1.17 2.24,1.58 0.71,0.41 1.33,0.77 1.92,1.24 0.57,0.46 1.16,1.03 1.65,1.55 0.98,1.05 1.81,2.42 2.87,3.21 0.99,0.8 1.89,1.26 2.51,1.55 0.63,0.28 0.99,0.39 0.99,0.39 0,0 -0.35,-0.16 -0.95,-0.52 -0.59,-0.36 -1.44,-0.92 -2.28,-1.78z"/>
  <path class="fil4" d="M207.43 330.56c-0.33,-0.43 -0.68,-0.86 -1.04,-1.25 -0.52,-0.58 -1.14,-1.15 -1.69,-1.58 -0.61,-0.49 -1.24,-0.86 -1.94,-1.27 -0.89,-0.51 -1.61,-1.01 -2.19,-1.54 -0.53,-0.48 -0.95,-0.95 -1.37,-1.41l-0.41 -0.44c-1,-1.13 -1.91,-2.02 -2.91,-2.9 -1.41,-1.24 -2.53,-2.16 -2.96,-2.52 0.41,-0.56 0.82,-1.13 1.24,-1.69 0.45,0.4 1.52,1.39 2.93,2.74 0.83,0.77 1.88,1.98 2.96,3.41l0.21 0.28c0.91,1.19 1.63,2.14 2.88,3.05 0.67,0.52 1.38,1.08 1.98,1.7 0.6,0.63 1.1,1.22 1.61,1.92 0.37,0.51 0.66,1 0.95,1.48 0.31,0.51 0.6,0.98 0.91,1.39 -0.39,-0.41 -0.77,-0.88 -1.16,-1.37zm2.09 1.59c-0.52,-0.49 -0.91,-1.14 -1.37,-1.9 -0.29,-0.48 -0.6,-0.98 -0.98,-1.5 -0.53,-0.73 -1.04,-1.34 -1.66,-1.99 -0.62,-0.64 -1.35,-1.22 -2.04,-1.75 -1.2,-0.88 -1.86,-1.74 -2.77,-2.95l-0.21 -0.28c-0.64,-0.85 -1.88,-2.42 -3.03,-3.48 -1.86,-1.79 -3.14,-2.93 -3.16,-2.94l-0.22 -0.2 -0.18 0.24c-0.52,0.71 -1.05,1.42 -1.57,2.13l-0.16 0.21 0.2 0.17c0.01,0.01 1.33,1.08 3.16,2.67 0.98,0.86 1.87,1.75 2.86,2.86l0.41 0.44c0.42,0.46 0.86,0.94 1.4,1.43 0.61,0.57 1.36,1.09 2.28,1.63 0.69,0.39 1.31,0.75 1.89,1.21 0.52,0.42 1.11,0.97 1.62,1.53l1.02 1.21c0.58,0.74 1.18,1.5 1.87,2.02 1.03,0.83 1.97,1.3 2.58,1.58 0.64,0.3 1.01,0.4 1.03,0.41l0.19 -0.51c-0.01,0 -0.36,-0.16 -0.93,-0.5 -0.55,-0.34 -1.39,-0.89 -2.23,-1.74z"/>
  <path class="fil5" d="M198.46 321.07c-1.13,-1.39 -2.38,-2.43 -3.28,-3.36 -0.91,-0.89 -1.51,-1.48 -1.51,-1.48l-0.67 0.8c0,0 0.64,0.54 1.62,1.35 0.92,0.84 2.35,1.86 3.45,3.03 1.16,1.19 2.22,2.53 3.2,3.35 0.98,0.82 1.69,1.2 1.69,1.2 0,0 -0.7,-0.46 -1.59,-1.32 -0.88,-0.87 -1.82,-2.26 -2.91,-3.57z"/>
  <path class="fil3" d="M166.28 290.05c-0.59,-0.58 -1.18,-1.22 -1.95,-1.87 -0.79,-0.65 -1.67,-1.18 -2.44,-1.59 -0.77,-0.41 -1.44,-0.78 -2.09,-1.24 -0.63,-0.45 -1.29,-1.02 -1.84,-1.55 -1.1,-1.05 -2.08,-2.42 -3.26,-3.21 -1.13,-0.81 -2.13,-1.26 -2.83,-1.55 -0.69,-0.28 -1.09,-0.39 -1.09,-0.39 0,0 0.39,0.15 1.07,0.51 0.66,0.37 1.61,0.93 2.58,1.78 0.98,0.83 1.64,2.08 2.75,3.44 0.58,0.69 1.15,1.3 1.85,1.96 0.7,0.65 1.5,1.22 2.21,1.73 1.44,0.96 2.22,1.95 3.34,3.28 1.02,1.23 2.22,2.56 3.25,3.44 2,1.81 3.33,2.95 3.33,2.95 0.53,-0.72 1.05,-1.43 1.57,-2.14 0,0 -1.37,-1.06 -3.34,-2.68 -0.98,-0.81 -1.94,-1.68 -3.11,-2.87z"/>
  <path class="fil4" d="M171.12 297.34c-0.46,-0.4 -1.61,-1.39 -3.11,-2.75 -0.88,-0.76 -2.03,-1.97 -3.22,-3.42l-0.21 -0.25c-1.01,-1.21 -1.81,-2.16 -3.18,-3.08 -0.7,-0.49 -1.51,-1.07 -2.18,-1.7 -0.67,-0.62 -1.25,-1.24 -1.83,-1.93 -0.41,-0.51 -0.76,-0.99 -1.09,-1.46 -0.38,-0.53 -0.72,-1 -1.09,-1.42 0.48,0.43 0.95,0.94 1.39,1.44l1.17 1.23c0.61,0.58 1.28,1.14 1.88,1.57 0.64,0.47 1.31,0.83 2.12,1.27 0.96,0.5 1.74,1.01 2.38,1.55 0.58,0.48 1.05,0.96 1.51,1.42l0.42 0.42c1.11,1.13 2.07,2.02 3.14,2.9 1.51,1.24 2.68,2.17 3.13,2.52l-1.23 1.69zm-1.56 -4.63c-1.04,-0.87 -2,-1.75 -3.09,-2.86l-0.42 -0.42c-0.47,-0.47 -0.95,-0.96 -1.55,-1.46 -0.67,-0.56 -1.48,-1.09 -2.48,-1.62 -0.78,-0.41 -1.43,-0.77 -2.06,-1.22 -0.58,-0.42 -1.22,-0.96 -1.82,-1.52l-1.13 -1.21c-0.67,-0.74 -1.37,-1.51 -2.15,-2.03 -1.16,-0.82 -2.19,-1.3 -2.88,-1.58 -0.71,-0.29 -1.11,-0.4 -1.13,-0.4l-0.17 0.51c0,0 0.39,0.16 1.04,0.5 0.61,0.34 1.55,0.89 2.53,1.75 0.59,0.49 1.06,1.15 1.6,1.91 0.34,0.48 0.7,0.97 1.13,1.5 0.58,0.71 1.18,1.34 1.87,1.98 0.7,0.65 1.52,1.24 2.24,1.75 1.31,0.88 2.05,1.76 3.08,2.98l0.2 0.25c1.21,1.47 2.38,2.7 3.28,3.48 1.97,1.78 3.32,2.93 3.33,2.94l0.23 0.19 1.9 -2.58 -0.21 -0.16c-0.01,-0.01 -1.39,-1.08 -3.34,-2.68z"/>
  <path class="fil5" d="M166.9 291.89c-1.26,-1.2 -2.42,-2.53 -3.49,-3.36 -1.07,-0.82 -1.83,-1.2 -1.83,-1.2 0,0 0.76,0.46 1.73,1.32 0.97,0.88 2,2.26 3.19,3.58 1.22,1.38 2.56,2.42 3.51,3.35 0.96,0.89 1.6,1.48 1.6,1.48l0.67 -0.79c0,0 -0.68,-0.54 -1.7,-1.36 -0.99,-0.83 -2.5,-1.86 -3.68,-3.02z"/>
  <path class="fil3" d="M201.98 340.83c-0.47,-0.54 -1.12,-1.37 -1.67,-2.42 -0.59,-1.05 -0.67,-2.3 -1.16,-3.82 -0.26,-0.77 -0.55,-1.49 -0.95,-2.28 -0.39,-0.79 -0.93,-1.57 -1.41,-2.25 -0.99,-1.33 -1.34,-2.43 -1.89,-3.93 -0.48,-1.39 -1.11,-2.92 -1.76,-4.03 -1.24,-2.24 -2.11,-3.67 -2.11,-3.67 -0.82,0.36 -1.64,0.72 -2.46,1.09 0,0 0.94,1.39 2.24,3.46 0.64,1.04 1.23,2.11 1.88,3.53 0.34,0.69 0.66,1.43 1.14,2.25 0.49,0.84 1.13,1.6 1.71,2.22 0.57,0.63 1.07,1.19 1.5,1.81 0.42,0.61 0.81,1.32 1.12,1.96 0.61,1.27 0.95,2.74 1.74,3.83 0.72,1.09 1.47,1.84 2,2.34 0.54,0.5 0.86,0.74 0.86,0.74 0,0 -0.3,-0.28 -0.78,-0.83z"/>
  <path class="fil4" d="M199 336.09c-0.18,-0.48 -0.37,-0.98 -0.6,-1.46 -0.33,-0.7 -0.74,-1.41 -1.14,-1.99 -0.43,-0.63 -0.92,-1.18 -1.52,-1.84 -0.72,-0.78 -1.27,-1.49 -1.67,-2.17 -0.36,-0.62 -0.63,-1.18 -0.89,-1.73l-0.24 -0.51c-0.62,-1.34 -1.21,-2.43 -1.91,-3.55 -0.95,-1.53 -1.72,-2.7 -2.06,-3.2l1.95 -0.87c0.28,0.48 1.03,1.74 1.99,3.47 0.56,0.95 1.18,2.37 1.74,3.98l0.11 0.3c0.48,1.36 0.87,2.43 1.81,3.7 0.49,0.7 1.01,1.46 1.39,2.21 0.37,0.74 0.66,1.44 0.93,2.24 0.18,0.57 0.31,1.1 0.43,1.6 0.13,0.56 0.25,1.07 0.42,1.54 -0.28,-0.52 -0.5,-1.11 -0.74,-1.72zm3.19 4.56c-0.69,-0.8 -1.23,-1.57 -1.64,-2.38 -0.35,-0.61 -0.51,-1.31 -0.7,-2.12 -0.12,-0.52 -0.25,-1.06 -0.44,-1.65 -0.28,-0.83 -0.58,-1.55 -0.97,-2.32 -0.39,-0.78 -0.92,-1.55 -1.43,-2.28 -0.9,-1.21 -1.25,-2.2 -1.74,-3.56l-0.11 -0.3c-0.32,-0.95 -1,-2.75 -1.78,-4.07 -1.23,-2.22 -2.11,-3.67 -2.12,-3.69l-0.12 -0.2 -2.98 1.32 0.18 0.27c0.01,0.01 0.95,1.41 2.23,3.46 0.68,1.09 1.27,2.17 1.88,3.49l0.24 0.51c0.26,0.56 0.53,1.14 0.91,1.78 0.42,0.71 0.99,1.46 1.74,2.25 0.58,0.65 1.06,1.19 1.48,1.79 0.38,0.55 0.77,1.24 1.09,1.92 0.22,0.45 0.4,0.95 0.59,1.42 0.32,0.85 0.65,1.73 1.18,2.44 0.74,1.13 1.52,1.9 2.03,2.39 0.54,0.5 0.88,0.75 0.89,0.76l0.35 -0.42c0,0 -0.3,-0.28 -0.76,-0.81z"/>
  <path class="fil5" d="M193.38 324.68c-0.63,-1.59 -1.53,-2.95 -2.09,-4.08 -0.59,-1.09 -0.99,-1.82 -0.99,-1.82l-1.01 0.38c0,0 0.47,0.7 1.16,1.76 0.63,1.06 1.71,2.47 2.4,3.87 0.74,1.45 1.33,2.97 2.02,4.05 0.7,1.07 1.29,1.68 1.29,1.68 0,0 -0.55,-0.66 -1.14,-1.74 -0.57,-1.07 -1.01,-2.59 -1.64,-4.1z"/>
  <path class="fil3" d="M172.4 286.79c-0.37,-0.69 -0.72,-1.44 -1.25,-2.26 -0.54,-0.83 -1.24,-1.59 -1.87,-2.22 -0.64,-0.63 -1.18,-1.18 -1.66,-1.81 -0.47,-0.61 -0.92,-1.32 -1.27,-1.95 -0.7,-1.28 -1.12,-2.75 -2.02,-3.84 -0.83,-1.08 -1.68,-1.83 -2.28,-2.34 -0.61,-0.5 -0.98,-0.73 -0.98,-0.73 0,0 0.35,0.27 0.89,0.82 0.54,0.55 1.29,1.37 1.92,2.43 0.68,1.04 0.82,2.29 1.4,3.82 0.31,0.77 0.65,1.48 1.1,2.28 0.45,0.79 1.05,1.56 1.58,2.24 1.09,1.34 1.5,2.43 2.11,3.94 0.54,1.38 1.24,2.92 1.95,4.03 1.33,2.23 2.26,3.67 2.26,3.67 0.84,-0.36 1.69,-0.72 2.54,-1.09 0,0 -1,-1.39 -2.38,-3.47 -0.69,-1.03 -1.33,-2.1 -2.04,-3.52z"/>
  <path class="fil4" d="M174.39 294.53c-0.3,-0.46 -1.1,-1.73 -2.14,-3.48 -0.61,-0.95 -1.29,-2.37 -1.93,-3.99l-0.13 -0.31c-0.55,-1.35 -0.98,-2.42 -2.02,-3.68 -0.55,-0.71 -1.12,-1.46 -1.55,-2.21 -0.43,-0.75 -0.76,-1.45 -1.09,-2.25 -0.21,-0.57 -0.36,-1.09 -0.51,-1.6 -0.18,-0.63 -0.35,-1.19 -0.6,-1.71 0.39,0.57 0.69,1.24 1,1.93 0.21,0.48 0.44,0.98 0.69,1.45 0.39,0.71 0.85,1.42 1.29,1.99 0.49,0.64 1.03,1.18 1.68,1.84 0.79,0.78 1.39,1.49 1.84,2.17 0.39,0.61 0.68,1.17 0.96,1.71l0.27 0.52c0.66,1.31 1.3,2.41 2.06,3.55 1.02,1.53 1.83,2.7 2.19,3.2l-2.01 0.87zm0.28 -4.37c-0.75,-1.13 -1.38,-2.21 -2.03,-3.5l-0.28 -0.52c-0.28,-0.55 -0.58,-1.13 -0.99,-1.76 -0.47,-0.71 -1.09,-1.45 -1.9,-2.26 -0.64,-0.64 -1.17,-1.18 -1.64,-1.79 -0.42,-0.55 -0.86,-1.23 -1.24,-1.92 -0.25,-0.44 -0.47,-0.93 -0.67,-1.4 -0.39,-0.86 -0.78,-1.75 -1.37,-2.46 -0.86,-1.11 -1.74,-1.9 -2.33,-2.39 -0.61,-0.5 -0.99,-0.74 -1.01,-0.75l-0.32 0.44c0,0 0.35,0.28 0.88,0.8 0.5,0.52 1.25,1.32 1.89,2.38 0.4,0.62 0.6,1.32 0.84,2.13 0.15,0.52 0.3,1.06 0.53,1.64 0.33,0.84 0.67,1.55 1.11,2.33 0.45,0.78 1.04,1.55 1.61,2.28 0.98,1.2 1.39,2.18 1.94,3.55l0.12 0.3c0.38,0.96 1.13,2.75 1.97,4.08 1.33,2.21 2.27,3.67 2.28,3.68l0.12 0.2 3.05 -1.33 -0.19 -0.27c-0.02,-0.02 -1.01,-1.41 -2.37,-3.46z"/>
  <path class="fil5" d="M172.27 288.51c-0.82,-1.45 -1.47,-2.98 -2.23,-4.06 -0.77,-1.07 -1.42,-1.67 -1.42,-1.67 0,0 0.61,0.66 1.26,1.73 0.64,1.08 1.13,2.6 1.83,4.11 0.69,1.59 1.66,2.95 2.26,4.07 0.64,1.09 1.06,1.82 1.06,1.82l1.04 -0.37c0,0 -0.49,-0.71 -1.22,-1.76 -0.69,-1.06 -1.84,-2.47 -2.58,-3.87z"/>
  <path class="fil3" d="M188.83 339.57c-0.23,-1.1 0.14,-2.15 0.2,-3.6 0.02,-0.73 -0.02,-1.44 -0.14,-2.26 -0.12,-0.8 -0.38,-1.66 -0.62,-2.4 -0.53,-1.5 -0.49,-2.53 -0.48,-3.98 0.02,-1.33 -0.04,-2.83 -0.3,-4 -0.42,-2.32 -0.78,-3.84 -0.78,-3.84 -0.99,-0.03 -1.98,-0.07 -2.98,-0.11 0,0 0.45,1.51 1,3.71 0.27,1.11 0.48,2.22 0.62,3.64 0.09,0.69 0.13,1.43 0.33,2.3 0.2,0.87 0.58,1.76 0.94,2.5 0.36,0.75 0.67,1.41 0.88,2.1 0.21,0.67 0.36,1.41 0.44,2.06 0.16,1.29 -0.02,2.63 0.4,3.85 0.35,1.18 0.86,2.12 1.22,2.75 0.37,0.63 0.63,0.97 0.63,0.97 0,0 -0.22,-0.36 -0.51,-1.01 -0.29,-0.64 -0.67,-1.59 -0.85,-2.68z"/>
  <path class="fil4" d="M188.61 337.43c-0.08,0.57 -0.15,1.13 -0.12,1.68 -0.15,-0.64 -0.18,-1.31 -0.19,-2.01 -0.02,-0.47 -0.03,-0.97 -0.09,-1.45 -0.09,-0.69 -0.25,-1.46 -0.45,-2.1 -0.21,-0.69 -0.51,-1.35 -0.89,-2.14 -0.46,-0.93 -0.76,-1.73 -0.93,-2.44 -0.14,-0.64 -0.2,-1.2 -0.26,-1.75l-0.06 -0.52c-0.13,-1.33 -0.33,-2.46 -0.63,-3.67 -0.39,-1.56 -0.73,-2.79 -0.89,-3.36l2.4 0.09c0.11,0.48 0.4,1.82 0.73,3.63 0.21,1 0.32,2.4 0.29,3.94l0 0.27c-0.02,1.32 -0.02,2.35 0.49,3.79 0.23,0.72 0.49,1.57 0.61,2.37 0.11,0.77 0.15,1.45 0.13,2.2 -0.02,0.54 -0.08,1.01 -0.14,1.47zm0.49 2.09c-0.13,-0.64 -0.05,-1.28 0.05,-2.02 0.07,-0.47 0.13,-0.96 0.15,-1.52 0.02,-0.79 -0.02,-1.5 -0.14,-2.3 -0.12,-0.83 -0.39,-1.72 -0.64,-2.47 -0.48,-1.34 -0.47,-2.29 -0.46,-3.6l0.01 -0.27c0.02,-1.59 -0.09,-3.03 -0.31,-4.06 -0.42,-2.3 -0.77,-3.83 -0.78,-3.85l-0.05 -0.2 -3.56 -0.14 0.1 0.37c0.01,0.01 0.45,1.53 0.99,3.7 0.29,1.18 0.49,2.29 0.62,3.6l0.06 0.52c0.06,0.56 0.12,1.14 0.27,1.81 0.17,0.74 0.49,1.58 0.96,2.56 0.39,0.79 0.67,1.41 0.87,2.06 0.19,0.61 0.35,1.34 0.43,2.01 0.05,0.46 0.07,0.94 0.08,1.4 0.03,0.83 0.05,1.69 0.33,2.5 0.35,1.17 0.85,2.12 1.25,2.81 0.37,0.64 0.63,0.98 0.64,0.99l0.45 -0.3c0,0 -0.21,-0.36 -0.49,-0.98 -0.28,-0.61 -0.66,-1.54 -0.83,-2.62z"/>
  <path class="fil5" d="M186.76 325.52c-0.05,-1.55 -0.47,-3.01 -0.61,-4.15 -0.2,-1.13 -0.33,-1.88 -0.33,-1.88l-1.19 -0.11c0,0 0.21,0.76 0.52,1.89 0.25,1.12 0.84,2.71 1.01,4.13 0.22,1.48 0.26,2.96 0.57,4.12 0.32,1.16 0.71,1.89 0.71,1.89 0,0 -0.32,-0.76 -0.52,-1.88 -0.21,-1.11 -0.08,-2.52 -0.16,-4.01z"/>
  <path class="fil3" d="M180.16 286.57c-0.09,-0.7 -0.13,-1.43 -0.34,-2.29 -0.21,-0.88 -0.61,-1.76 -1,-2.51 -0.38,-0.75 -0.71,-1.41 -0.94,-2.1 -0.22,-0.66 -0.39,-1.41 -0.47,-2.06 -0.18,-1.29 0.03,-2.63 -0.43,-3.85 -0.39,-1.18 -0.94,-2.11 -1.35,-2.75 -0.41,-0.63 -0.69,-0.96 -0.69,-0.96 0,0 0.24,0.35 0.56,1 0.32,0.65 0.74,1.59 0.94,2.68 0.25,1.1 -0.15,2.15 -0.22,3.6 -0.01,0.73 0.03,1.44 0.16,2.25 0.13,0.81 0.41,1.66 0.68,2.41 0.56,1.5 0.52,2.53 0.52,3.98 -0.03,1.33 0.06,2.82 0.32,4 0.46,2.31 0.83,3.83 0.83,3.83 1.04,0.04 2.07,0.08 3.1,0.12 0,0 -0.46,-1.51 -1.03,-3.72 -0.28,-1.1 -0.49,-2.21 -0.64,-3.63z"/>
  <path class="fil4" d="M178.95 293.54c-0.11,-0.48 -0.42,-1.82 -0.78,-3.64 -0.23,-0.99 -0.35,-2.39 -0.32,-3.93l0 -0.3c0.01,-1.31 0.01,-2.34 -0.53,-3.76 -0.26,-0.74 -0.54,-1.58 -0.67,-2.37 -0.12,-0.76 -0.17,-1.44 -0.15,-2.2 0.02,-0.54 0.09,-1.02 0.15,-1.48 0.1,-0.66 0.19,-1.28 0.11,-1.91 0.24,0.71 0.26,1.46 0.29,2.25 0.01,0.48 0.02,0.97 0.09,1.45 0.1,0.72 0.27,1.47 0.48,2.11 0.24,0.71 0.57,1.39 0.96,2.14 0.48,0.9 0.8,1.72 0.98,2.44 0.14,0.63 0.21,1.18 0.26,1.72l0.08 0.54c0.13,1.31 0.33,2.44 0.64,3.67 0.4,1.56 0.75,2.79 0.92,3.37l-2.51 -0.1zm2.12 -3.4c-0.31,-1.21 -0.51,-2.31 -0.64,-3.6l-0.06 -0.54c-0.06,-0.56 -0.13,-1.13 -0.28,-1.79 -0.19,-0.76 -0.53,-1.62 -1.03,-2.57 -0.37,-0.72 -0.7,-1.38 -0.92,-2.05 -0.2,-0.61 -0.37,-1.32 -0.46,-2.01 -0.06,-0.45 -0.08,-0.94 -0.09,-1.39 -0.02,-0.84 -0.05,-1.71 -0.35,-2.51 -0.4,-1.22 -0.98,-2.19 -1.38,-2.81 -0.42,-0.64 -0.7,-0.99 -0.71,-1l-0.44 0.33c0,0 0.24,0.35 0.54,0.97 0.31,0.6 0.72,1.53 0.93,2.62 0.14,0.63 0.04,1.26 -0.06,1.99 -0.07,0.45 -0.14,0.97 -0.17,1.55 -0.01,0.78 0.04,1.51 0.16,2.3 0.13,0.83 0.43,1.7 0.69,2.46 0.51,1.34 0.51,2.28 0.51,3.58l0 0.29c-0.02,0.92 0.01,2.66 0.33,4.06 0.45,2.3 0.83,3.84 0.83,3.85l0.08 0.2 3.66 0.14 -0.12 -0.37c-0.01,-0.01 -0.46,-1.53 -1.02,-3.7z"/>
  <path class="fil5" d="M179.3 287.9c-0.24,-1.48 -0.27,-2.96 -0.6,-4.12 -0.34,-1.16 -0.75,-1.89 -0.75,-1.89 0,0 0.34,0.76 0.56,1.88 0.21,1.11 0.08,2.52 0.16,4.01 0.06,1.54 0.49,3.02 0.65,4.15 0.21,1.13 0.35,1.88 0.35,1.88l1.23 0.11c0,0 -0.22,-0.76 -0.54,-1.9 -0.27,-1.11 -0.87,-2.7 -1.06,-4.12z"/>
  <path class="fil3" d="M182.73 293.82c-7.54,-2.18 -13.59,1.8 -13.48,8.84 0.12,7.05 6.17,14.49 13.45,16.67 7.25,2.16 13.18,-1.81 13.3,-8.85 0.14,-7.04 -5.77,-14.49 -13.27,-16.66z"/>
  <path class="fil4" d="M186.57 319.65c-1.23,0 -2.5,-0.2 -3.79,-0.58 -7.19,-2.15 -13.14,-9.51 -13.26,-16.41 -0.04,-2.64 0.8,-4.91 2.42,-6.56 1.65,-1.68 4.07,-2.61 6.79,-2.61 1.26,0 2.58,0.2 3.92,0.59 7.36,2.13 13.22,9.48 13.08,16.39 -0.09,5.49 -3.78,9.18 -9.16,9.18zm-3.76 -26.1c-4.44,-1.27 -8.7,-0.44 -11.26,2.17 -1.73,1.75 -2.62,4.16 -2.57,6.95 0.12,7.12 6.25,14.71 13.65,16.92 1.34,0.4 2.66,0.6 3.94,0.6 5.61,0 9.61,-3.99 9.71,-9.71 0.14,-7.14 -5.9,-14.73 -13.47,-16.93z"/>
  <path class="fil4" d="M189.19 303.93l-0.64 -0.4 -0.73 -0.32c-0.53,-0.17 -1.02,-0.24 -1.51,-0.24 -0.48,0 -0.94,0.07 -1.36,0.18l-0.62 0.19 -0.27 0.11 -0.09 0.04 -0.11 0.08 -0.11 0.13 -0.44 1.07 -0.18 1.09 0.05 1.06c0.12,0.68 0.42,1.24 0.66,1.62l0.43 0.57 0.06 -0.04 -0.37 -0.56c-0.2,-0.37 -0.43,-0.92 -0.47,-1.53l0.05 -0.96 0.26 -0.99 0.48 -0.92 0.08 -0.07 0.01 -0.01 0.05 -0.02 0.29 -0.09 0.59 -0.13c0.4,-0.07 0.82,-0.1 1.24,-0.05l1.21 0.25 0.56 0.24 0.55 0.3 1 0.66 0.85 0.62 0.64 0.51 0.56 0.46 0.06 -0.04c0,0 -0.55,-0.87 -1.74,-1.98l-1.04 -0.83z"/>
  <polygon class="fil4" points="184.68,309.23 184.61,309.23 185.02,309.78 184.48,310.1 183.99,309.59 183.95,309.69 184.67,310.51 185.4,310.08 "/>
  <polygon class="fil4" points="180.94,309.06 180.4,308.43 180.8,308.11 180.74,308.08 180.02,308.5 180.74,309.35 181.47,308.96 181.44,308.84 "/>
  <path class="fil4" d="M182.69 309.78c-0.6,-0.18 -1.08,-0.53 -1.23,-0.86l-0.06 0.14c0,0.37 0.59,0.84 1.32,1.05 0.73,0.21 1.31,0.09 1.31,-0.27l-0.04 -0.25c-0.11,0.29 -0.66,0.38 -1.3,0.19z"/>
  <polygon class="fil4" points="182.78,311.52 182.77,311.51 182.63,311.42 182.48,311.43 "/>
  <path class="fil4" d="M182.63 311.42l0.14 0.09 0.01 0.01 -0.3 -0.09 0.15 -0.01c-0.6,-0.45 -1.35,-0.89 -1.98,-0.72 -0.62,0.14 -1.12,0.43 -1.6,0.75 0.53,-0.24 1.1,-0.44 1.71,-0.48 0.59,-0.07 1.21,0.43 1.72,0.9l0 0 0.17 0.13 0.13 -0.04c0.51,-0.16 1.12,-0.33 1.69,0.13 0.6,0.42 1.18,0.94 1.73,1.47 -0.5,-0.58 -1.01,-1.16 -1.61,-1.67 -0.61,-0.58 -1.36,-0.56 -1.96,-0.47z"/>
  <path class="fil4" d="M182.65 313.49c-0.91,-0.22 -1.71,-0.94 -2.35,-1.49 -0.77,-0.54 -1.24,-0.49 -1.25,-0.55 0,0 0.51,0.36 1.06,0.81 0.56,0.53 1.46,1.44 2.54,1.75 1.1,0.33 1.96,-0.16 2.47,-0.39 0.54,-0.2 1.08,-0.06 1.08,-0.06 0.01,0.05 -0.49,-0.38 -1.26,-0.3 -0.64,0.23 -1.37,0.56 -2.29,0.23z"/>
  <path class="fil4" d="M182.63 313.86c-1.11,-0.32 -2,0.2 -1.99,1.18l0.02 0.08c0.13,-0.83 0.94,-1.27 1.97,-0.97 1.03,0.31 1.84,1.23 1.98,2.14l0.01 -0.07c0,-0.98 -0.89,-2.03 -1.99,-2.36z"/>
  <path class="fil4" d="M187.72 304.8c-1.03,-0.4 -1.78,0.08 -2.36,0.1 -0.56,0.12 -1.02,0.03 -1.02,0.03 0,0 0.46,0.36 1.16,0.34 0.65,-0.04 1.37,-0.48 2.2,-0.13 1.78,0.55 3.19,2.04 3.19,2.04 0,0 -0.14,-0.5 -0.74,-1.06 -0.6,-0.52 -1.51,-1.03 -2.43,-1.32z"/>
  <path class="fil4" d="M189.83 308.22c-0.5,0.05 -1.19,-0.01 -1.92,-0.23 -0.71,-0.2 -1.41,-0.58 -1.87,-0.94 -0.48,-0.34 -0.83,-0.61 -0.83,-0.61 0,0 0.15,0.42 0.66,0.87 0.51,0.41 1.27,0.82 2.04,1.04 0.75,0.22 1.52,0.29 2.05,0.24 0.53,-0.09 0.74,-0.37 0.74,-0.37 0,0 -0.37,0.01 -0.87,0z"/>
  <path class="fil4" d="M187.94 305.67c-1.4,-0.41 -2.54,0.27 -2.54,0.27 0,0 1.13,1.22 2.52,1.63 1.39,0.41 2.53,-0.15 2.53,-0.15 0,0 -1.11,-1.34 -2.51,-1.75z"/>
  <path class="fil3" d="M187.9 305.86c-1,-0.29 -1.87,0.26 -1.87,0.26 0,0 1.03,1.02 2.03,1.32 1.01,0.3 1.83,-0.19 1.83,-0.19 0,0 -0.98,-1.09 -1.99,-1.39z"/>
  <path class="fil4" d="M187.97 305.83c-0.57,-0.17 -1.04,0.06 -1.04,0.51 0,0.44 0.46,0.94 1.03,1.11 0.57,0.17 1.03,-0.06 1.04,-0.51 0,-0.45 -0.46,-0.94 -1.03,-1.11z"/>
  <path class="fil4" d="M181.48 303.04l-0.11 -0.2 -0.11 -0.14 -0.09 -0.09 -0.27 -0.27 -0.62 -0.56c-0.43,-0.35 -0.88,-0.69 -1.37,-0.97 -0.49,-0.28 -0.98,-0.49 -1.52,-0.64l-0.73 -0.1 -0.65 0.02 -1.05 0.23c-1.21,0.4 -1.77,0.94 -1.77,0.94l0.06 0.07 0.57 -0.12 0.65 -0.13 0.85 -0.13 1.02 -0.07 0.55 0.02 0.57 0.1 1.22 0.45c0.43,0.2 0.84,0.47 1.24,0.77l0.59 0.47 0.29 0.26 0.06 0.05 0.01 0.01 0.07 0.12 0.48 1.2 0.26 1.14 0.05 0.99c-0.05,0.59 -0.28,1 -0.48,1.25l-0.36 0.35 0.06 0.08 0.43 -0.32c0.24,-0.23 0.54,-0.63 0.66,-1.24l0.05 -1.02c-0.02,-0.37 -0.08,-0.77 -0.17,-1.2 -0.1,-0.42 -0.22,-0.85 -0.44,-1.32z"/>
  <path class="fil4" d="M177.49 301.81c-0.93,-0.25 -1.86,-0.27 -2.47,-0.1 -0.6,0.2 -0.75,0.62 -0.75,0.62 0,0 1.43,-0.67 3.24,-0.16 0.84,0.13 1.56,0.98 2.22,1.41 0.7,0.44 1.17,0.35 1.17,0.35 0,0 -0.47,-0.19 -1.03,-0.63 -0.59,-0.36 -1.34,-1.29 -2.38,-1.49z"/>
  <path class="fil4" d="M177.29 304.89c-0.74,-0.21 -1.44,-0.56 -1.94,-0.9 -0.52,-0.28 -0.89,-0.51 -0.89,-0.51 0,0 0.22,0.4 0.75,0.8 0.54,0.36 1.32,0.74 2.07,0.96 0.78,0.23 1.55,0.27 2.07,0.16 0.51,-0.14 0.66,-0.47 0.66,-0.47 0,0 -0.35,0.06 -0.83,0.11 -0.47,0.1 -1.18,0.06 -1.89,-0.15z"/>
  <path class="fil4" d="M177.27 302.56c-1.42,-0.41 -2.56,0.26 -2.56,0.26 0,0 1.16,1.23 2.57,1.64 1.4,0.41 2.54,-0.15 2.54,-0.15 0,0 -1.15,-1.34 -2.55,-1.75z"/>
  <path class="fil3" d="M177.3 302.76c-1.02,-0.29 -2.01,0.23 -2.01,0.23 0,0 0.83,0.96 1.84,1.26 1.02,0.29 2.06,-0.13 2.06,-0.13 0,0 -0.88,-1.06 -1.89,-1.36z"/>
  <path class="fil4" d="M177.23 302.69c-0.58,-0.17 -1.05,0.06 -1.04,0.51 0,0.45 0.47,0.95 1.05,1.12 0.58,0.16 1.04,-0.06 1.04,-0.51 0,-0.45 -0.47,-0.95 -1.05,-1.12z"/>
  <path class="fil4" d="M183.92 312.48c-0.42,-0.19 -0.99,-0.16 -1.29,-0.26 -0.32,-0.1 -0.86,-0.42 -1.3,-0.52 -0.46,-0.08 -0.82,-0.09 -1.17,-0.14 -0.67,-0.07 -1.11,-0.11 -1.11,-0.11 0,0 0.45,0.11 1.13,0.29l1.14 0.31c0.42,0.14 0.73,0.44 1.31,0.69 0.6,0.08 0.87,-0.05 1.3,0.07l1.14 0.38c0.68,0.22 1.13,0.37 1.13,0.37 0,0 -0.45,-0.21 -1.11,-0.53 -0.34,-0.16 -0.74,-0.35 -1.17,-0.55z"/>
  <polygon class="fil6" points="595.76,409.01 707.95,409.01 707.95,138.24 595.76,138.24 "/>
  <polygon class="fil7" points="707.95,409.01 816.44,409.01 816.44,121.11 707.95,121.11 "/>
  <polygon class="fil8" points="816.43,221.12 907.21,221.12 907.21,121.11 816.43,121.11 "/>
  <polygon class="fil9" points="816.5,235.07 907.82,235.07 907.82,180.9 816.5,180.9 "/>
  <polygon class="fil10" points="807.48,409.01 809.68,409.01 809.68,122.89 807.48,122.89 "/>
  <polygon class="fil11" points="816.5,336.93 907.82,336.93 907.82,234.79 816.5,234.79 "/>
  <polygon class="fil12" points="745.25,409.01 907.82,409.01 907.82,336.93 745.25,336.93 "/>
  <polygon class="fil13" points="541.49,409.01 595.76,409.01 595.76,138.24 541.49,207.78 "/>
  <polygon class="fil14" points="528.31,527.7 674.29,527.7 674.29,409.01 528.31,409.01 "/>
  <polygon class="fil15" points="672.26,527.7 950.44,527.7 950.44,409.01 672.26,409.01 "/>
  <polygon class="fil13" points="907.52,409.01 939.56,409.01 939.56,156.7 906.88,121.11 "/>
  <polygon class="fil16" points="549.74,263.55 566.55,251.68 566.55,198.54 549.74,218.39 "/>
  <polygon class="fil16" points="549.74,366.41 566.55,366.41 566.55,314.98 549.74,321.24 "/>
  <polygon class="fil11" points="607.43,238.47 643.47,238.47 643.47,156.71 607.43,156.71 "/>
  <polygon class="fil8" points="610.51,177.18 624.14,177.18 624.14,159.37 610.51,159.37 "/>
  <polygon class="fil8" points="626.77,177.18 640.4,177.18 640.4,159.37 626.77,159.37 "/>
  <polygon class="fil8" points="610.51,197.25 624.14,197.25 624.14,179.45 610.51,179.45 "/>
  <polygon class="fil8" points="626.77,197.25 640.4,197.25 640.4,179.45 626.77,179.45 "/>
  <polygon class="fil8" points="610.51,217.33 624.14,217.33 624.14,199.53 610.51,199.53 "/>
  <polygon class="fil8" points="626.77,217.33 640.4,217.33 640.4,199.53 626.77,199.53 "/>
  <polygon class="fil11" points="607.43,371.21 643.47,371.21 643.47,289.45 607.43,289.45 "/>
  <polygon class="fil8" points="610.51,310.36 624.14,310.36 624.14,292.56 610.51,292.56 "/>
  <polygon class="fil8" points="626.77,310.36 640.4,310.36 640.4,292.56 626.77,292.56 "/>
  <polygon class="fil8" points="610.51,330.44 624.14,330.44 624.14,312.64 610.51,312.64 "/>
  <polygon class="fil8" points="626.77,330.44 640.4,330.44 640.4,312.64 626.77,312.64 "/>
  <polygon class="fil8" points="610.51,350.52 624.14,350.52 624.14,332.72 610.51,332.72 "/>
  <polygon class="fil8" points="626.77,350.52 640.4,350.52 640.4,332.72 626.77,332.72 "/>
  <polygon class="fil17" points="786.91,188.35 816.5,188.35 816.5,138.24 786.91,138.24 "/>
  <polygon class="fil13" points="790.47,149.12 813.55,149.12 813.55,142.53 790.47,142.53 "/>
  <polygon class="fil13" points="790.47,184.07 813.55,184.07 813.55,152.86 790.47,152.86 "/>
  <polygon class="fil17" points="786.3,336.93 816.5,336.93 816.5,258.68 786.3,258.68 "/>
  <polygon class="fil6" points="789.86,273.63 812.94,273.63 812.94,262.56 789.86,262.56 "/>
  <polygon class="fil6" points="789.86,287.81 812.94,287.81 812.94,276.74 789.86,276.74 "/>
  <polygon class="fil6" points="789.86,301.98 812.94,301.98 812.94,290.91 789.86,290.91 "/>
  <polygon class="fil6" points="789.86,316.15 812.94,316.15 812.94,305.09 789.86,305.09 "/>
  <polygon class="fil6" points="789.86,330.33 812.94,330.33 812.94,319.26 789.86,319.26 "/>
  <polygon class="fil13" points="818.09,229.92 821.06,229.92 821.06,186.07 818.09,186.07 "/>
  <polygon class="fil13" points="825.02,229.92 827.99,229.92 827.99,186.07 825.02,186.07 "/>
  <polygon class="fil13" points="831.94,229.92 834.91,229.92 834.91,186.07 831.94,186.07 "/>
  <polygon class="fil13" points="838.86,229.92 841.83,229.92 841.83,186.07 838.86,186.07 "/>
  <polygon class="fil13" points="845.79,229.92 848.76,229.92 848.76,186.07 845.79,186.07 "/>
  <polygon class="fil13" points="852.71,229.92 855.68,229.92 855.68,186.07 852.71,186.07 "/>
  <polygon class="fil13" points="859.63,229.92 862.6,229.92 862.6,186.07 859.63,186.07 "/>
  <polygon class="fil13" points="866.56,229.92 869.52,229.92 869.52,186.07 866.56,186.07 "/>
  <polygon class="fil13" points="873.48,229.92 876.45,229.92 876.45,186.07 873.48,186.07 "/>
  <polygon class="fil13" points="880.4,229.92 883.37,229.92 883.37,186.07 880.4,186.07 "/>
  <polygon class="fil13" points="887.33,229.92 890.29,229.92 890.29,186.07 887.33,186.07 "/>
  <polygon class="fil13" points="894.25,229.92 897.21,229.92 897.21,186.07 894.25,186.07 "/>
  <polygon class="fil13" points="901.17,229.92 904.14,229.92 904.14,186.07 901.17,186.07 "/>
  <polygon class="fil18" points="816.61,247.73 907.5,247.73 907.5,246.41 816.61,246.41 "/>
  <polygon class="fil18" points="816.61,260 907.5,260 907.5,258.68 816.61,258.68 "/>
  <polygon class="fil18" points="816.61,272.28 907.5,272.28 907.5,270.96 816.61,270.96 "/>
  <polygon class="fil18" points="816.61,284.56 907.5,284.56 907.5,283.24 816.61,283.24 "/>
  <polygon class="fil18" points="816.61,296.83 907.5,296.83 907.5,295.51 816.61,295.51 "/>
  <polygon class="fil18" points="816.61,309.11 907.5,309.11 907.5,307.79 816.61,307.79 "/>
  <polygon class="fil18" points="816.61,321.39 907.5,321.39 907.5,320.07 816.61,320.07 "/>
  <polygon class="fil18" points="816.61,333.66 907.5,333.66 907.5,332.34 816.61,332.34 "/>
  <polygon class="fil18" points="592.48,142.45 707.95,142.45 707.95,122.89 603.7,122.89 "/>
  <polygon class="fil19" points="907.21,107.06 907.5,122.89 942.71,163.3 936.89,138.24 "/>
  <polygon class="fil19" points="537.88,213.44 592.48,142.45 603.7,122.89 549.74,188.35 "/>
  <polygon class="fil7" points="745.25,343.55 907.49,343.55 907.49,341.62 745.25,341.62 "/>
  <polygon class="fil7" points="745.25,350.52 907.49,350.52 907.49,348.59 745.25,348.59 "/>
  <polygon class="fil7" points="745.25,357.49 907.49,357.49 907.49,355.56 745.25,355.56 "/>
  <polygon class="fil7" points="745.25,364.46 907.49,364.46 907.49,362.53 745.25,362.53 "/>
  <polygon class="fil7" points="745.25,371.43 907.49,371.43 907.49,369.5 745.25,369.5 "/>
  <polygon class="fil7" points="745.25,378.41 907.49,378.41 907.49,376.47 745.25,376.47 "/>
  <polygon class="fil7" points="745.25,385.37 907.49,385.37 907.49,383.44 745.25,383.44 "/>
  <polygon class="fil7" points="745.25,392.35 907.49,392.35 907.49,390.41 745.25,390.41 "/>
  <polygon class="fil7" points="745.25,399.32 907.49,399.32 907.49,397.39 745.25,397.39 "/>
  <polygon class="fil7" points="745.25,406.29 907.49,406.29 907.49,404.36 745.25,404.36 "/>
  <polygon class="fil14" points="845.79,495.8 881.88,495.8 881.88,442.39 845.79,442.39 "/>
  <polygon class="fil13" points="851.36,487.56 876.32,487.56 876.32,450.64 851.36,450.64 "/>
  <polygon class="fil6" points="711.21,495.8 747.3,495.8 747.3,442.39 711.21,442.39 "/>
  <polygon class="fil13" points="716.78,487.56 741.74,487.56 741.74,450.64 716.78,450.64 "/>
  <polygon class="fil17" points="540.1,498.44 576.2,498.44 576.2,445.03 540.1,445.03 "/>
  <polygon class="fil13" points="545.67,490.2 570.62,490.2 570.62,453.28 545.67,453.28 "/>
  <polygon class="fil15" points="616.73,481.13 652.83,481.13 652.83,445.03 616.73,445.03 "/>
  <polygon class="fil17" points="622.3,475.56 647.26,475.56 647.26,450.6 622.3,450.6 "/>
  <polygon class="fil20" points="692.93,409.01 707.95,409.01 707.95,395.91 692.93,395.91 "/>
  <polygon class="fil20" points="692.93,371.38 707.95,371.38 707.95,262.56 692.93,262.56 "/>
  <polygon class="fil20" points="692.93,238.57 707.95,238.57 707.95,147.94 692.93,147.94 "/>
  <polygon class="fil21" points="692.93,142.45 707.95,142.45 707.95,122.89 692.93,122.89 "/>
  <polygon class="fil12" points="595.76,244.07 707.95,244.07 707.95,238.57 595.76,238.57 "/>
  <polygon class="fil12" points="595.76,377.42 707.95,377.42 707.95,371.38 595.76,371.38 "/>
  <polygon class="fil12" points="595.76,238.57 597.32,238.57 597.32,202.89 595.76,202.89 "/>
  <polygon class="fil12" points="602.13,238.57 603.7,238.57 603.7,202.89 602.13,202.89 "/>
  <polygon class="fil12" points="608.51,238.57 610.07,238.57 610.07,202.89 608.51,202.89 "/>
  <polygon class="fil12" points="614.88,238.57 616.45,238.57 616.45,202.89 614.88,202.89 "/>
  <polygon class="fil12" points="621.25,238.57 622.82,238.57 622.82,202.89 621.25,202.89 "/>
  <polygon class="fil12" points="627.63,238.57 629.19,238.57 629.19,202.89 627.63,202.89 "/>
  <polygon class="fil12" points="634,238.57 635.57,238.57 635.57,202.89 634,202.89 "/>
  <polygon class="fil12" points="640.38,238.57 641.94,238.57 641.94,202.89 640.38,202.89 "/>
  <polygon class="fil12" points="646.75,238.57 648.31,238.57 648.31,202.89 646.75,202.89 "/>
  <polygon class="fil12" points="653.12,238.57 654.69,238.57 654.69,202.89 653.12,202.89 "/>
  <polygon class="fil12" points="659.49,238.57 661.06,238.57 661.06,202.89 659.49,202.89 "/>
  <polygon class="fil12" points="665.87,238.57 667.43,238.57 667.43,202.89 665.87,202.89 "/>
  <polygon class="fil12" points="672.25,238.57 673.81,238.57 673.81,202.89 672.25,202.89 "/>
  <polygon class="fil12" points="678.62,238.57 680.18,238.57 680.18,202.89 678.62,202.89 "/>
  <polygon class="fil12" points="684.99,238.57 686.55,238.57 686.55,202.89 684.99,202.89 "/>
  <polygon class="fil12" points="691.36,238.57 692.93,238.57 692.93,202.89 691.36,202.89 "/>
  <polygon class="fil12" points="697.74,238.57 699.3,238.57 699.3,202.89 697.74,202.89 "/>
  <polygon class="fil12" points="704.11,238.57 705.68,238.57 705.68,202.89 704.11,202.89 "/>
  <polygon class="fil12" points="595.76,205.97 707.95,205.97 707.95,202.89 595.76,202.89 "/>
  <polygon class="fil12" points="595.76,371.38 597.32,371.38 597.32,335.69 595.76,335.69 "/>
  <polygon class="fil12" points="602.13,371.38 603.7,371.38 603.7,335.69 602.13,335.69 "/>
  <polygon class="fil12" points="608.51,371.38 610.07,371.38 610.07,335.69 608.51,335.69 "/>
  <polygon class="fil12" points="614.88,371.38 616.45,371.38 616.45,335.69 614.88,335.69 "/>
  <polygon class="fil12" points="621.25,371.38 622.82,371.38 622.82,335.69 621.25,335.69 "/>
  <polygon class="fil12" points="627.63,371.38 629.19,371.38 629.19,335.69 627.63,335.69 "/>
  <polygon class="fil12" points="634,371.38 635.57,371.38 635.57,335.69 634,335.69 "/>
  <polygon class="fil12" points="640.38,371.38 641.94,371.38 641.94,335.69 640.38,335.69 "/>
  <polygon class="fil12" points="646.75,371.38 648.31,371.38 648.31,335.69 646.75,335.69 "/>
  <polygon class="fil12" points="653.12,371.38 654.69,371.38 654.69,335.69 653.12,335.69 "/>
  <polygon class="fil12" points="659.49,371.38 661.06,371.38 661.06,335.69 659.49,335.69 "/>
  <polygon class="fil12" points="665.87,371.38 667.43,371.38 667.43,335.69 665.87,335.69 "/>
  <polygon class="fil12" points="672.25,371.38 673.81,371.38 673.81,335.69 672.25,335.69 "/>
  <polygon class="fil12" points="678.62,371.38 680.18,371.38 680.18,335.69 678.62,335.69 "/>
  <polygon class="fil12" points="684.99,371.38 686.55,371.38 686.55,335.69 684.99,335.69 "/>
  <polygon class="fil12" points="691.36,371.38 692.93,371.38 692.93,335.69 691.36,335.69 "/>
  <polygon class="fil12" points="697.74,371.38 699.3,371.38 699.3,335.69 697.74,335.69 "/>
  <polygon class="fil12" points="704.11,371.38 705.68,371.38 705.68,335.69 704.11,335.69 "/>
  <polygon class="fil12" points="595.76,338.77 707.95,338.77 707.95,335.69 595.76,335.69 "/>
  <polygon class="fil20" points="621.25,262.56 692.93,262.56 692.93,244.07 595.76,244.07 "/>
  <polygon class="fil22" points="692.93,262.56 707.95,262.56 707.95,244.07 692.93,244.07 "/>
  <polygon class="fil20" points="692.93,395.91 621.25,395.91 595.76,377.42 692.93,377.42 "/>
  <polygon class="fil22" points="692.93,395.91 707.95,395.91 707.95,377.42 692.93,377.42 "/>
  <polygon class="fil20" points="595.76,147.95 692.93,147.95 692.93,142.45 595.76,142.45 "/>
  <polygon class="fil22" points="692.93,147.95 707.95,147.95 707.95,142.45 692.93,142.45 "/>
  <polygon class="fil10" points="714.03,409.01 716.23,409.01 716.23,122.89 714.03,122.89 "/>
  <polygon class="fil23" points="906.9,128.38 821.06,128.38 821.06,122.89 906.88,122.89 "/>
  <polygon class="fil24" points="907.01,128.38 906.9,128.38 906.88,122.89 907.01,122.89 "/>
  <path class="fil25" d="M816.43 128.38l-6.75 0 0 -5.49 6.75 0 0 5.49zm-8.95 0l-91.25 0 0 -5.49 91.25 0 0 5.49z"/>
  <polygon class="fil26" points="807.48,128.38 809.68,128.38 809.68,122.89 807.48,122.89 "/>
  <polygon class="fil25" points="707.95,128.38 714.03,128.38 714.03,122.89 707.95,122.89 "/>
  <polygon class="fil26" points="714.03,128.38 716.23,128.38 716.23,122.89 714.03,122.89 "/>
  <polygon class="fil25" points="745.25,409.01 732.71,409.01 732.71,355.56 745.25,336.93 "/>
  <polygon class="fil27" points="745.25,409.01 745.25,336.93 "/>
  <polygon class="fil28" points="672.26,453.28 652.83,453.28 652.83,445.03 616.73,445.03 616.73,453.28 576.2,453.28 576.2,445.03 540.1,445.03 540.1,453.28 528.31,453.28 528.31,409.67 672.26,409.67 "/>
  <polygon class="fil29" points="950.44,453.28 881.89,453.28 881.89,442.4 845.79,442.4 845.79,453.28 747.3,453.28 747.3,442.4 711.21,442.4 711.21,453.28 672.26,453.28 672.26,409.67 950.44,409.67 "/>
  <polygon class="fil28" points="881.89,453.28 876.32,453.28 876.32,450.64 851.36,450.64 851.36,453.28 845.79,453.28 845.79,442.4 881.89,442.4 "/>
  <polygon class="fil24" points="851.36,453.28 876.32,453.28 876.32,450.64 851.36,450.64 "/>
  <polygon class="fil20" points="747.3,453.28 741.73,453.28 741.73,450.64 716.78,450.64 716.78,453.28 711.21,453.28 711.21,442.4 747.3,442.4 "/>
  <polygon class="fil24" points="716.78,453.28 741.74,453.28 741.74,450.64 716.78,450.64 "/>
  <polygon class="fil30" points="576.2,453.28 540.1,453.28 540.1,445.03 576.2,445.03 "/>
  <polygon class="fil29" points="652.83,453.28 647.26,453.28 647.26,450.61 622.3,450.61 622.3,453.28 616.73,453.28 616.73,445.03 652.83,445.03 "/>
  <polygon class="fil30" points="622.3,453.28 647.26,453.28 647.26,450.6 622.3,450.6 "/>
  <polygon class="fil31" points="509,428.38 932.87,428.38 950.44,409.01 528.31,409.01 "/>
  <polygon class="fil31" points="816.5,183.31 907.21,183.31 907.21,176.25 816.5,176.25 "/>
  <polygon class="fil32" points="592.46,142.47 592.48,142.45 592.48,142.45 "/>
  <polygon class="fil24" points="541.49,215.75 541.49,208.73 592.46,142.47 592.48,142.45 595.76,142.45 595.76,147.95 "/>
  <polygon class="fil33" points="541.49,208.73 541.49,207.78 592.48,142.45 592.46,142.47 "/>
  <polygon class="fil32" points="816.5,258.68 816.43,258.68 816.43,221.12 816.5,221.12 "/>
  <path class="fil23" d="M816.5 221.12l-0.07 0 0 -32.77 0.07 0 0 32.77zm0 -40.22l0 -42.66 -0.07 0 0 -9.86 4.63 0 0 3.52 -4.36 0 0 2.2 4.36 0 0 6.23 -4.36 0 0 2.2 4.36 0 0 6.23 -4.36 0 0 2.2 4.36 0 0 6.23 -4.36 0 0 2.2 4.36 0 0 6.23 -4.36 0 0 2.2 4.36 0 0 6.23 -4.36 0 0 2.2 -0.2 0 0 4.65z"/>
  <path class="fil34" d="M816.5 235.07l0 -54.17 0 2.41 4.56 0 0 51.48 -4.56 0 0 0.28zm1.59 -48.99l0 43.84 2.97 0 0 -43.84 -2.97 0z"/>
  <polygon class="fil35" points="821.06,336.93 816.5,336.93 816.5,234.79 821.06,234.79 821.06,246.41 816.61,246.41 816.61,247.73 821.06,247.73 821.06,258.68 816.61,258.68 816.61,260 821.06,260 821.06,270.96 816.61,270.96 816.61,272.28 821.06,272.28 821.06,283.24 816.61,283.24 816.61,284.56 821.06,284.56 821.06,295.52 816.61,295.52 816.61,296.83 821.06,296.83 821.06,307.79 816.61,307.79 816.61,309.11 821.06,309.11 821.06,320.07 816.61,320.07 816.61,321.39 821.06,321.39 821.06,332.34 816.61,332.34 816.61,333.66 821.06,333.66 "/>
  <polygon class="fil27" points="821.06,336.93 816.43,336.93 "/>
  <polygon class="fil30" points="816.5,188.35 816.43,188.35 816.43,138.24 816.5,138.24 "/>
  <polygon class="fil30" points="816.43,336.93 816.5,336.93 816.5,258.68 816.43,258.68 "/>
  <polygon class="fil24" points="818.09,229.92 821.06,229.92 821.06,186.07 818.09,186.07 "/>
  <polygon class="fil21" points="816.61,247.73 821.06,247.73 821.06,246.41 816.61,246.41 "/>
  <polygon class="fil21" points="816.61,260 821.06,260 821.06,258.68 816.61,258.68 "/>
  <polygon class="fil21" points="816.61,272.28 821.06,272.28 821.06,270.96 816.61,270.96 "/>
  <polygon class="fil21" points="816.61,284.56 821.06,284.56 821.06,283.24 816.61,283.24 "/>
  <polygon class="fil21" points="816.61,296.83 821.06,296.83 821.06,295.51 816.61,295.51 "/>
  <polygon class="fil21" points="816.61,309.11 821.06,309.11 821.06,307.79 816.61,307.79 "/>
  <polygon class="fil21" points="816.61,321.39 821.06,321.39 821.06,320.07 816.61,320.07 "/>
  <polygon class="fil21" points="816.61,333.66 821.06,333.66 821.06,332.34 816.61,332.34 "/>
  <polygon class="fil23" points="816.43,122.89 821.06,122.89 821.06,121.11 816.43,121.11 "/>
  <polygon class="fil36" points="816.43,128.38 821.06,128.38 821.06,122.89 816.43,122.89 "/>
  <polygon class="fil37" points="821.06,183.31 816.5,183.31 816.5,176.25 821.06,176.25 "/>
  <polygon class="fil18" points="717.99,107.06 702.05,122.89 907.5,122.89 907.21,107.06 "/>
  <polygon class="fil31" points="509,539.16 963.94,539.16 963.94,527.7 509,527.7 "/>
  <polygon class="fil23" points="906.91,134.1 821.06,134.1 821.06,131.9 906.91,131.9 "/>
  <polygon class="fil24" points="907.21,134.1 906.91,134.1 906.91,131.9 907.21,131.9 "/>
  <polygon class="fil36" points="816.7,134.1 821.06,134.1 821.06,131.9 816.7,131.9 "/>
  <polygon class="fil23" points="906.93,142.53 821.06,142.53 821.06,140.33 906.93,140.33 "/>
  <polygon class="fil24" points="907.21,142.53 906.93,142.53 906.93,140.33 907.21,140.33 "/>
  <polygon class="fil36" points="816.7,142.53 821.06,142.53 821.06,140.33 816.7,140.33 "/>
  <polygon class="fil23" points="906.95,150.96 821.06,150.96 821.06,148.76 906.94,148.76 "/>
  <polygon class="fil24" points="907.21,150.96 906.95,150.96 906.94,148.76 907.21,148.76 "/>
  <polygon class="fil36" points="816.7,150.96 821.06,150.96 821.06,148.76 816.7,148.76 "/>
  <polygon class="fil23" points="906.97,159.39 821.06,159.39 821.06,157.19 906.96,157.19 "/>
  <polygon class="fil24" points="907.21,159.39 906.97,159.39 906.96,157.19 907.21,157.19 "/>
  <polygon class="fil36" points="816.7,159.39 821.06,159.39 821.06,157.19 816.7,157.19 "/>
  <polygon class="fil23" points="906.99,167.82 821.06,167.82 821.06,165.62 906.98,165.62 "/>
  <polygon class="fil24" points="907.21,167.82 906.99,167.82 906.98,165.62 907.21,165.62 "/>
  <polygon class="fil36" points="816.7,167.82 821.06,167.82 821.06,165.62 816.7,165.62 "/>
  <polygon class="fil23" points="907.01,176.25 821.06,176.25 821.06,174.05 907,174.05 "/>
  <polygon class="fil24" points="907.21,176.25 907.01,176.25 907,174.05 907.21,174.05 "/>
  <polygon class="fil37" points="907.21,176.25 821.06,176.25 "/>
  <polygon class="fil36" points="816.7,176.25 821.06,176.25 821.06,174.05 816.7,174.05 "/>
  <polygon class="fil17" points="707.95,188.35 737.54,188.35 737.54,138.24 707.95,138.24 "/>
  <polygon class="fil13" points="711.21,149.04 734.28,149.04 734.28,142.45 711.21,142.45 "/>
  <polygon class="fil13" points="711.21,183.99 734.28,183.99 734.28,152.78 711.21,152.78 "/>
  <polygon class="fil17" points="707.95,330.33 737.54,330.33 737.54,280.22 707.95,280.22 "/>
  <polygon class="fil13" points="711.21,291.1 734.28,291.1 734.28,284.51 711.21,284.51 "/>
  <polygon class="fil13" points="711.21,326.05 734.28,326.05 734.28,294.84 711.21,294.84 "/>
  <path class="fil38" d="M479.49 296.71c-5.44,-5.53 -15.48,-13.62 -21.93,-10.03 -4.94,2.75 -4.3,10.8 0.99,18.45 5.28,7.64 41.07,41.24 44.06,41.46 2.99,0.22 9.95,-3.12 9.01,-7.35 -0.93,-4.21 -26.7,-37 -32.13,-42.53z"/>
  <path class="fil39" d="M496.85 337.31c-0.53,5.81 5.82,13.26 19.91,19.67 10.18,4.63 34.61,11.03 34.61,11.03l4.26 -7.89c0,0 -41.39,-24.33 -43.9,-25.84 -2.5,-1.51 -13.97,-6.96 -14.88,3.03z"/>
  <path class="fil8" d="M504.67 270.95c-11.54,-0.69 -15.7,9.64 -18.07,17.4 -2.36,7.75 -10.05,50.64 -8.88,55 1.17,4.36 15.13,7.04 17.8,5.4 2.66,-1.65 19.03,-49.63 20.23,-59.27 1.21,-9.63 -1.24,-17.95 -11.08,-18.53z"/>
  <path class="fil8" d="M462.68 340.29c-10.18,5.08 -30.25,16.57 -30.25,16.57l2.64 13.44c0,0 22.82,-1.91 51.72,-12.99 2.97,-1.14 13.76,-8.4 10.62,-19.21 -3.08,-10.63 -24.69,-2.82 -34.73,2.19z"/>
  <path class="fil31" d="M435.31 242.56l-6.97 -16.38c0,0 -11.96,-0.22 -16.25,9.06 -4.29,9.28 1.87,20.32 7.23,21.06 18.09,2.49 19.09,12.56 18.08,13.47 -1.01,0.91 1.83,2.54 4.16,0.56 2.34,-1.98 7.93,-9.18 1.4,-14.98 -6.53,-5.79 -7.65,-12.79 -7.65,-12.79z"/>
  <path class="fil38" d="M459.25 577.22c-10.87,-15.29 -11.63,-18.33 -11.79,-24.65 -0.1,-4.26 -9.17,-3.84 -10.78,-0.72 -1.88,3.64 -3.3,6.08 -4.45,8.04 -1.38,2.35 -1.34,6.44 -0.23,7.62 3.03,3.24 6.81,2.38 10.55,5.06 3.73,2.68 9.05,11.8 12.3,12.81 3.23,1.02 10.76,1.18 11.33,-0.37 0.57,-1.54 -6.93,-7.79 -6.93,-7.79z"/>
  <path class="fil40" d="M459.25 577.22c0,0 2.12,2.04 1.73,2.6 -0.57,0.8 -3.95,0.27 -4.8,-0.24 -7.72,-4.55 -17.82,-14.01 -19.86,-16.86 -2.1,-2.96 -2.21,-6.07 -2.21,-6.07 -0.68,0 -3.77,4.34 -3.3,7.81 0.13,0.76 0.85,2.69 1.19,3.05 1.7,1.82 7.68,5.18 9.31,6.35 3.73,2.68 8.58,11.8 11.82,12.81 3.24,1.01 14.4,1.54 14.97,0 0.44,-1.21 -5.34,-6.67 -8.85,-9.45z"/>
  <path class="fil40" d="M430.77 563.83c0,0 1.94,6.43 2.49,8.58 0.83,3.26 1.1,10.13 1.1,10.13l1.44 0c0,0 -1.05,-12.99 5.51,-8.68 2.04,1.34 -10.54,-10.03 -10.54,-10.03z"/>
  <path class="fil38" d="M443.66 388.23c-4.38,3.58 5.56,33.37 16.68,51.42 10.54,17.14 22.54,41.57 24.64,42.33 2.1,0.76 16.62,-2.59 18.28,-4.77 1.67,-2.19 -18.75,-81.26 -19.98,-85.19 -1.24,-3.94 -20.65,-19.28 -39.62,-3.79z"/>
  <path class="fil38" d="M485.68 469.56c-12.1,2.97 -25.31,21.53 -29.33,29.28 -4.02,7.76 -19.75,50.74 -20.45,54.93 -0.53,3.15 9.64,6.57 10.46,5 8.15,-15.63 36.03,-53.18 39,-56.77 2.96,-3.59 15.73,-20.43 16.81,-22.19 5.53,-9.1 -9.57,-11.95 -16.49,-10.25z"/>
  <path class="fil39" d="M486.92 321.73c0,-7.75 -11.62,-18.67 -12.1,-21.34 -0.48,-2.66 0.52,-6.49 -0.82,-8.2 -2.67,-3.39 -16.46,-10.41 -16.71,-12.1 -0.24,-1.7 4.65,-23.05 4.65,-23.05l-22.28 -8.15c0,0 -2.82,25.04 -4.4,26.36 -4.92,4.1 -19.42,7.87 -22.76,15.01 -4.06,8.65 17.49,35.98 21.31,62.88 1.84,13.02 -9.45,31.56 -11.38,44.15 -1.95,12.6 33.47,27.82 34.92,27.82 1.45,0 22.71,-11.59 25.13,-15.71 2.42,-4.11 -5.4,-41.52 -5.4,-49.75 0,-8.24 2.1,-24.81 3.36,-26.26 1.26,-1.45 6.48,-6.33 6.48,-11.66z"/>
  <path class="fil38" d="M437.18 265.5c-0.74,5.2 -3.22,10.52 -3.22,10.52l0.54 0.21c2.6,0.99 5.46,3.42 7.95,2.16l16.71 -8.77 2.78 -12.58 -23.33 -10.06c0,0 -0.34,10.78 -1.43,18.52z"/>
  <path class="fil39" d="M442.38 385.21c-5.38,-2.07 -26.16,22.13 -37.07,40.79 -14.7,25.16 -29.79,45.95 -29.4,48.19 0.4,2.24 13.41,12.76 16.19,13.12 2.78,0.37 60.05,-61.35 62.9,-64.43 2.86,-3.09 10.71,-28.72 -12.62,-37.67z"/>
  <path class="fil5" d="M302.86 572.54c-1.38,2.7 -3.51,9.68 -1.61,11.05 1.88,1.39 9.51,-0.64 10.47,-1.04 5.98,-2.51 10.85,-11.39 10.85,-11.39l-8.91 -8.98c0,0 -9.43,7.67 -10.8,10.36z"/>
  <path class="fil39" d="M307.62 569.07c-0.9,1.29 -2.89,7.41 -0.97,8.51 5.4,3.07 14.95,-4.01 16.55,-7.43 1.6,-3.41 3.39,-7.08 3.39,-7.08l-7.8 -5.36c0,0 -7.24,5.73 -11.17,11.36z"/>
  <path class="fil39" d="M390.25 473.44c-10.29,-8.36 -29.47,12.51 -34.28,18.74 -4.1,5.31 -26.54,46.9 -35.43,63.32 -1.53,2.84 -5.74,5.09 -6.15,6.19 -1.92,5.05 4.11,8.46 6.14,9.58 0.49,0.27 1.85,-3.57 6.19,-8.04 13.65,-14.08 43.04,-44.85 54.28,-59.4 14.82,-19.17 15.68,-25.15 9.25,-30.39z"/>
  <path class="fil11" d="M477.27 361.98c-0.42,-8.82 1.33,-27.14 3.69,-29.79 2.37,-2.64 6.46,-5.73 6.28,-11.3 -0.18,-5.56 -6.99,-13.38 -6.99,-13.38l-40.11 0 -11.89 8.42 -4.76 8.82c0,0 8.99,17.48 10.06,26.31 1.08,8.82 -14.35,27.14 -18.91,43.21 -4.57,16.07 -41.43,69.79 -41.43,69.79 0,0 22.56,5.03 42.52,5.03 24.68,0 79.31,-38.47 79.31,-38.47 0,0 -10.32,-30.83 -10.48,-34.4 -0.15,-3.57 -6.87,-25.41 -7.29,-34.24z"/>
  <path class="fil11" d="M424.11 281.2l-2.29 1.17c0,0 5.58,1.71 9.68,7.15 5.63,7.46 8.03,20.56 8.03,20.56l2.92 -0.15c0,0 -3.94,-14.53 -8.82,-21.21 -4.89,-6.69 -9.52,-7.52 -9.52,-7.52z"/>
  <polygon class="fil11" points="466.31,286.49 474.82,300.39 470.13,288.99 "/>
  <path class="fil41" d="M452.73 337.32c-6.9,-1.54 -12.59,-29.81 -12.59,-29.81l-11.89 8.42 -4.76 8.82c0,0 9.58,23.79 9.93,29.05 0.53,8 -13.91,23.65 -18.78,40.47 -4.72,16.27 -41.43,69.79 -41.43,69.79l21.07 3.53c0,0 31.32,-23.68 33.24,-43.08 1.92,-19.41 12.89,-49.72 16,-54.35 3.12,-4.62 35.08,-21.05 34.5,-24.97 -0.57,-3.91 -18.39,-6.32 -25.29,-7.87z"/>
  <path class="fil39" d="M468.14 244.59c0.45,-0.18 1.31,-1.47 0.9,-2.4 -0.6,-1.36 -6.21,-8.61 -6.34,-9.61 -0.14,-1.01 -2.29,-11.55 -10.9,-13.96 -7.51,-2.1 -24.59,1.26 -26.57,14.99 -1.97,13.72 6.41,21.9 13.55,25.95 5.58,3.15 9.94,4.23 17.26,3.88 1.49,-0.07 13.39,-3.81 15.16,-5.69 1.21,-1.3 -3.52,-12.98 -3.06,-13.16z"/>
  <path class="fil31" d="M433.25 221.83c-5.72,3.3 -12.91,11.79 -10.46,21.47 2.45,9.69 15.24,15.8 15.24,15.8 0,0 -0.52,-15.08 1.02,-17.07 1.54,-1.98 8.96,-4.05 12.12,-6.5 3.15,-2.45 8.5,-10.71 7.73,-11.84 -6.43,-9.31 -19.94,-5.16 -25.65,-1.86z"/>
  <path class="fil31" d="M456.87 219.52c-4.61,-2.98 -13.54,-4.28 -16.23,-1.06 -2.68,3.21 12.06,4.43 12.06,4.43 0,0 4.5,3.16 5.98,2.97 1.49,-0.2 2.41,1.63 2.41,1.63 0,0 0.4,-4.98 -4.22,-7.97z"/>
  <path class="fil40" d="M442.14 556.41c-4.34,-0.44 -6.86,-2.72 -6.86,-2.72l-1.17 2.96c0,0 5.96,3.31 9.07,3.46 3.1,0.15 5.56,0 5.56,0l-0.95 -3.46c0,0 -1.3,0.2 -5.65,-0.24z"/>
  <path class="fil5" d="M319.93 556.44l-2.31 2.23c0,0 1.86,2.89 3.56,4.16 1.7,1.27 4.49,2.13 4.49,2.13l1.43 -2.13c0,0 -2.07,-0.2 -4,-1.97 -1.92,-1.77 -3.17,-4.42 -3.17,-4.42z"/>
  <path class="fil41" d="M428.81 228.8c-6.61,-0.53 -12.04,4.96 -12.12,12.28 -0.08,7.32 5.22,13.68 11.83,14.21 6.61,0.53 12.03,-4.96 12.11,-12.28 0.08,-7.31 -5.21,-13.67 -11.82,-14.21z"/>
  <path class="fil11" d="M429.85 231.43c-5.34,-0.43 -9.72,4.01 -9.79,9.92 -0.06,5.92 4.22,11.06 9.56,11.48 5.34,0.44 9.72,-4.01 9.79,-9.91 0.06,-5.92 -4.22,-11.06 -9.56,-11.49z"/>
  <path class="fil41" d="M429.85 231.43c-4.71,-0.38 -8.57,3.54 -8.63,8.74 -0.05,5.21 3.72,9.75 8.43,10.12 4.7,0.39 8.56,-3.53 8.62,-8.74 0.06,-5.21 -3.71,-9.74 -8.42,-10.12z"/>
  <path class="fil11" d="M427.14 229.83c-4.7,-0.38 -8.57,3.54 -8.62,8.75 -0.06,5.21 3.71,9.74 8.42,10.12 4.71,0.38 8.57,-3.54 8.62,-8.75 0.06,-5.21 -3.71,-9.74 -8.42,-10.12z"/>
  <path class="fil41" d="M429.86 232.54c-4.08,-0.33 -7.44,3.07 -7.49,7.59 -0.05,4.52 3.23,8.46 7.32,8.79 4.08,0.33 7.44,-3.07 7.49,-7.6 0.04,-4.52 -3.23,-8.45 -7.32,-8.78z"/>
  <path class="fil11" d="M430.94 234.11c-3.4,-0.28 -6.2,2.56 -6.24,6.33 -0.04,3.77 2.69,7.05 6.1,7.32 3.4,0.28 6.2,-2.56 6.24,-6.32 0.04,-3.77 -2.69,-7.06 -6.1,-7.33z"/>
  <path class="fil41" d="M432.16 235.7c-2.7,-0.22 -4.91,2.02 -4.94,5.01 -0.03,2.98 2.13,5.58 4.82,5.79 2.7,0.22 4.91,-2.02 4.94,-5 0.03,-2.99 -2.12,-5.58 -4.82,-5.8z"/>
  <polygon class="fil42" points="536.14,579.92 536.18,583.03 552.83,582.76 552.79,579.66 "/>
  <path class="fil42" d="M551.78 557.78c-0.45,-0.62 -16.91,0.73 -16.91,0.73 0,0 -8.48,2.98 -21.08,14.97 -4.98,4.74 -20.59,8.57 -20.82,10.54 -0.23,1.97 8.58,2.14 13.43,2.07 16.61,-0.22 18.97,-3.99 25.45,-4.97 6.48,-0.98 14.01,-1.35 20.3,-1.45 2.16,-0.04 4,-6.98 3.69,-10.26 -0.26,-2.72 -1.83,-8.61 -4.06,-11.63z"/>
  <path class="fil43" d="M554.91 406.88c2.79,-8.93 0.77,-27 -2.79,-31.47 -3.56,-4.49 -46.21,2.69 -46.21,2.69 0,0 -40.51,81.31 -40.71,88.36 -0.19,7.05 58.77,93.97 62.08,96.16 3.3,2.2 14.5,3.56 18.73,1.56 4.23,-2 9.77,-4.81 9.86,-6.67 0.1,-1.86 -19.11,-41.62 -28.59,-58.44 -14.72,-26.09 -22.57,-32.74 -23.48,-35.92 -2.26,-7.93 48.32,-47.33 51.11,-56.27z"/>
  <path class="fil39" d="M571.78 272.96c-3.79,-7.61 -23.14,-10.87 -28.55,-15.16 -1.74,-1.38 -11.26,-27.7 -11.26,-27.7l-23.5 11.16c0,0 6.35,20.18 5.46,22.58 -0.63,1.74 -16.06,7.05 -18.84,10.78 -1.4,1.87 -1.13,6.67 -1.58,9.55 -0.45,2.88 -3.69,13.69 -0.69,27.21 0.45,2.02 3.27,33.08 3.49,41.96 0.21,8.87 -1.52,43.73 1.2,48.1 2.72,4.37 16.77,16.88 18.34,16.84 1.57,-0.03 43.86,-17.5 41.44,-31.02 -2.42,-13.52 -9.43,-34.8 -6.64,-48.72 2.79,-13.91 25.72,-56.36 21.13,-65.58z"/>
  <polygon class="fil42" points="386.06,590.74 402.69,591.74 402.87,588.64 386.25,587.64 "/>
  <path class="fil42" d="M386.61 566.2c0,0 -8.68,2.33 -22.15,13.33 -5.33,4.35 -21.19,6.98 -21.57,8.93 -0.37,1.95 8.41,2.78 13.24,3.09 16.58,1.03 19.23,-2.55 25.76,-3.04 6.53,-0.48 14.06,-0.28 20.35,0.09 2.15,0.13 4.52,-6.66 4.45,-9.94 -0.05,-2.73 -1.17,-8.73 -3.16,-11.91 -0.41,-0.65 -16.92,-0.55 -16.92,-0.55z"/>
  <path class="fil31" d="M502.02 370.07c-2.6,3.83 -18.15,24.51 -24.01,34.05 -18.21,29.63 -37.94,67.76 -40.86,73.24 -4.51,8.47 -49.95,86.97 -49.95,86.97 0,0 0.73,8.79 7.76,12.64 7.04,3.84 11.99,4.68 11.99,4.68 0,0 26.67,-29.82 36.12,-42.13 9.45,-12.3 19.2,-36.82 21.74,-42.04 2.54,-5.21 9.91,-16.35 28.15,-32.78 9.41,-8.47 18.69,-22.8 35.77,-32 14.63,-7.87 26.96,-17.46 29.63,-27.23 4.13,-15.12 -1.19,-31.59 -1.19,-31.59 0,0 -53.35,-6.48 -55.15,-3.81z"/>
  <path class="fil44" d="M573.94 280.84c0.18,-6.7 -3.5,-11.62 -8.63,-14.01 -5.13,-2.4 -22.08,-9.03 -22.08,-9.03l-25.36 15.99 -3.94 -9.95c0,0 -16.74,7.07 -18.84,10.78 -2.1,3.7 -2.95,11.66 -3.6,14.62 -0.65,2.96 -0.74,16.56 0.7,28.3 0.84,6.88 0.89,15.99 2.22,27.7 1.14,10.04 1.1,33.58 1.1,33.58 0,0 9.15,1.65 24,0.56 17.19,-1.25 37.12,-4.07 37.88,-4.72 3.25,-2.8 -4.6,-29.6 -4.07,-32.56 0.53,-2.96 20.44,-54.56 20.62,-61.26z"/>
  <path class="fil8" d="M569.92 285.8c0.02,-5.39 -6.64,-17.14 -6.64,-17.14 0,0 5.47,12.28 0.28,19.74 -5.18,7.46 -26.55,40.91 -33.16,42.35 -6.61,1.44 -29.79,-8.16 -31.78,2.17 -2.04,10.56 31.13,23.83 31.42,33.02 0.15,4.74 -7.28,13.19 -7.28,13.19 0,0 34.4,-1.93 36.15,-5.94 3.11,-7.08 -7.51,-25.64 -5.06,-32.85 2.46,-7.21 16.05,-49.16 16.07,-54.54z"/>
  <polygon class="fil38" points="515.02,247.56 533.92,258.03 540.99,253.49 534.91,238.05 "/>
  <path class="fil39" d="M499.36 204.5c-6.07,8.02 -0.83,18.92 -0.26,19.91 0.56,0.99 0.47,11.29 0.86,12.92 0.27,1.12 1.91,1.69 2.44,1.54 0.53,-0.15 4.24,13.53 6.21,13.86 2.88,0.48 16.06,-4.27 17.45,-5.22 6.8,-4.67 9.96,-8.6 12.8,-15.21 3.65,-8.49 5.59,-21.52 -5.51,-32.46 -11.11,-10.94 -28.69,-2.34 -33.99,4.66z"/>
  <path class="fil31" d="M511.81 194.44c-3.51,1.41 -14.37,4.13 -15.2,16.91 0,0 9.37,-7.78 24.24,2.09 3.2,2.12 -0.22,14.08 0.63,14.95 0.92,0.92 8.89,-9.86 8.73,-8.54 -1.63,13.45 3.6,19.8 4.75,19.68 3.48,-0.35 11.13,-20.24 3.47,-33.95 -7.65,-13.7 -23.11,-12.55 -26.62,-11.14z"/>
  <path class="fil39" d="M528.64 218.39c-2.26,-0.29 -3.47,1.06 -4.02,5.35 -0.54,4.28 -0.21,9.87 2.05,10.16 2.25,0.29 4.52,-2.95 5.06,-7.24 0.54,-4.28 -0.84,-7.98 -3.09,-8.27z"/>
  <polygon class="fil8" points="517.87,273.79 531.23,265.45 518.86,267.66 "/>
  <polygon class="fil44" points="518.86,267.66 522.75,275.88 546.81,259.29 541.83,252.97 "/>
  <polygon class="fil8" points="512.35,268.89 517.87,273.79 515.55,266.27 "/>
  <polygon class="fil8" points="509.14,265.99 510.16,272.74 515.55,266.27 513.67,261.44 "/>
  <path class="fil39" d="M478.08 318.08c-2.3,1.56 -11.57,9.28 -3.33,14.06 4.78,2.78 17.96,-2.41 25.81,-8.3 7.85,-5.89 29.48,-26 29.48,-26l-5.36 -7.28c0,0 -44.29,25.96 -46.6,27.52z"/>
  <path class="fil39" d="M438.96 291.35c-6.81,-3.7 -18.77,-8.52 -23.89,-3.2 -3.93,4.08 -0.97,11.59 6.32,17.36 7.29,5.77 51.3,27.48 54.23,26.82 2.92,-0.66 8.6,-5.89 6.48,-9.65 -2.12,-3.76 -36.32,-27.62 -43.14,-31.33z"/>
  <path class="fil39" d="M540.5 274.98c0.39,-0.75 0.18,-2.27 -0.43,-2.53 -0.61,-0.26 -1.09,0.1 -1.16,-1.77 -0.08,-1.82 -1.98,-1.31 -2.5,-1.17 -0.53,0.15 0.2,-1.98 -1.6,-1.6 -0.62,0.13 -5.06,5.03 -5.73,5.72 -0.67,0.69 -4.75,4.61 -4.44,10.61 0.3,6 -3.11,8.17 -3.11,8.17 0,0 2.06,7.06 7.98,5.92 5.93,-1.14 6.6,-7.08 6.84,-10.79 0.23,-3.72 1.3,-5.84 3.13,-7.59 1.1,-1.04 1.51,-2.36 1.55,-2.82 0.07,-1 -0.89,-1.47 -0.53,-2.15z"/>
  <path class="fil8" d="M551.51 269.22c-8.62,8.48 -3.24,19.09 1.31,26.46 4.55,7.38 33.55,43.97 37.86,46.17 4.31,2.2 16.23,-6.74 16.77,-9.98 0.54,-3.25 -26.45,-50.21 -33.33,-58.02 -6.88,-7.82 -15.25,-11.86 -22.61,-4.63z"/>
  <path class="fil44" d="M554.85 285.14l-8.76 8.57c0,0 19.15,25.32 26.59,33.26 7.44,7.93 22.14,21.92 30.88,15.02 9.93,-7.84 0.69,-19.05 -1.54,-21.18 -21.74,-20.78 -47.17,-35.67 -47.17,-35.67z"/>
  <path class="fil39" d="M533.86 277.57c-0.84,-0.69 -2.14,-0.58 -2.9,0.23l-0.01 0.01c-0.76,0.82 -0.69,2.06 0.15,2.75l6.54 5.36c0.84,0.69 2.14,0.58 2.9,-0.23l0 -0.01c0.77,-0.82 0.7,-2.06 -0.15,-2.75l-6.53 -5.36z"/>
  <path class="fil39" d="M536.16 274.55c-0.84,-0.69 -2.14,-0.58 -2.9,0.23l0 0.01c-0.77,0.82 -0.7,2.06 0.15,2.75l6.53 5.37c0.84,0.68 2.14,0.58 2.9,-0.23l0.01 -0.01c0.76,-0.83 0.69,-2.07 -0.15,-2.76l-6.54 -5.36z"/>
  <path class="fil39" d="M538.58 271.73c-0.84,-0.68 -2.14,-0.58 -2.89,0.24l-0.01 0.01c-0.76,0.82 -0.7,2.06 0.15,2.75l6.54 5.36c0.83,0.69 2.14,0.58 2.89,-0.23l0.01 -0.01c0.76,-0.82 0.69,-2.06 -0.15,-2.75l-6.54 -5.37z"/>
  <path class="fil39" d="M541.18 269.22c-0.83,-0.68 -2.14,-0.58 -2.9,0.24l0 0c-0.76,0.83 -0.69,2.07 0.15,2.76l6.53 5.36c0.84,0.69 2.14,0.59 2.9,-0.23l0.01 -0.01c0.76,-0.82 0.69,-2.06 -0.15,-2.75l-6.54 -5.37z"/>
  <path class="fil39" d="M540.38 268.84c0,0 0.02,4.74 -1.92,6.35 -1.95,1.62 -7.37,5.36 -7.37,5.36 0,0 5.27,7.49 8.78,10.03 3.52,2.53 7.62,4.24 7.62,4.24l12.06 -4.51c0,0 -5.94,-12.4 -7.8,-14.37 -1.87,-1.98 -11.37,-7.1 -11.37,-7.1z"/>
  <polygon class="fil44" points="543.85,292.71 550.88,300.82 564.21,290.29 557.18,282.18 "/>
  <path class="fil39" d="M437.15 358.98l-8.61 -0.92c-1.12,-0.12 -2.14,0.7 -2.26,1.81l-0.01 0.02c-0.12,1.1 0.68,2.11 1.78,2.23l8.63 0.92c1.11,0.11 2.13,-0.7 2.25,-1.82l0.01 -0.01c0.12,-1.11 -0.68,-2.11 -1.79,-2.23z"/>
  <path class="fil39" d="M437.96 355.23l-8.62 -0.92c-1.12,-0.12 -2.13,0.7 -2.26,1.81l0 0.02c-0.13,1.1 0.67,2.11 1.78,2.23l8.62 0.92c1.12,0.11 2.13,-0.7 2.26,-1.82l0 -0.01c0.12,-1.11 -0.67,-2.11 -1.78,-2.23z"/>
  <path class="fil39" d="M438.52 351.53l-8.62 -0.91c-1.12,-0.12 -2.13,0.7 -2.26,1.82l0 0.01c-0.13,1.1 0.68,2.11 1.78,2.22l8.62 0.92c1.12,0.12 2.13,-0.7 2.26,-1.81l0 -0.02c0.13,-1.1 -0.67,-2.11 -1.78,-2.23z"/>
  <path class="fil39" d="M438.73 347.92l-8.62 -0.91c-1.12,-0.12 -2.13,0.7 -2.26,1.82l0 0c-0.13,1.11 0.67,2.12 1.78,2.23l8.62 0.92c1.11,0.12 2.13,-0.7 2.26,-1.81l0 -0.01c0.12,-1.11 -0.68,-2.11 -1.78,-2.24z"/>
  <path class="fil45" d="M8.98 193.87c-0.67,-2.45 -3.2,-3.88 -5.61,-3.22 -2.44,0.67 -3.87,3.19 -3.21,5.64l100.94 371.3c0.56,2.04 2.39,3.39 4.4,3.39l1.21 -0.17c2.44,-0.66 3.87,-3.2 3.2,-5.64l-100.93 -371.3z"/>
  <polygon class="fil46" points="248.93,38.66 237.96,510.66 302.92,510.66 291.94,38.66 "/>
  <polygon class="fil47" points="248.88,38.66 291.99,38.66 270.86,0 "/>
  <polygon class="fil8" points="265.79,38.66 275.09,38.66 275.09,29.18 265.79,29.18 "/>
  <polygon class="fil48" points="267.23,38.66 273.64,38.66 273.64,31 267.23,31 "/>
  <polygon class="fil49" points="291.95,39.03 291.94,38.66 291.99,38.66 "/>
  <polygon class="fil50" points="237.96,510.66 248.93,38.66 291.94,38.66 291.95,39.03 "/>
  <polygon class="fil51" points="271.77,379.67 325.19,379.67 325.19,346.39 271.77,346.39 "/>
  <polygon class="fil2" points="271.52,368.58 325.19,368.58 325.19,357.48 271.52,357.48 "/>
  <polygon class="fil31" points="269.9,508.46 272.56,508.46 272.56,342.21 269.9,342.21 "/>
  <polygon class="fil31" points="216.08,510.66 217.51,510.66 217.51,481.88 216.08,481.88 "/>
  <polygon class="fil31" points="221.8,510.66 223.22,510.66 223.22,481.88 221.8,481.88 "/>
  <polygon class="fil31" points="227.51,510.66 228.94,510.66 228.94,481.88 227.51,481.88 "/>
  <polygon class="fil31" points="233.23,510.66 234.66,510.66 234.66,481.88 233.23,481.88 "/>
  <polygon class="fil31" points="238.95,510.66 240.38,510.66 240.38,481.88 238.95,481.88 "/>
  <polygon class="fil31" points="244.66,510.66 246.09,510.66 246.09,481.88 244.66,481.88 "/>
  <polygon class="fil31" points="250.38,510.66 251.81,510.66 251.81,481.88 250.38,481.88 "/>
  <polygon class="fil31" points="256.1,510.66 257.53,510.66 257.53,481.88 256.1,481.88 "/>
  <polygon class="fil31" points="261.82,510.66 263.24,510.66 263.24,481.88 261.82,481.88 "/>
  <polygon class="fil31" points="267.53,510.66 268.96,510.66 268.96,481.88 267.53,481.88 "/>
  <polygon class="fil31" points="273.25,510.66 274.68,510.66 274.68,481.88 273.25,481.88 "/>
  <polygon class="fil31" points="278.96,510.66 280.4,510.66 280.4,481.88 278.96,481.88 "/>
  <polygon class="fil31" points="284.68,510.66 286.11,510.66 286.11,481.88 284.68,481.88 "/>
  <polygon class="fil31" points="290.4,510.66 291.83,510.66 291.83,481.88 290.4,481.88 "/>
  <polygon class="fil31" points="296.12,510.66 297.54,510.66 297.54,481.88 296.12,481.88 "/>
  <polygon class="fil31" points="301.83,510.66 303.26,510.66 303.26,481.88 301.83,481.88 "/>
  <polygon class="fil31" points="307.55,510.66 308.98,510.66 308.98,481.88 307.55,481.88 "/>
  <polygon class="fil31" points="313.26,510.66 314.7,510.66 314.7,481.88 313.26,481.88 "/>
  <polygon class="fil31" points="318.98,510.66 320.41,510.66 320.41,481.88 318.98,481.88 "/>
  <polygon class="fil31" points="324.7,510.66 326.13,510.66 326.13,481.88 324.7,481.88 "/>
  <polygon class="fil31" points="216.08,484.16 326.13,484.16 326.13,481.88 216.08,481.88 "/>
  <polygon class="fil31" points="216.08,510.66 326.13,510.66 326.13,506.27 216.08,506.27 "/>
 </g>
</svg>
