<?xml version="1.0" encoding="UTF-8"?>
<!DOCTYPE svg PUBLIC "-//W3C//DTD SVG 1.0//EN" "http://www.w3.org/TR/2001/REC-SVG-20010904/DTD/svg10.dtd">
<!-- Creator: CorelDRAW 2021 (64-Bit) -->
<svg xmlns="http://www.w3.org/2000/svg" xml:space="preserve" width="105px" height="200px" version="1.0" style="shape-rendering:geometricPrecision; text-rendering:geometricPrecision; image-rendering:optimizeQuality; fill-rule:evenodd; clip-rule:evenodd"
viewBox="0 0 3.6 6.84"
 xmlns:xlink="http://www.w3.org/1999/xlink"
 xmlns:xodm="http://www.corel.com/coreldraw/odm/2003">
 <defs>
  <style type="text/css">
   <![CDATA[
    .fil0 {fill:black;fill-rule:nonzero}
   ]]>
  </style>
 </defs>
 <g id="Capa_x0020_1">
  <metadata id="CorelCorpID_0Corel-Layer"/>
  <path class="fil0" d="M2.7 0c0.18,0 0.37,0.01 0.55,0.02 0.12,0 0.24,0.02 0.35,0.03l-0.01 1.1c-0.03,0 -0.06,0 -0.09,0 -0.12,0 -0.24,0 -0.36,0 -0.09,0 -0.18,0 -0.27,0.01 -0.29,0.01 -0.51,0.12 -0.52,0.48 -0.01,0.26 -0.02,0.84 -0.02,0.87 0.02,0 0.3,0.01 0.59,0.01 0.15,0 0.29,0 0.39,-0.01 0.08,0 0.15,0 0.24,0 -0.06,0.43 -0.12,0.83 -0.18,1.24l-1.04 0 -0.02 3.09 -1.29 0 0.03 -3.09 -1.05 0 0.01 -1.23 1.05 0 0 -0.1c0.01,-0.24 0,-0.49 0.01,-0.74 0.01,-0.16 0.01,-0.32 0.04,-0.47 0.07,-0.38 0.25,-0.7 0.56,-0.92 0.28,-0.2 0.59,-0.28 0.93,-0.29 0.03,0 0.07,0 0.1,0z"/>
 </g>
</svg>
