<?xml version="1.0" encoding="UTF-8"?>
<!DOCTYPE svg PUBLIC "-//W3C//DTD SVG 1.0//EN" "http://www.w3.org/TR/2001/REC-SVG-20010904/DTD/svg10.dtd">
<!-- Creator: CorelDRAW 2021 (64-Bit) -->
<svg xmlns="http://www.w3.org/2000/svg" xml:space="preserve" width="177px" height="177px" version="1.0" style="shape-rendering:geometricPrecision; text-rendering:geometricPrecision; image-rendering:optimizeQuality; fill-rule:evenodd; clip-rule:evenodd"
viewBox="0 0 8.14 8.14"
 xmlns:xlink="http://www.w3.org/1999/xlink"
 xmlns:xodm="http://www.corel.com/coreldraw/odm/2003">
 <defs>
  <style type="text/css">
   <![CDATA[
    .fil0 {fill:black;fill-rule:nonzero}
   ]]>
  </style>
 </defs>
 <g id="Capa_x0020_1">
  <metadata id="CorelCorpID_0Corel-Layer"/>
  <path class="fil0" d="M6.26 1.42l0 0c0.27,0 0.49,0.21 0.49,0.49 -0.01,0.26 -0.23,0.48 -0.5,0.48 -0.27,0 -0.48,-0.22 -0.48,-0.49 0,-0.27 0.22,-0.48 0.49,-0.48z"/>
  <path class="fil0" d="M7.31 6.11c0.12,-0.72 0.12,-3.33 0.05,-4 -0.07,-0.71 -0.51,-1.18 -1.22,-1.3 -0.35,-0.05 -1.2,-0.07 -2.04,-0.07 -0.81,0 -1.61,0.02 -1.97,0.06 -0.71,0.08 -1.18,0.52 -1.3,1.22 -0.11,0.75 -0.11,3.55 -0.03,4.11 0.09,0.59 0.43,0.99 1.01,1.15 0.31,0.09 1.26,0.12 2.19,0.12 0.85,0 1.69,-0.02 2.01,-0.06 0.71,-0.08 1.19,-0.52 1.3,-1.23zm0.78 -4.07c0.06,0.64 0.1,3.67 -0.09,4.38 -0.25,0.93 -0.86,1.48 -1.79,1.63 -0.36,0.05 -1.3,0.09 -2.25,0.09 -0.97,0 -1.94,-0.04 -2.26,-0.12 -0.92,-0.24 -1.48,-0.84 -1.62,-1.78 -0.11,-0.68 -0.12,-3.87 0.08,-4.57 0.25,-0.9 0.86,-1.43 1.77,-1.58 0.41,-0.07 1.22,-0.09 2.04,-0.09 0.76,0 1.53,0.02 1.99,0.05 0.55,0.03 1.07,0.21 1.48,0.6 0.4,0.38 0.6,0.86 0.65,1.39z"/>
  <path class="fil0" d="M4.06 5.42c0.74,0 1.35,-0.6 1.36,-1.34 0.01,-0.75 -0.58,-1.35 -1.33,-1.36l-0.01 0c-0.74,0 -1.35,0.6 -1.36,1.34 -0.01,0.74 0.58,1.35 1.33,1.36l0.01 0zm0.03 -3.44c1.15,0 2.08,0.94 2.07,2.09 -0.01,1.15 -0.95,2.09 -2.11,2.09 -1.15,0 -2.08,-0.94 -2.07,-2.09 0.01,-1.15 0.95,-2.09 2.11,-2.09z"/>
 </g>
</svg>
