<?xml version="1.0" encoding="UTF-8"?>
<!DOCTYPE svg PUBLIC "-//W3C//DTD SVG 1.0//EN" "http://www.w3.org/TR/2001/REC-SVG-20010904/DTD/svg10.dtd">
<!-- Creator: CorelDRAW 2021 (64-Bit) -->
<svg xmlns="http://www.w3.org/2000/svg" xml:space="preserve" width="1020px" height="261px" version="1.0" style="shape-rendering:geometricPrecision; text-rendering:geometricPrecision; image-rendering:optimizeQuality; fill-rule:evenodd; clip-rule:evenodd"
viewBox="0 0 939.15 240.6"
 xmlns:xlink="http://www.w3.org/1999/xlink"
 xmlns:xodm="http://www.corel.com/coreldraw/odm/2003">
 <defs>
  <style type="text/css">
   <![CDATA[
    .str0 {stroke:black;stroke-width:3.68;stroke-linecap:round;stroke-linejoin:round;stroke-miterlimit:22.9256}
    .fil0 {fill:black;fill-rule:nonzero}
   ]]>
  </style>
 </defs>
 <g id="Capa_x0020_1">
  <metadata id="CorelCorpID_0Corel-Layer"/>
  <path class="fil0" d="M115.68 231.9l-16.33 0 -3.01 8.32 -5.16 0 13.54 -37.22 5.64 0 13.48 37.22 -5.16 0 -3 -8.32zm-1.4 -3.98l-6.77 -18.9 -6.77 18.9 13.54 0zm58.17 -14.29c-1.04,-2.18 -2.55,-3.87 -4.51,-5.07 -1.97,-1.2 -4.27,-1.8 -6.88,-1.8 -2.61,0 -4.97,0.6 -7.06,1.8 -2.1,1.2 -3.74,2.92 -4.94,5.16 -1.2,2.23 -1.8,4.82 -1.8,7.76 0,2.93 0.6,5.51 1.8,7.73 1.2,2.22 2.84,3.93 4.94,5.13 2.09,1.2 4.45,1.8 7.06,1.8 3.65,0 6.66,-1.09 9.02,-3.28 2.37,-2.18 3.75,-5.14 4.14,-8.86l-14.93 0 0 -3.97 20.14 0 0 3.76c-0.29,3.08 -1.25,5.9 -2.9,8.46 -1.65,2.56 -3.82,4.58 -6.5,6.06 -2.69,1.49 -5.68,2.23 -8.97,2.23 -3.47,0 -6.64,-0.81 -9.51,-2.44 -2.86,-1.63 -5.13,-3.9 -6.79,-6.8 -1.67,-2.9 -2.5,-6.17 -2.5,-9.82 0,-3.66 0.83,-6.94 2.5,-9.86 1.66,-2.92 3.93,-5.19 6.79,-6.82 2.87,-1.63 6.04,-2.44 9.51,-2.44 3.97,0 7.49,0.98 10.55,2.95 3.07,1.97 5.29,4.74 6.69,8.32l-5.85 0zm32.65 -6.87l0 12.51 13.64 0 0 4.03 -13.64 0 0 12.89 15.26 0 0 4.03 -20.15 0 0 -37.49 20.15 0 0 4.03 -15.26 0zm66.44 33.46l-4.89 0 -19.65 -29.81 0 29.81 -4.89 0 0 -37.49 4.89 0 19.65 29.76 0 -29.76 4.89 0 0 37.49zm20.84 -18.74c0,-3.66 0.82,-6.94 2.47,-9.86 1.65,-2.92 3.89,-5.2 6.74,-6.85 2.85,-1.64 6.01,-2.47 9.48,-2.47 4.08,0 7.65,0.99 10.69,2.96 3.04,1.97 5.26,4.76 6.66,8.37l-5.86 0c-1.03,-2.25 -2.53,-3.99 -4.48,-5.2 -1.95,-1.22 -4.29,-1.83 -7.01,-1.83 -2.61,0 -4.96,0.61 -7.04,1.83 -2.07,1.21 -3.7,2.94 -4.88,5.18 -1.18,2.24 -1.77,4.86 -1.77,7.87 0,2.97 0.59,5.57 1.77,7.81 1.18,2.24 2.81,3.97 4.88,5.18 2.08,1.22 4.43,1.83 7.04,1.83 2.72,0 5.06,-0.6 7.01,-1.8 1.95,-1.2 3.45,-2.93 4.48,-5.18l5.86 0c-1.4,3.58 -3.62,6.34 -6.66,8.3 -3.04,1.95 -6.61,2.92 -10.69,2.92 -3.47,0 -6.63,-0.81 -9.48,-2.44 -2.85,-1.63 -5.09,-3.9 -6.74,-6.8 -1.65,-2.9 -2.47,-6.17 -2.47,-9.82zm62.52 -18.69l0 37.43 -4.89 0 0 -37.43 4.89 0zm44.79 29.11l-16.33 0 -3 8.32 -5.16 0 13.53 -37.22 5.64 0 13.48 37.22 -5.15 0 -3.01 -8.32zm-1.4 -3.98l-6.76 -18.9 -6.77 18.9 13.53 0zm84.49 -25.13c4.08,0 7.62,0.76 10.61,2.28 2.99,1.52 5.28,3.7 6.87,6.52 1.6,2.83 2.39,6.16 2.39,9.99 0,3.83 -0.79,7.16 -2.39,9.97 -1.59,2.81 -3.88,4.96 -6.87,6.44 -2.99,1.49 -6.53,2.23 -10.61,2.23l-11.65 0 0 -37.43 11.65 0zm0 33.4c4.83,0 8.52,-1.28 11.06,-3.84 2.55,-2.56 3.82,-6.15 3.82,-10.77 0,-4.65 -1.28,-8.29 -3.84,-10.9 -2.56,-2.61 -6.24,-3.92 -11.04,-3.92l-6.77 0 0 29.43 6.77 0zm45.55 -29.43l0 12.51 13.64 0 0 4.03 -13.64 0 0 12.89 15.25 0 0 4.03 -20.14 0 0 -37.49 20.14 0 0 4.03 -15.25 0zm110.96 -3.97l-14.13 37.43 -5.64 0 -14.12 -37.43 5.21 0 11.76 32.27 11.76 -32.27 5.16 0zm24.6 0l0 37.43 -4.89 0 0 -37.43 4.89 0zm44.79 29.11l-16.32 0 -3.01 8.32 -5.16 0 13.54 -37.22 5.64 0 13.48 37.22 -5.16 0 -3.01 -8.32zm-1.39 -3.98l-6.77 -18.9 -6.77 18.9 13.54 0zm48.66 -25.13l0 27.66c0,3.08 -0.95,5.54 -2.85,7.38 -1.9,1.84 -4.4,2.77 -7.52,2.77 -3.15,0 -5.67,-0.94 -7.57,-2.82 -1.9,-1.88 -2.85,-4.45 -2.85,-7.71l4.89 0c0.03,1.83 0.51,3.31 1.42,4.46 0.92,1.14 2.28,1.72 4.11,1.72 1.83,0 3.19,-0.55 4.08,-1.64 0.9,-1.09 1.35,-2.48 1.35,-4.16l0 -27.66 4.94 0zm28.84 3.97l0 12.51 13.64 0 0 4.03 -13.64 0 0 12.89 15.25 0 0 4.03 -20.14 0 0 -37.49 20.14 0 0 4.03 -15.25 0zm48.87 33.84c-2.47,0 -4.68,-0.44 -6.63,-1.32 -1.95,-0.88 -3.48,-2.09 -4.59,-3.65 -1.11,-1.56 -1.68,-3.36 -1.72,-5.4l5.21 0c0.18,1.76 0.9,3.23 2.18,4.43 1.27,1.2 3.12,1.8 5.55,1.8 2.33,0 4.17,-0.58 5.51,-1.74 1.34,-1.17 2.01,-2.66 2.01,-4.49 0,-1.43 -0.39,-2.59 -1.18,-3.49 -0.79,-0.9 -1.77,-1.58 -2.95,-2.04 -1.18,-0.47 -2.78,-0.97 -4.78,-1.5 -2.47,-0.65 -4.45,-1.29 -5.94,-1.94 -1.48,-0.64 -2.75,-1.65 -3.81,-3.03 -1.06,-1.38 -1.58,-3.23 -1.58,-5.56 0,-2.04 0.51,-3.85 1.55,-5.43 1.04,-1.57 2.5,-2.79 4.38,-3.65 1.88,-0.86 4.04,-1.29 6.47,-1.29 3.51,0 6.39,0.88 8.62,2.63 2.24,1.76 3.5,4.09 3.79,6.99l-5.37 0c-0.18,-1.44 -0.93,-2.7 -2.26,-3.79 -1.32,-1.09 -3.08,-1.64 -5.26,-1.64 -2.04,0 -3.71,0.53 -5,1.59 -1.28,1.05 -1.93,2.53 -1.93,4.43 0,1.36 0.39,2.47 1.16,3.33 0.77,0.86 1.71,1.51 2.84,1.96 1.13,0.45 2.71,0.96 4.75,1.53 2.48,0.68 4.46,1.35 5.97,2.01 1.5,0.66 2.79,1.68 3.86,3.06 1.08,1.38 1.61,3.25 1.61,5.62 0,1.82 -0.48,3.54 -1.44,5.15 -0.97,1.61 -2.4,2.92 -4.3,3.92 -1.9,1.01 -4.14,1.51 -6.72,1.51z"/>
  <g id="_1865340186592">
   <path class="fil0 str0" d="M169.52 152.25c0.82,-4.03 1.25,-7.25 1.25,-9.64 0,-2.43 -0.04,-4.23 -0.13,-5.44 -0.1,-1.22 -0.23,-2.53 -0.4,-3.9 -0.16,-1.38 -0.36,-2.92 -0.59,-4.59 -0.23,-1.71 -0.43,-3.68 -0.62,-5.91 -1.48,-15.31 -6.69,-27.89 -15.64,-37.76 -3.97,-4.36 -8.26,-7.67 -12.88,-9.94 -4.63,-2.26 -8.4,-3.41 -11.38,-3.41 -2.98,0 -5.28,0.2 -6.88,0.59 -3.58,10.76 -5.38,21.97 -5.38,33.71 0,10.36 0.56,18.13 1.64,23.24 1.74,7.67 4.39,15.41 7.96,23.15l-28.72 0c1.55,-3.84 2.33,-11.94 2.33,-24.26 0,-12.33 0.92,-23.84 2.79,-34.59 1.84,-10.72 4.26,-20.26 7.24,-28.66 2.99,-8.39 6.3,-15.73 10,-22.03 3.68,-6.32 7.35,-11.83 11.02,-16.52 3.7,-4.72 7.18,-8.75 10.43,-12.1 3.27,-3.38 5.99,-6.33 8.16,-8.88l30.26 0c-2.76,3.11 -4.13,7.5 -4.13,13.14 0,2.56 0.42,6.76 1.24,12.59l2.43 17.48c8.75,60.45 16.59,95.01 23.51,103.73l-33.51 0zm-43.31 -90.19c2.49,-0.95 5.12,-1.45 7.87,-1.45 2.75,0 5.21,0.2 7.44,0.6 2.2,0.36 4.4,1.01 6.59,1.9 4.66,1.8 8.56,4.65 11.71,8.55 -3.15,-16.45 -5.05,-26.52 -5.77,-30.16l-3.35 -16.82 -5.47 6.56c-7.71,9.21 -14.04,19.47 -19.02,30.82zm114.65 -30.92l0.1 95.67c0.06,3.64 0.49,6.39 1.24,8.26 0.79,1.84 2.4,2.75 4.82,2.75 11.38,0 20.26,-7.21 26.59,-21.7 6.17,-14.06 9.25,-33.6 9.25,-58.59 0,-13.11 -1.54,-23.08 -4.63,-29.86 -4.16,-9.15 -11.4,-13.74 -21.7,-13.74 -6.59,0 -10.65,0.79 -12.16,2.33 -1.51,1.5 -2.46,3.44 -2.89,5.7 -0.39,2.26 -0.62,5.31 -0.62,9.18zm-26.69 121.11c2.04,-4.85 3.25,-8.92 3.61,-12.2 0.33,-3.28 0.66,-6.75 0.88,-10.46 0.53,-7.57 0.79,-17.7 0.79,-30.45 0,-15.44 -0.26,-29.54 -0.79,-42.26l-1.04 -26.43c-0.27,-6.65 -0.82,-11.31 -1.71,-13.93 -1.41,-4.16 -3.74,-7.9 -6.92,-11.21l52.72 0c21.9,0 36.23,8.59 42.95,25.83 2.36,6.07 3.54,13.44 3.54,22.07 0,48.35 -16.39,79.17 -49.18,92.42 -11.08,4.49 -24.09,6.72 -39.08,6.72 -0.98,0 -1.93,0 -2.88,0 -0.99,0 -1.94,-0.04 -2.89,-0.1z"/>
   <path class="fil0 str0" d="M374.35 143.05c12.29,0 20.23,-14.99 23.8,-44.95 1.21,-10.13 1.84,-22.03 1.84,-35.74 0,-33.96 -8.63,-50.91 -25.84,-50.91 -17.24,0 -25.83,16.95 -25.83,50.91 0,40 5.14,65.28 15.44,75.77 3.21,3.28 6.72,4.92 10.59,4.92zm-0.2 9.6c-17.05,0 -29.87,-8.03 -38.52,-24.03 -8.33,-15.44 -12.49,-37.5 -12.49,-66.26 0,-29.9 9.18,-48.75 27.57,-56.48 6.46,-2.69 14.26,-4.04 23.44,-4.04 26.23,0 42.29,11.64 48.1,34.95 1.93,7.51 2.88,17.15 2.88,28.92 0,11.8 -1.02,23.27 -3.05,34.45 -2.06,11.15 -5.21,20.66 -9.44,28.46 -8.62,16 -21.47,24.03 -38.49,24.03z"/>
   <path class="fil0 str0" d="M526.22 25.97c0,10.75 -7.87,19.61 -23.64,26.52 13.08,2.43 21.61,8.36 25.58,17.77 1.27,3.12 1.9,7.28 1.9,12.43 0,5.15 -0.76,10.72 -2.27,16.72 -1.5,6 -3.86,11.6 -7.08,16.92 -3.24,5.27 -7.37,10.09 -12.36,14.42 -4.98,4.36 -10.98,8.13 -17.96,11.25 -14.66,6.59 -32.79,9.9 -54.36,9.9 2.07,-4.86 3.25,-8.92 3.61,-12.2 0.36,-3.28 0.65,-6.75 0.91,-10.46 0.5,-7.57 0.76,-17.7 0.76,-30.45 0,-15.45 -0.26,-29.54 -0.76,-42.26l-1.04 -26.43c-0.27,-6.65 -0.86,-11.31 -1.74,-13.93 -1.41,-4.17 -3.71,-7.9 -6.92,-11.21l50.82 0c15.47,0 26.68,1.5 33.6,4.59 7.31,3.21 10.95,8.68 10.95,16.42zm-62.52 49.77l0.1 48.78c0,3.64 0.39,6.39 1.18,8.26 0.82,1.87 2.42,2.79 4.85,2.79 9.87,0 18.1,-4.69 24.69,-14.03 6.78,-9.61 10.19,-22.1 10.19,-37.44 0,-7.64 -1.7,-13.31 -5.08,-17.02 -4.49,-4.91 -12.52,-7.41 -24.13,-7.41 -2.62,0 -4.68,0.13 -6.23,0.36 -1.54,0.23 -2.72,0.86 -3.57,1.87 -1.34,1.67 -2,6.27 -2,13.84zm31.74 -33.34c1.96,-1.91 3.34,-3.97 4.19,-6.13 0.82,-2.2 1.25,-4.23 1.25,-6.1 0,-1.9 -0.3,-3.81 -0.82,-5.74 -0.56,-1.9 -1.64,-3.61 -3.21,-5.08 -3.61,-3.21 -9.74,-4.82 -18.46,-4.82 -6.59,0 -10.53,0.69 -11.8,2 -1.28,1.31 -2.1,3.05 -2.43,5.21 -0.3,2.2 -0.46,4.98 -0.46,8.43 0,3.41 0.1,6.26 0.3,8.52 0.16,2.3 0.68,4.2 1.5,5.74 1.61,3.11 4.89,4.69 9.87,4.69 4.95,0 9.05,-0.63 12.3,-1.9 3.21,-1.28 5.8,-2.89 7.77,-4.82zm122.61 58.19l-0.29 18.46c0,11.47 1.04,19.27 3.18,23.44 1.27,2.49 2.78,4.42 4.52,5.77l4.49 3.64 -27.83 0 -2.99 -11.15c-7.24,8.72 -17.54,13.08 -30.94,13.08 -7.61,0 -13.74,-2.59 -18.43,-7.7 -4.1,-4.59 -6.16,-10.03 -6.16,-16.33 0,-6.26 1.5,-11.74 4.49,-16.43 2.98,-4.65 6.88,-8.55 11.77,-11.6 9.6,-5.97 21.67,-9.08 36.19,-9.34l0 -1.05c0,-15.54 -2.39,-24.69 -7.21,-27.38 -1.71,-0.95 -3.93,-1.44 -6.66,-1.44 -2.72,0 -5.44,0.92 -8.13,2.69 -2.68,1.8 -5.11,4.09 -7.27,6.91 -4.36,5.71 -7.48,12.43 -9.35,20.2 -5.67,-3.41 -8.52,-9.9 -8.52,-19.51 0,-3.9 0.49,-8.29 1.54,-13.18 2.42,0 4.72,-0.32 6.88,-1.05l7.41 -2.29c7.25,-2.23 14.33,-3.38 21.21,-3.38 6.92,0 12.46,1.05 16.59,3.08 4.13,2.07 7.35,5.09 9.64,9.12 3.9,6.85 5.87,18.69 5.87,35.44zm-53.7 31.14c0,3.97 0.92,7.05 2.75,9.22 1.81,2.16 4.1,3.28 6.86,3.28 2.75,0 5.4,-0.73 7.96,-2.17 2.59,-1.44 4.89,-3.41 6.92,-5.9 4.82,-5.7 7.21,-12.39 7.21,-20.1l0 -14.19c-8.95,0.82 -16.36,3.8 -22.19,8.92 -6.33,5.5 -9.51,12.49 -9.51,20.94zm110.32 -102.68c-1.31,2.1 -2.92,3.9 -4.75,5.35 -1.87,1.41 -4,2.13 -6.36,2.13 -2.36,0 -4.5,-0.72 -6.33,-2.13 -1.87,-1.45 -3.44,-3.25 -4.72,-5.35 -2.63,-4.36 -3.94,-8.98 -3.94,-13.83 0,-5.9 2.69,-9.84 8.07,-11.81 1.93,-0.72 4.26,-1.08 7.01,-1.08 7.64,0 12.36,2.72 14.23,8.1 0.56,1.51 0.86,3.25 0.86,5.12 0,1.9 -0.37,4.09 -1.05,6.59 -0.72,2.49 -1.71,4.78 -3.02,6.91zm-26.1 122.85c2.95,-10.13 4.43,-27.51 4.43,-52.16 0,-17.35 -1.54,-29.28 -4.62,-35.84 -0.76,-1.64 -1.64,-3.18 -2.59,-4.59l-3.18 -4.42 34.13 0c-2.82,10.55 -4.23,26.85 -4.23,48.85 0,21.99 1.47,38.03 4.39,48.16l-28.33 0zm55.15 0c2.91,-10.13 4.39,-27.51 4.39,-52.16 0,-17.54 -1.41,-29.51 -4.23,-35.94 -1.15,-2.62 -3.18,-5.57 -6.13,-8.91l34.1 0c-1.15,4.03 -2.07,9.57 -2.79,16.62 6.03,-7.57 14.39,-12.92 25.18,-16.03 4.59,-1.35 7.96,-3.48 10.06,-6.36 2.13,5.05 3.18,9.41 3.18,13.08 0,3.64 -0.19,7.01 -0.59,10.13 -0.36,3.08 -0.95,6.13 -1.7,9.08 -1.67,6.33 -3.9,11.24 -6.66,14.79 -2.36,-12.49 -6.03,-19.81 -11.01,-21.9 -5.77,-2.5 -11.41,0.88 -16.92,10.16 -1.15,1.93 -2.13,3.97 -2.88,6.16 -0.07,1.48 -0.1,2.99 -0.1,4.53 0,1.5 0,3.05 0,4.59 0,24.65 1.47,42.03 4.42,52.16l-28.32 0zm143.86 -32.66c2.29,1.54 3.47,4.2 3.47,8.04 0,3.8 -0.52,7.14 -1.54,10.03 -1.05,2.88 -2.82,5.57 -5.38,8.06 -5.77,5.64 -14.55,8.46 -26.32,8.46 -13.71,0 -24.13,-5.08 -31.31,-15.18 -6.36,-9.05 -9.51,-21.24 -9.51,-36.62 0,-15.47 4.3,-27.64 12.85,-36.49 8.13,-8.39 19.15,-12.59 33.05,-12.59 9.67,0 17.25,2.82 22.69,8.46 4.26,4.49 6.42,9.67 6.42,15.51 0,5.87 -1.14,11.14 -3.41,15.87 -2.29,4.68 -5.64,8.75 -10.03,12.13 -9.11,7.05 -21.8,10.75 -38.13,11.14 1.35,12.89 5.38,21.48 12.1,25.84 2.43,1.54 5.67,2.33 9.7,2.33 4.04,0 8.33,-2.14 12.86,-6.36 4.55,-4.23 8.72,-10.43 12.49,-18.63zm-47.74 -12.29c20.23,-1.35 30.36,-11.15 30.36,-29.41 0,-6.85 -2.06,-11.44 -6.16,-13.83 -1.41,-0.76 -3.25,-1.15 -5.58,-1.15 -2.29,0 -4.62,0.72 -6.95,2.13 -2.32,1.41 -4.36,3.7 -6.09,6.92 -3.71,6.98 -5.58,17.77 -5.58,32.36l0 2.98zm132.65 -57.73c1.74,3.83 2.59,7.73 2.59,11.63 0,3.91 -0.16,7.12 -0.52,9.71 -0.36,2.56 -0.89,5.01 -1.58,7.37 -1.6,5.38 -3.87,9.51 -6.82,12.4 -2,-9.94 -4.16,-16.36 -6.49,-19.31 -2.33,-2.95 -4.69,-4.92 -7.01,-5.94 -2.33,-1.05 -4.82,-1.54 -7.45,-1.54 -2.62,0 -4.75,0.23 -6.42,0.76 -1.67,0.52 -3.12,1.24 -4.33,2.23 -2.75,2.09 -4.13,4.49 -4.13,7.18 0,2.68 0.69,5.01 2.03,6.98 1.35,1.93 3.12,3.77 5.31,5.47 2.23,1.68 4.72,3.35 7.54,4.95l8.66 4.89c7.41,4.16 12.52,7.6 15.28,10.36 5.44,5.44 8.16,11.18 8.16,17.21 0,7.87 -2.69,14.49 -8.07,19.87 -6.78,6.92 -16.98,10.39 -30.55,10.39 -12.36,0 -21.64,-2.88 -27.87,-8.65 -1.77,-1.68 -3.05,-3.35 -3.83,-4.99 0.52,-4.82 2.65,-9.34 6.42,-13.57 3.67,-4.1 7.22,-6.46 10.69,-7.08 -0.26,0.82 -0.39,2.06 -0.39,3.74 0,1.67 0.49,3.73 1.44,6.19 0.95,2.46 2.33,4.76 4.13,6.85 4.03,4.89 8.56,7.32 13.64,7.32 5.05,0 8.75,-1.15 11.14,-3.45 2.37,-2.32 3.55,-4.95 3.55,-7.9 0,-2.95 -0.66,-5.41 -2.04,-7.38 -1.34,-2 -3.11,-3.83 -5.31,-5.57 -2.19,-1.74 -4.72,-3.41 -7.54,-5.01l-8.65 -4.89c-7.35,-4.36 -12.43,-8.06 -15.18,-11.15 -5.51,-6.13 -8.26,-12.81 -8.26,-20.06 0,-7.64 3.21,-13.8 9.6,-18.56 6.1,-4.45 13.67,-6.72 22.79,-6.72l16.88 1.18c4.1,0 6.95,-0.52 8.56,-1.5 1.6,-0.99 2.95,-2.14 4.03,-3.41z"/>
   <path class="fil0" d="M84.62 117.11c1.74,2.5 2.59,5.51 2.59,9.02 0,3.54 -0.23,6.59 -0.72,9.15 -0.49,2.55 -1.15,4.98 -1.97,7.27 -1.94,5.09 -4.36,8.43 -7.31,10.1l-77.21 0c5.05,-3.14 8.36,-5.87 9.9,-8.16 2.95,-4.36 4.39,-10 4.39,-16.92 -0.03,-17.01 -0.06,-32.42 -0.06,-46.19l0 -50.33c0,-9.27 -1.54,-16.09 -4.62,-20.45 -1.09,-1.61 -2.43,-3.25 -4.04,-4.89l39.48 0c-3.77,5.44 -5.94,11.02 -6.43,16.79 -0.13,1.93 -0.2,4.03 -0.2,6.36l0 87.96c0,11.97 0.63,19.15 1.91,21.47 1.27,2.33 2.82,3.71 4.62,4.13 1.8,0.43 4.52,0.63 8.16,0.63 3.64,0 7.12,-0.66 10.36,-1.94 3.28,-1.28 6.2,-3.05 8.76,-5.37 4.36,-3.97 8.49,-10.17 12.39,-18.63z"/>
  </g>
 </g>
</svg>
