<?xml version="1.0" encoding="UTF-8"?>
<!DOCTYPE svg PUBLIC "-//W3C//DTD SVG 1.0//EN" "http://www.w3.org/TR/2001/REC-SVG-20010904/DTD/svg10.dtd">
<!-- Creator: CorelDRAW 2021 (64-Bit) -->
<svg xmlns="http://www.w3.org/2000/svg" xml:space="preserve" width="1012px" height="258px" version="1.0" style="shape-rendering:geometricPrecision; text-rendering:geometricPrecision; image-rendering:optimizeQuality; fill-rule:evenodd; clip-rule:evenodd"
viewBox="0 0 920.74 235.03"
 xmlns:xlink="http://www.w3.org/1999/xlink"
 xmlns:xodm="http://www.corel.com/coreldraw/odm/2003">
 <defs>
  <style type="text/css">
   <![CDATA[
    .fil0 {fill:black;fill-rule:nonzero}
   ]]>
  </style>
 </defs>
 <g id="Capa_x0020_1">
  <metadata id="CorelCorpID_0Corel-Layer"/>
  <path class="fil0" d="M0 129.5l0 -3.86 13.21 -0.85 0 -113.05 -13.21 -0.85 0 -3.86 48.38 0 0 3.86 -13.21 0.85 0 112.08c9.31,0.62 15.7,0.94 19.13,0.94 3.16,0 5.91,-0.09 8.28,-0.27 2.38,-0.17 4.54,-0.52 6.53,-1.11 1.97,-0.56 3.64,-1.14 4.95,-1.79 1.35,-0.61 2.64,-1.61 3.84,-2.92 1.2,-1.35 2.17,-2.67 2.9,-3.96 0.76,-1.26 1.73,-3.78 2.93,-7.5 1.2,-3.71 2.25,-7.96 3.16,-12.68l2.93 0 0 34.97 -89.82 0zm93.22 0l0 -3.86 10.36 -0.85 40.62 -121.28 3.84 0 41.99 121.28 11.34 0.85 0 3.86 -45.92 0 0 -3.86 11.59 -0.85 -10.13 -30.96 -38.48 0 -9.96 30.96 11.6 0.85 0 3.86 -26.85 0zm26.76 -40.76l35.03 -0.68 -17.16 -52.62 -0.35 0 -17.52 53.3zm86.19 40.76l0 -3.86 13.21 -0.85 0 -113.05 -13.21 -0.85 0 -3.86 43.26 0c11.59,0 21.55,1.46 29.84,4.36 8.31,2.93 14.87,7.18 19.71,12.71 4.83,5.57 8.34,12.01 10.57,19.33 2.2,7.32 3.28,15.79 3.28,25.39 0,6.91 -0.7,13.38 -2.14,19.36 -1.43,5.97 -3.69,11.54 -6.82,16.63 -3.11,5.13 -7,9.52 -11.66,13.15 -4.68,3.63 -10.39,6.48 -17.19,8.5 -6.76,2.02 -14.35,3.04 -22.78,3.04l-46.07 0zm35.17 -5.59c3.11,0.55 5.89,0.85 8.41,0.85 5.85,0 11.04,-0.94 15.58,-2.84 4.57,-1.88 8.37,-4.48 11.42,-7.85 3.07,-3.34 5.59,-7.44 7.61,-12.27 1.99,-4.84 3.43,-10.08 4.34,-15.73 0.88,-5.68 1.32,-11.86 1.32,-18.63 0,-6.61 -0.33,-12.53 -0.94,-17.74 -0.65,-5.22 -1.82,-10.28 -3.57,-15.2 -1.73,-4.92 -4.05,-8.96 -6.92,-12.18 -2.87,-3.2 -6.64,-5.74 -11.33,-7.68 -4.69,-1.9 -10.19,-2.87 -16.49,-2.87 -3.19,0 -6.32,0.3 -9.43,0.85l0 111.29zm88.45 -55.26c0,-11.78 2.1,-22.53 6.35,-32.25 4.22,-9.75 10.46,-17.57 18.66,-23.48 8.2,-5.92 17.65,-8.88 28.34,-8.88 16.14,0 29.14,5.68 39.01,17.07 9.87,11.4 14.79,26.33 14.79,44.78 0,6.77 -0.67,13.33 -2.02,19.65 -1.35,6.36 -3.42,12.39 -6.3,18.07 -2.87,5.68 -6.32,10.66 -10.42,14.94 -4.1,4.24 -9.11,7.64 -15.05,10.16 -5.95,2.52 -12.45,3.78 -19.48,3.78 -16.75,0 -29.93,-5.83 -39.5,-17.51 -9.58,-11.66 -14.38,-27.12 -14.38,-46.33zm22.99 -1.88c0,11.25 1.11,21.41 3.33,30.49 2.26,9.05 5.68,16.4 10.34,22.05 4.69,5.62 10.25,8.43 16.69,8.43 9.61,0 17.17,-5.56 22.61,-16.72 5.48,-11.16 8.2,-25.95 8.2,-44.42 0,-19.22 -2.66,-33.65 -8.02,-43.32 -5.36,-9.66 -12.77,-14.49 -22.26,-14.49 -3.31,0 -6.47,0.67 -9.49,2.05 -2.98,1.37 -5.82,3.57 -8.43,6.61 -2.64,3.02 -4.89,6.77 -6.8,11.19 -1.87,4.42 -3.39,9.9 -4.51,16.43 -1.11,6.5 -1.66,13.74 -1.66,21.7zm97.4 62.73l0 -3.86 13.21 -0.85 0 -113.05 -13.21 -0.85 0 -3.86 45.92 0c4.95,0 9.43,0.23 13.44,0.67 4.04,0.47 8.06,1.32 11.98,2.55 3.95,1.23 7.26,2.84 9.93,4.83 2.66,2.02 4.8,4.66 6.44,7.94 1.64,3.28 2.46,7.14 2.46,11.54 0,3.48 -0.79,6.7 -2.31,9.66 -1.56,2.93 -3.52,5.39 -5.89,7.32 -2.4,1.94 -5.15,3.66 -8.32,5.19 -3.13,1.52 -6.18,2.66 -9.1,3.48 -2.9,0.79 -5.83,1.41 -8.76,1.79l0 0.35c5.77,0 11.1,0.67 15.96,2.02 4.86,1.35 9.11,3.34 12.74,5.97 3.63,2.64 6.5,6.07 8.55,10.34 2.05,4.28 3.08,9.11 3.08,14.56 0,4.92 -0.88,9.34 -2.64,13.26 -1.79,3.93 -4.16,7.18 -7.15,9.76 -2.95,2.57 -6.47,4.71 -10.51,6.44 -4.04,1.7 -8.23,2.93 -12.56,3.69 -4.37,0.73 -8.91,1.11 -13.65,1.11l-49.61 0zm35.17 -5.59c3.11,0.55 6.06,0.85 8.93,0.85 9.11,0 16.26,-2.64 21.44,-7.91 5.18,-5.24 7.76,-12.42 7.76,-21.44 0,-9.66 -2.66,-17.07 -8.02,-22.2 -5.36,-5.12 -12.77,-7.67 -22.2,-7.67 -2.69,0 -5.33,0.21 -7.91,0.62l0 57.75zm0 -63.64c2.4,0.35 4.63,0.53 6.62,0.53 17.37,0 26.06,-8.58 26.06,-25.72 0,-7.32 -1.96,-13.03 -5.85,-17.13 -3.9,-4.13 -9.84,-6.18 -17.9,-6.18 -2.84,0 -5.82,0.3 -8.93,0.85l0 47.65zm74.68 50.64c0,-2.82 0.44,-5.54 1.32,-8.15 0.91,-2.6 2.34,-5.12 4.33,-7.52 2.02,-2.4 4.45,-4.51 7.38,-6.27 2.93,-1.79 6.53,-3.19 10.84,-4.28 4.33,-1.05 9.11,-1.58 14.38,-1.58 2.78,0 5.44,0.12 7.96,0.35l0 -11.89c0,-3.77 -0.06,-6.85 -0.2,-9.19 -0.15,-2.37 -0.5,-4.8 -1.09,-7.29 -0.55,-2.49 -1.37,-4.43 -2.43,-5.77 -1.05,-1.35 -2.54,-2.46 -4.48,-3.34 -1.9,-0.91 -4.21,-1.35 -6.97,-1.35 -8.34,0 -14.43,3.31 -18.27,9.9l0 0.35c0.99,-0.17 1.87,-0.26 2.66,-0.26 2.99,0 5.33,0.94 7.03,2.75 1.73,1.85 2.58,4.48 2.58,7.94 0,2.98 -1.03,5.5 -3.08,7.55 -2.08,2.02 -4.62,3.05 -7.73,3.05 -3.36,0 -6.03,-1.14 -7.96,-3.43 -1.97,-2.28 -2.93,-4.98 -2.93,-8.05 0,-6.74 3.1,-12.39 9.31,-16.9 6.21,-4.51 13.33,-6.76 21.38,-6.76 5.74,0 10.6,0.61 14.64,1.81 4.01,1.2 7.24,2.78 9.64,4.75 2.4,1.99 4.27,4.65 5.62,8.08 1.35,3.4 2.23,6.88 2.67,10.42 0.41,3.55 0.64,7.88 0.64,13.04l0 46.27 8.84 0.85 0 3.51 -27.29 0 -2.4 -13.53 -0.18 0c-2.81,5.45 -6.18,9.49 -10.16,12.16 -3.98,2.66 -8.78,4.01 -14.44,4.01 -6.97,0 -12.33,-2.08 -16.05,-6.27 -3.71,-4.19 -5.56,-9.2 -5.56,-14.96zm20.76 -1.76c0,4.59 0.85,8.32 2.58,11.16 1.7,2.84 4.22,4.27 7.53,4.27 3.89,0 7.41,-2.43 10.6,-7.32 3.16,-4.89 4.74,-10.87 4.74,-17.95l0 -11.89c-2.28,-0.3 -4.13,-0.44 -5.56,-0.44 -2.99,0 -5.62,0.41 -7.94,1.2 -2.31,0.82 -4.16,1.9 -5.5,3.28 -1.38,1.38 -2.52,2.84 -3.46,4.36 -0.91,1.53 -1.55,3.19 -1.96,5.04 -0.41,1.84 -0.67,3.37 -0.82,4.57 -0.15,1.2 -0.21,2.46 -0.21,3.72zm64.23 -58.9l0 -3.51 17.92 -1.9 12.1 -3.2 1.55 2.49 0 81.01 8.84 0.85 0 3.51 -38.71 0 0 -3.51 8.84 -0.85 0 -74.89 -10.54 0zm9.31 -38.98c0,-1.58 0.29,-3.07 0.91,-4.42 0.58,-1.37 1.4,-2.57 2.43,-3.6 1.02,-1.02 2.22,-1.81 3.6,-2.4 1.35,-0.56 2.81,-0.85 4.36,-0.85 1.53,0 2.99,0.29 4.37,0.91 1.35,0.58 2.58,1.4 3.63,2.43 1.05,1.02 1.87,2.22 2.46,3.6 0.62,1.35 0.91,2.81 0.91,4.33 0,1.56 -0.29,3.02 -0.91,4.4 -0.59,1.34 -1.41,2.57 -2.43,3.63 -1.03,1.05 -2.23,1.87 -3.6,2.46 -1.35,0.61 -2.84,0.91 -4.43,0.91 -1.61,0 -3.1,-0.3 -4.45,-0.91 -1.37,-0.59 -2.57,-1.41 -3.6,-2.43 -1.02,-1.03 -1.81,-2.23 -2.4,-3.6 -0.56,-1.35 -0.85,-2.84 -0.85,-4.46zm40.97 38.98l0 -3.51 17.92 -1.9 12.1 -3.2 1.2 2.49 0 14.73 0.35 0c1.14,-2.28 2.55,-4.51 4.22,-6.67 1.64,-2.2 3.45,-4.1 5.45,-5.8 1.96,-1.7 4.07,-3.05 6.32,-4.07 2.23,-1.03 4.48,-1.55 6.8,-1.55 4.45,0 7.9,1.17 10.33,3.54 2.43,2.37 3.66,5.53 3.66,9.49 0,1.64 -0.26,3.19 -0.76,4.57 -0.52,1.4 -1.26,2.63 -2.19,3.66 -0.94,1.02 -2.08,1.84 -3.43,2.43 -1.35,0.61 -2.81,0.91 -4.42,0.91 -1.73,0 -3.25,-0.3 -4.63,-0.85 -1.38,-0.59 -2.55,-1.35 -3.48,-2.32 -0.94,-0.96 -1.67,-2.11 -2.2,-3.39 -0.5,-1.29 -0.76,-2.67 -0.76,-4.16 0,-3.02 0.61,-5.25 1.87,-6.68l0 -0.53c-2.05,0.47 -4.07,1.55 -6.06,3.28 -1.99,1.7 -3.78,4.04 -5.39,7 -1.61,2.93 -2.9,6.47 -3.86,10.63 -1,4.16 -1.47,8.82 -1.47,14.03l0 42.76 8.85 0.85 0 3.51 -38.72 0 0 -3.51 8.84 -0.85 0 -74.89 -10.54 0zm75.82 36.2c0,-4.48 0.44,-8.84 1.29,-13.09 0.85,-4.27 2.25,-8.38 4.19,-12.33 1.96,-3.95 4.33,-7.41 7.11,-10.39 2.82,-2.96 6.3,-5.36 10.43,-7.18 4.16,-1.79 8.73,-2.69 13.76,-2.69 4.75,0 9.02,0.67 12.8,2.02 3.75,1.34 6.91,3.22 9.43,5.62 2.52,2.4 4.6,5.33 6.24,8.78 1.67,3.46 2.87,7.21 3.57,11.22 0.71,4.04 1.09,8.47 1.09,13.27l-2.32 2.14 -45.62 0 0 5.24c0,24.98 7.08,37.45 21.26,37.45 10.07,0 18.1,-5.03 24.1,-15.11l3.34 2.05c-7.38,12.45 -17.87,18.69 -31.48,18.69 -13.15,0 -22.96,-4.07 -29.47,-12.19 -6.47,-8.14 -9.72,-19.3 -9.72,-33.5zm21.97 -6.5l27.67 -1.11c0.18,-2.93 0.26,-5.71 0.26,-8.41 0,-8.29 -0.99,-14.64 -2.95,-19.12 -1.97,-4.45 -5.25,-6.68 -9.81,-6.68 -2.76,0 -5.1,0.91 -7.06,2.7 -1.99,1.81 -3.52,4.39 -4.6,7.76 -1.08,3.36 -1.9,7.05 -2.43,11.01 -0.56,3.98 -0.91,8.58 -1.08,13.85zm91.28 48.15c6.53,0 11.33,-1.21 14.47,-3.64 3.1,-2.43 4.65,-5.44 4.65,-9.07 0,-1.91 -0.29,-3.58 -0.91,-5.04 -0.58,-1.47 -1.55,-2.9 -2.89,-4.25 -1.35,-1.35 -3.14,-2.72 -5.33,-4.16 -2.2,-1.4 -4.92,-2.98 -8.2,-4.77 -2.85,-1.67 -5.89,-3.4 -9.08,-5.21 -3.2,-1.79 -6.18,-3.9 -8.88,-6.27 -2.72,-2.37 -4.98,-5.13 -6.79,-8.26 -1.79,-3.16 -2.69,-6.94 -2.69,-11.33 0,-3.9 0.73,-7.41 2.22,-10.57 1.49,-3.14 3.57,-5.83 6.24,-8.03 2.63,-2.2 5.83,-3.89 9.52,-5.09 3.69,-1.21 7.73,-1.82 12.12,-1.82 3.31,0 6.65,0.41 9.99,1.23 3.36,0.85 6.38,2.08 9.05,3.72 2.69,1.67 4.86,3.72 6.53,6.18 1.67,2.46 2.49,5.3 2.49,8.55 0,1.26 -0.21,2.49 -0.65,3.69 -0.44,1.2 -1.08,2.28 -1.93,3.25 -0.85,0.97 -1.9,1.76 -3.14,2.34 -1.22,0.62 -2.63,0.91 -4.24,0.91 -3.31,0 -5.8,-0.91 -7.47,-2.72 -1.64,-1.85 -2.49,-4.07 -2.49,-6.68 0,-1.64 0.24,-3.07 0.7,-4.22 0.44,-1.17 1.06,-2.13 1.85,-2.93 0.76,-0.76 1.64,-1.31 2.66,-1.69 1,-0.38 2,-0.56 3.05,-0.56l0.76 0 0 -0.18c-0.58,-0.9 -1.4,-1.78 -2.49,-2.6 -1.08,-0.82 -2.37,-1.58 -3.86,-2.23 -1.5,-0.67 -3.14,-1.2 -4.98,-1.61 -1.82,-0.38 -3.78,-0.58 -5.83,-0.58 -3.02,0 -5.59,0.41 -7.7,1.2 -2.14,0.79 -3.87,1.81 -5.21,3.04 -1.35,1.23 -2.32,2.61 -2.96,4.07 -0.62,1.5 -0.94,2.93 -0.94,4.31 0,1.67 0.26,3.1 0.76,4.3 0.53,1.2 1.44,2.4 2.73,3.63 1.28,1.23 3.04,2.58 5.3,4.02 2.28,1.4 5.12,3.13 8.55,5.15 3.31,1.7 6.82,3.54 10.51,5.48 3.69,1.96 7.06,4.18 10.16,6.73 3.08,2.55 5.66,5.48 7.68,8.79 2.02,3.28 3.04,7.11 3.04,11.54 0,3.72 -0.7,7.11 -2.11,10.22 -1.4,3.07 -3.57,5.74 -6.5,7.99 -2.96,2.23 -6.7,3.96 -11.24,5.19 -4.54,1.23 -9.93,1.84 -16.17,1.84 -2.96,0 -6.15,-0.38 -9.52,-1.11 -3.37,-0.76 -6.5,-1.93 -9.34,-3.57 -2.87,-1.62 -5.24,-3.75 -7.12,-6.36 -1.9,-2.58 -2.84,-5.77 -2.84,-9.55 0,-1.61 0.27,-3.16 0.76,-4.62 0.53,-1.5 1.26,-2.84 2.2,-4.02 0.94,-1.17 2.11,-2.08 3.49,-2.78 1.37,-0.67 2.92,-1.02 4.71,-1.02 1.55,0 2.9,0.26 4.1,0.82 1.23,0.52 2.23,1.26 3.08,2.13 0.82,0.88 1.46,1.94 1.9,3.11 0.47,1.2 0.73,2.49 0.79,3.87 0,1.58 -0.29,3.01 -0.88,4.24 -0.55,1.2 -1.29,2.23 -2.22,3.02 -0.91,0.82 -1.97,1.43 -3.14,1.84 -1.17,0.44 -2.31,0.65 -3.45,0.65 -0.24,0 -0.47,0 -0.73,0 -0.27,0 -0.5,-0.03 -0.74,-0.09l0 0.17c0.53,1.18 1.29,2.32 2.32,3.43 1.02,1.11 2.34,2.11 3.89,2.99 1.58,0.88 3.4,1.58 5.51,2.14 2.08,0.55 4.36,0.85 6.88,0.85z"/>
  <path class="fil0" d="M125.75 224.25l-16.39 0 -3.67 10.23 -5.32 0 14.93 -39.1 4.51 0 14.96 39.1 -5.29 0 -3.73 -10.23zm-14.83 -4.24l13.3 0 -6.66 -18.27 -6.64 18.27zm71.61 9.34c-1.33,1.91 -3.18,3.33 -5.55,4.27 -2.37,0.94 -5.14,1.41 -8.28,1.41 -3.19,0 -6.02,-0.75 -8.49,-2.25 -2.48,-1.49 -4.38,-3.62 -5.74,-6.38 -1.35,-2.76 -2.04,-5.95 -2.08,-9.59l0 -3.41c0,-5.9 1.37,-10.47 4.12,-13.71 2.75,-3.24 6.61,-4.86 11.59,-4.86 4.09,0 7.37,1.04 9.85,3.12 2.5,2.09 4.02,5.05 4.58,8.88l-5.16 0c-0.97,-5.17 -4.05,-7.77 -9.24,-7.77 -3.46,0 -6.07,1.21 -7.86,3.64 -1.78,2.43 -2.67,5.95 -2.69,10.55l0 3.2c0,4.38 1,7.87 3,10.46 2.01,2.59 4.72,3.88 8.14,3.88 1.94,0 3.62,-0.21 5.07,-0.64 1.46,-0.43 2.65,-1.14 3.6,-2.16l0 -8.74 -9.04 0 0 -4.24 14.18 0 0 14.34zm44.3 -12.91l-16.94 0 0 13.8 19.68 0 0 4.24 -24.84 0 0 -39.1 24.57 0 0 4.23 -19.41 0 0 12.6 16.94 0 0 4.23zm52.82 18.04l-5.18 0 -19.69 -30.13 0 30.13 -5.17 0 0 -39.1 5.17 0 19.74 30.26 0 -30.26 5.13 0 0 39.1zm51.52 -12.39c-0.48,4.13 -2,7.32 -4.58,9.57 -2.56,2.24 -5.97,3.37 -10.24,3.37 -4.62,0 -8.32,-1.66 -11.11,-4.97 -2.77,-3.32 -4.17,-7.75 -4.17,-13.31l0 -3.76c0,-3.64 0.65,-6.83 1.95,-9.59 1.3,-2.76 3.13,-4.88 5.51,-6.36 2.39,-1.47 5.15,-2.21 8.27,-2.21 4.16,0 7.49,1.15 9.99,3.47 2.52,2.32 3.97,5.53 4.38,9.63l-5.18 0c-0.44,-3.12 -1.41,-5.38 -2.91,-6.77 -1.5,-1.4 -3.59,-2.1 -6.28,-2.1 -3.29,0 -5.87,1.22 -7.74,3.66 -1.87,2.43 -2.81,5.9 -2.81,10.39l0 3.79c0,4.25 0.89,7.62 2.66,10.14 1.78,2.5 4.25,3.75 7.44,3.75 2.86,0 5.06,-0.65 6.59,-1.94 1.53,-1.29 2.55,-3.55 3.05,-6.76l5.18 0zm26.18 12.39l-5.16 0 0 -39.1 5.16 0 0 39.1zm44.62 -10.23l-16.38 0 -3.68 10.23 -5.32 0 14.93 -39.1 4.51 0 14.96 39.1 -5.29 0 -3.73 -10.23zm-14.83 -4.24l13.3 0 -6.66 -18.27 -6.64 18.27zm69.96 14.47l0 -39.1 11.03 0c3.4,0 6.41,0.75 9.03,2.25 2.62,1.5 4.63,3.65 6.05,6.42 1.43,2.78 2.15,5.96 2.17,9.56l0 2.5c0,3.68 -0.72,6.92 -2.14,9.7 -1.42,2.77 -3.46,4.9 -6.1,6.39 -2.64,1.48 -5.71,2.24 -9.22,2.28l-10.82 0zm5.16 -34.87l0 30.63 5.42 0c3.97,0 7.06,-1.23 9.28,-3.7 2.21,-2.47 3.31,-5.98 3.31,-10.55l0 -2.28c0,-4.45 -1.04,-7.89 -3.13,-10.35 -2.08,-2.47 -5.04,-3.71 -8.87,-3.75l-6.01 0zm66.62 16.83l-16.94 0 0 13.8 19.68 0 0 4.24 -24.84 0 0 -39.1 24.57 0 0 4.23 -19.41 0 0 12.6 16.94 0 0 4.23zm62.93 11.19l11.17 -32.25 5.63 0 -14.5 39.1 -4.56 0 -14.47 -39.1 5.61 0 11.12 32.25zm41.19 6.85l-5.16 0 0 -39.1 5.16 0 0 39.1zm44.62 -10.23l-16.38 0 -3.68 10.23 -5.32 0 14.93 -39.1 4.52 0 14.95 39.1 -5.28 0 -3.74 -10.23zm-14.83 -4.24l13.3 0 -6.66 -18.27 -6.64 18.27zm59.12 -24.63l5.18 0 0 27.7c0,3.74 -1.12,6.67 -3.37,8.78 -2.25,2.11 -5.24,3.17 -8.98,3.17 -3.89,0 -6.91,-0.99 -9.08,-2.98 -2.17,-1.99 -3.25,-4.78 -3.25,-8.35l5.16 0c0,2.23 0.61,3.97 1.83,5.22 1.23,1.25 3.01,1.87 5.34,1.87 2.12,0 3.85,-0.66 5.17,-2.01 1.32,-1.34 1.98,-3.22 2,-5.64l0 -27.76zm49.68 21.06l-16.94 0 0 13.8 19.68 0 0 4.24 -24.84 0 0 -39.1 24.57 0 0 4.23 -19.41 0 0 12.6 16.94 0 0 4.23zm34.28 0.61c-4.42,-1.27 -7.64,-2.84 -9.66,-4.69 -2.01,-1.85 -3.02,-4.14 -3.02,-6.86 0,-3.08 1.24,-5.63 3.69,-7.65 2.47,-2.02 5.67,-3.02 9.6,-3.02 2.69,0 5.09,0.52 7.19,1.55 2.11,1.04 3.73,2.47 4.88,4.3 1.16,1.83 1.73,3.83 1.73,5.99l-5.17 0c0,-2.37 -0.76,-4.23 -2.26,-5.58 -1.5,-1.35 -3.63,-2.03 -6.37,-2.03 -2.54,0 -4.52,0.56 -5.94,1.68 -1.43,1.13 -2.13,2.67 -2.13,4.66 0,1.6 0.66,2.96 2.02,4.06 1.35,1.1 3.65,2.1 6.9,3.02 3.25,0.92 5.8,1.93 7.63,3.03 1.83,1.1 3.19,2.38 4.08,3.85 0.89,1.47 1.33,3.2 1.33,5.19 0,3.17 -1.24,5.71 -3.71,7.62 -2.47,1.91 -5.77,2.86 -9.9,2.86 -2.69,0 -5.2,-0.51 -7.53,-1.54 -2.32,-1.04 -4.11,-2.45 -5.38,-4.24 -1.27,-1.78 -1.89,-3.82 -1.89,-6.09l5.18 0c0,2.35 0.87,4.21 2.62,5.58 1.74,1.37 4.07,2.05 7,2.05 2.72,0 4.8,-0.55 6.25,-1.66 1.45,-1.11 2.18,-2.63 2.18,-4.53 0,-1.92 -0.68,-3.4 -2.02,-4.45 -1.34,-1.04 -3.77,-2.08 -7.3,-3.1z"/>
 </g>
</svg>
