<?xml version="1.0" encoding="UTF-8"?>
<!DOCTYPE svg PUBLIC "-//W3C//DTD SVG 1.0//EN" "http://www.w3.org/TR/2001/REC-SVG-20010904/DTD/svg10.dtd">
<!-- Creator: CorelDRAW 2021 (64-Bit) -->
<svg xmlns="http://www.w3.org/2000/svg" xml:space="preserve" width="188px" height="189px" version="1.0" style="shape-rendering:geometricPrecision; text-rendering:geometricPrecision; image-rendering:optimizeQuality; fill-rule:evenodd; clip-rule:evenodd"
viewBox="0 0 14.59 14.61"
 xmlns:xlink="http://www.w3.org/1999/xlink"
 xmlns:xodm="http://www.corel.com/coreldraw/odm/2003">
 <defs>
  <style type="text/css">
   <![CDATA[
    .fil0 {fill:black;fill-rule:nonzero}
   ]]>
  </style>
 </defs>
 <g id="Capa_x0020_1">
  <metadata id="CorelCorpID_0Corel-Layer"/>
  <path class="fil0" d="M4.89 3.9c0.14,0 0.28,0.03 0.42,0.05 0.08,0.01 0.16,0.13 0.2,0.22 0.2,0.47 0.4,0.93 0.58,1.41 0.09,0.26 -0.09,0.5 -0.46,0.92 -0.11,0.13 -0.14,0.25 -0.05,0.41 0.59,1 1.41,1.73 2.5,2.16 0.05,0.02 0.1,0.03 0.14,0.03 0.09,0 0.17,-0.05 0.24,-0.13 0.47,-0.57 0.6,-0.81 0.79,-0.81 0.05,0 0.1,0.01 0.16,0.04 1.46,0.7 1.57,0.73 1.58,0.89 0.03,1.17 -0.99,1.63 -1.68,1.63l-0.1 0c-1.41,-0.05 -3.66,-1.17 -5.19,-3.85 -0.53,-0.95 -0.45,-2.03 0.36,-2.78 0.15,-0.15 0.33,-0.19 0.51,-0.19z"/>
  <path class="fil0" d="M8.25 13.23c3.3,-0.53 5.57,-3.6 5.09,-6.88 -0.44,-3.02 -2.99,-5.16 -5.93,-5.16 -0.36,0 -0.73,0.04 -1.1,0.1 -4.07,0.75 -6.27,5.29 -4.27,8.89 0.22,0.39 0.28,0.72 0.12,1.14 -0.18,0.52 -0.3,1.04 -0.46,1.62 0.72,-0.19 1.39,-0.35 2.05,-0.54 0.06,-0.01 0.12,-0.02 0.17,-0.02 0.11,0 0.21,0.03 0.33,0.09 0.95,0.56 1.95,0.84 3.02,0.84 0.32,0 0.65,-0.02 0.98,-0.08zm6.23 -7.33c0.7,4.01 -1.95,7.8 -5.93,8.5 -0.42,0.07 -0.85,0.11 -1.27,0.11 -1.12,0 -2.2,-0.26 -3.24,-0.77 -0.09,-0.05 -0.2,-0.07 -0.3,-0.07 -0.05,0 -0.1,0.01 -0.15,0.02 -1.92,0.48 -3.2,0.84 -3.59,0.92 0.08,-0.32 0.16,-0.59 0.23,-0.87 0.25,-0.88 0.5,-1.75 0.74,-2.63 0.03,-0.13 0.02,-0.3 -0.04,-0.42 -2.2,-4.25 0.14,-9.39 4.83,-10.49 0.58,-0.14 1.15,-0.2 1.7,-0.2 3.53,0 6.44,2.59 7.02,5.9z"/>
 </g>
</svg>
